<svg width="48" height="48" viewBox="0 0 48 48" fill="none" xmlns="http://www.w3.org/2000/svg">
<path d="M29.5055 0.642064C24.8874 -0.448327 20.0498 -0.144867 15.6042 1.51407C11.1586 3.17301 7.3047 6.11293 4.5299 9.96207C1.7551 13.8112 0.183975 18.3967 0.0151884 23.1388C-0.153598 27.8808 1.08753 32.5664 3.58165 36.6031C6.07576 40.6398 9.71085 43.8463 14.0272 45.8171C18.3437 47.7879 23.1475 48.4345 27.8314 47.6752C32.5153 46.9159 36.8689 44.7848 40.3416 41.5513C43.8144 38.3178 46.2503 34.1271 47.3414 29.5092C48.066 26.4427 48.1794 23.2634 47.6752 20.153C47.171 17.0426 46.059 14.0619 44.4027 11.3813C42.7465 8.70067 40.5784 6.37255 38.0223 4.5299C35.4662 2.68725 32.5722 1.36616 29.5055 0.642064Z" fill="#F2EDD0"/>
<path fill-rule="evenodd" clip-rule="evenodd" d="M27.4546 7L36 24.0069L18.014 41.0139L20.1539 33.3076L29.986 24.0069L25.3147 14.7063L27.4546 7Z" fill="#0E8635"/>
<path fill-rule="evenodd" clip-rule="evenodd" d="M21.4405 7L29.986 24.0069L12 41.0139L21.4405 7Z" fill="#E97208"/>
</svg>
