<svg width="36" height="36" viewBox="0 0 36 36" fill="none" xmlns="http://www.w3.org/2000/svg">
<circle cx="18" cy="18" r="18" fill="#F3F3F3"/>
<path d="M14.5981 17.3429C15.0374 18.1346 15.5431 18.8949 16.2009 19.5889C16.8599 20.2865 17.6794 20.9213 18.7414 21.4632C18.8199 21.5019 18.8947 21.5019 18.9611 21.4753C19.0625 21.4367 19.1651 21.3534 19.2664 21.252C19.3449 21.1736 19.4427 21.0481 19.5452 20.9105C19.9532 20.3734 20.4589 19.7072 21.1722 20.0403C21.1878 20.0475 21.1999 20.056 21.2156 20.0632L23.5956 21.4319C23.6029 21.4355 23.6113 21.4439 23.6186 21.4476C23.9324 21.6636 24.0615 21.9967 24.0651 22.3733C24.0651 22.7571 23.9239 23.1891 23.7163 23.5536C23.4424 24.0352 23.038 24.3538 22.5722 24.565C22.1292 24.769 21.6356 24.8788 21.1613 24.9488C20.4166 25.0586 19.719 24.9886 19.0058 24.769C18.3082 24.5529 17.6057 24.1969 16.8381 23.7226L16.7814 23.6864C16.429 23.4667 16.0488 23.2314 15.6759 22.9538C14.3085 21.9219 12.9169 20.4325 12.0105 18.7936C11.2502 17.4177 10.835 15.932 11.0619 14.5163C11.1874 13.7402 11.5205 13.0342 12.101 12.5683C12.6067 12.1604 13.2886 11.9371 14.1709 12.0156C14.2723 12.0228 14.3628 12.0819 14.4098 12.1688L15.9354 14.748C16.1587 15.0377 16.1864 15.3237 16.0645 15.6109C15.9631 15.8463 15.7592 16.0623 15.4804 16.2651C15.3983 16.3351 15.3005 16.4063 15.198 16.4811C14.8564 16.7285 14.469 17.0146 14.6017 17.3513L14.5981 17.3429Z" fill="#44B54D"/>
</svg>
