<svg width="48" height="48" viewBox="0 0 48 48" fill="none" xmlns="http://www.w3.org/2000/svg">
<path d="M29.5055 0.642064C24.8874 -0.448327 20.0498 -0.144867 15.6042 1.51407C11.1586 3.17301 7.3047 6.11293 4.5299 9.96207C1.7551 13.8112 0.183975 18.3967 0.0151884 23.1388C-0.153598 27.8808 1.08753 32.5664 3.58165 36.6031C6.07576 40.6398 9.71085 43.8463 14.0272 45.8171C18.3437 47.7879 23.1475 48.4345 27.8314 47.6752C32.5153 46.9159 36.8689 44.7848 40.3416 41.5513C43.8144 38.3178 46.2503 34.1271 47.3414 29.5092C48.066 26.4427 48.1794 23.2634 47.6752 20.153C47.171 17.0426 46.059 14.0619 44.4027 11.3813C42.7465 8.70067 40.5784 6.37255 38.0223 4.5299C35.4662 2.68725 32.5722 1.36616 29.5055 0.642064Z" fill="#DDF3F5"/>
<path d="M36.8565 17.2345L36.5365 13.6611C36.5006 13.2618 36.1482 12.9671 35.7489 13.003L8.6611 15.4289C8.26181 15.4648 7.96705 15.8172 8.00296 16.2165L9.47071 32.6042C9.50662 33.0035 9.85898 33.2982 10.2583 33.2623L11.352 33.1642L36.8565 17.2345Z" fill="#B0B6BC"/>
<path d="M11.3519 34.4481C11.3519 34.83 11.6616 35.1393 12.0432 35.1393H39.3084C39.6903 35.1393 39.9996 34.8296 39.9996 34.4481V25.7515C30.6644 23.9926 21.106 24.0683 11.3516 25.7515V34.4481H11.3519Z" fill="#40596B"/>
<path d="M39.3088 17.2345H12.0432C11.6613 17.2345 11.352 17.5442 11.352 17.9261V20.6706C20.9012 22.8662 30.4508 22.8662 40 20.6706V17.9261C40 17.5442 39.6903 17.2345 39.3088 17.2345Z" fill="#40596B"/>
<path d="M40 20.6705H11.3527V25.7515H40V20.6705Z" fill="#F2F2F2"/>
<path d="M26.1492 29.5751H14.9221C14.7258 29.5751 14.5666 29.4162 14.5666 29.2196C14.5666 29.0229 14.7258 28.864 14.9221 28.864H26.1492C26.3458 28.864 26.5048 29.0229 26.5048 29.2196C26.5048 29.4162 26.3458 29.5751 26.1492 29.5751Z" fill="#F2F2F2"/>
<path d="M21.4068 32.2479H14.9221C14.7258 32.2479 14.5666 32.0889 14.5666 31.8923C14.5666 31.6957 14.7258 31.5367 14.9221 31.5367H21.4068C21.6031 31.5367 21.7623 31.6957 21.7623 31.8923C21.7623 32.0889 21.6031 32.2479 21.4068 32.2479Z" fill="#F2F2F2"/>
<path d="M26.1492 32.2479H23.1007C22.9044 32.2479 22.7451 32.0889 22.7451 31.8923C22.7451 31.6957 22.9044 31.5367 23.1007 31.5367H26.1492C26.3459 31.5367 26.5048 31.6957 26.5048 31.8923C26.5048 32.0889 26.3459 32.2479 26.1492 32.2479Z" fill="#F2F2F2"/>
<path d="M36.8544 28.864H31.3379C31.1413 28.864 30.9823 29.0229 30.9823 29.2196V31.8923C30.9823 32.0889 31.1413 32.2479 31.3379 32.2479H36.8547C37.0514 32.2479 37.2103 32.0889 37.2103 31.8923V29.2196C37.2099 29.0233 37.051 28.864 36.8544 28.864Z" fill="#F2F2F2"/>
</svg>
