<svg width="142" height="45" viewBox="0 0 142 45" fill="none" xmlns="http://www.w3.org/2000/svg">
<path d="M21.41 0.62285V43.8127H9.69291V11.4252H9.43988L0 17.0696V7.12371L10.6272 0.62285H21.41ZM49.0874 45C45.1557 44.9805 41.769 44.0852 38.9273 42.2751C36.0662 40.4844 33.8668 37.8958 32.3097 34.4896C30.7721 31.1224 30.013 27.0545 30.013 22.3054C30.0324 17.5562 30.811 13.5273 32.3486 10.2184C33.8862 6.89015 36.0856 4.35987 38.9273 2.64707C41.769 0.914805 45.1557 0.0389404 49.0874 0.0389404C53.019 0.0389404 56.4057 0.914805 59.2474 2.64707C62.1086 4.37934 64.308 6.90961 65.8456 10.2379C67.4027 13.5467 68.1618 17.5757 68.1423 22.3054C68.1423 27.074 67.3832 31.1613 65.8261 34.548C64.2885 37.9347 62.0891 40.5234 59.2474 42.314C56.4057 44.1047 53.019 45 49.0874 45ZM49.0874 35.4628C51.1116 35.4628 52.766 34.4118 54.0701 32.3097C55.3741 30.1882 56.0164 26.8404 55.997 22.3054C55.997 19.3469 55.705 16.9139 55.1211 15.0454C54.5177 13.1575 53.7197 11.7561 52.6687 10.8607C51.6176 9.94595 50.4304 9.47882 49.0874 9.47882C47.0631 9.47882 45.4087 10.5104 44.1436 12.5735C42.8395 14.6172 42.1972 17.8677 42.1583 22.3054C42.1583 25.3417 42.4503 27.8136 43.0342 29.76C43.6181 31.7258 44.4355 33.1466 45.4866 34.0809C46.5376 34.9957 47.7444 35.4628 49.0874 35.4628ZM92.4524 45C88.5208 44.9805 85.1341 44.0852 82.2729 42.2751C79.4312 40.4844 77.2318 37.8958 75.6747 34.4896C74.1371 31.1224 73.378 27.0545 73.378 22.3054C73.3975 17.5562 74.176 13.5273 75.7137 10.2184C77.2513 6.89015 79.4507 4.35987 82.2924 2.64707C85.1341 0.914805 88.5208 0.0389404 92.4524 0.0389404C96.3646 0.0389404 99.7513 0.914805 102.612 2.64707C105.474 4.37934 107.673 6.90961 109.211 10.2379C110.768 13.5467 111.527 17.5757 111.507 22.3054C111.507 27.074 110.729 31.1613 109.191 34.548C107.654 37.9347 105.454 40.5234 102.593 42.314C99.7513 44.1047 96.3646 45 92.4524 45ZM92.4524 35.4628C94.4766 35.4628 96.131 34.4118 97.4351 32.3097C98.7392 30.1882 99.3815 26.8404 99.362 22.3054C99.362 19.3469 99.0701 16.9139 98.4861 15.0454C97.8828 13.1575 97.0848 11.7561 96.0337 10.8607C94.9827 9.94595 93.7954 9.47882 92.4524 9.47882C90.4282 9.47882 88.7738 10.5104 87.4892 12.5735C86.2046 14.6172 85.5623 17.8677 85.5233 22.3054C85.5233 25.3417 85.7958 27.8136 86.3992 29.76C86.9831 31.7258 87.8006 33.1466 88.8516 34.0809C89.9027 34.9957 91.09 35.4628 92.4524 35.4628Z" fill="#40B751"/>
<path d="M130.115 21.41V20.106C130.115 19.0549 130.348 18.0817 130.796 17.1864C131.263 16.2911 131.925 15.5904 132.801 15.0454C133.676 14.5004 134.727 14.2279 135.993 14.2279C137.277 14.2279 138.348 14.5004 139.243 15.026C140.119 15.5709 140.781 16.2716 141.228 17.167C141.676 18.0623 141.91 19.0355 141.91 20.106V21.41C141.91 22.4611 141.676 23.4343 141.228 24.3296C140.761 25.2249 140.099 25.9256 139.224 26.4706C138.328 27.0156 137.258 27.2881 135.993 27.2881C134.708 27.2881 133.637 27.0156 132.781 26.4706C131.905 25.9256 131.243 25.2249 130.776 24.3296C130.329 23.4343 130.115 22.4611 130.115 21.41ZM134.338 20.106V21.41C134.338 21.8772 134.455 22.3248 134.689 22.792C134.922 23.2202 135.35 23.4537 135.993 23.4537C136.654 23.4537 137.102 23.2396 137.316 22.792C137.53 22.3638 137.647 21.8966 137.647 21.41V20.106C137.647 19.6194 137.53 19.1522 137.336 18.7046C137.141 18.2375 136.674 18.0234 135.993 18.0234C135.35 18.0234 134.922 18.2375 134.689 18.7046C134.455 19.1522 134.338 19.6194 134.338 20.106ZM117.093 7.18209V5.87803C117.093 4.80753 117.327 3.83434 117.794 2.93901C118.261 2.04369 118.942 1.34299 119.799 0.79801C120.675 0.272491 121.745 0 122.971 0C124.256 0 125.346 0.272491 126.222 0.79801C127.098 1.34299 127.759 2.04369 128.227 2.93901C128.674 3.83434 128.908 4.80753 128.908 5.87803V7.18209C128.908 8.2526 128.674 9.22578 128.207 10.1211C127.759 10.997 127.078 11.6977 126.202 12.2232C125.327 12.7487 124.237 13.0212 122.971 13.0212C121.706 13.0212 120.636 12.7487 119.76 12.2232C118.884 11.6782 118.222 10.9775 117.775 10.0822C117.327 9.20631 117.093 8.23313 117.093 7.18209ZM121.375 5.87803V7.18209C121.375 7.66869 121.492 8.13581 121.706 8.58348C121.94 9.01168 122.368 9.22578 122.971 9.22578C123.653 9.22578 124.1 9.01168 124.295 8.58348C124.509 8.13581 124.626 7.66869 124.626 7.18209V5.87803C124.626 5.39144 124.529 4.92431 124.334 4.45718C124.12 4.00952 123.672 3.79542 122.971 3.79542C122.329 3.79542 121.901 4.02898 121.687 4.49611C121.473 4.94377 121.375 5.4109 121.375 5.87803ZM119.157 26.0813L136.246 1.20675H139.71L122.602 26.0813H119.157Z" fill="#40B751"/>
</svg>
