<svg width="66" height="45" viewBox="0 0 66 45" fill="none" xmlns="http://www.w3.org/2000/svg">
<path d="M18.2876 45C14.5955 44.9818 11.4152 44.1227 8.74661 42.4411C6.05977 40.7596 3.99438 38.3103 2.53215 35.13C1.0882 31.9497 0.375366 28.1296 0.375366 23.6881C0.393644 19.2283 1.12476 15.4265 2.56871 12.3193C4.01265 9.19378 6.07805 6.83594 8.74661 5.20921C11.4152 3.58248 14.5955 2.77826 18.2876 2.77826C21.9798 2.77826 25.1601 3.58248 27.8287 5.22749C30.5155 6.85421 32.5809 9.23033 34.0248 12.3376C35.4871 15.4448 36.1999 19.2283 36.1816 23.6881C36.1816 28.1662 35.4505 31.9862 34.0066 35.1666C32.5626 38.3469 30.4972 40.7961 27.8104 42.4777C25.1601 44.1593 21.9798 45 18.2876 45ZM18.2876 36.0439C20.1885 36.0439 21.7421 35.0386 22.9668 33.0646C24.1914 31.0723 24.7945 27.9468 24.7763 23.6881C24.7763 20.8916 24.5021 18.6251 23.9538 16.8522C23.3871 15.0792 22.6378 13.7632 21.6508 12.9225C20.6638 12.0634 19.5488 11.643 18.2876 11.643C16.3867 11.643 14.8331 12.6117 13.6268 14.5309C12.4205 16.4683 11.8173 19.5207 11.7807 23.6881C11.7807 26.5212 12.0549 28.8607 12.6032 30.6885C13.1516 32.5163 13.9192 33.8688 14.9062 34.7462C15.8932 35.6052 17.0265 36.0439 18.2876 36.0439Z" fill="#40B751"/>
<path d="M54.1671 20.1056V18.881C54.1671 17.894 54.3681 16.9801 54.8068 16.1393C55.2272 15.2985 55.8486 14.6405 56.6711 14.1288C57.4936 13.617 58.4989 13.3611 59.6687 13.3611C60.875 13.3611 61.8986 13.617 62.7211 14.1105C63.5436 14.6223 64.165 15.2803 64.6037 16.121C65.0241 16.9618 65.2434 17.8757 65.2434 18.881V20.1056C65.2434 21.0926 65.0241 22.0065 64.6037 22.8473C64.165 23.6881 63.5436 24.3461 62.7028 24.8578C61.8803 25.3696 60.875 25.6255 59.6687 25.6255C58.4806 25.6255 57.4754 25.3696 56.6529 24.8578C55.8304 24.3461 55.2089 23.6881 54.7885 22.8473C54.3681 22.0065 54.1671 21.0926 54.1671 20.1056ZM58.1151 18.881V20.1056C58.1151 20.5443 58.243 20.9647 58.4441 21.4033C58.6634 21.8054 59.0838 22.0248 59.6687 22.0248C60.3084 22.0248 60.7288 21.8237 60.9299 21.4033C61.1309 21.0012 61.2223 20.5626 61.2223 20.1056V18.881C61.2223 18.424 61.1309 17.9854 60.9481 17.565C60.7471 17.1263 60.3267 16.9253 59.6687 16.9253C59.0838 16.9253 58.6634 17.1263 58.4441 17.565C58.243 17.9854 58.1151 18.424 58.1151 18.881ZM41.9392 6.74452V5.5199C41.9392 4.51462 42.1585 3.60073 42.5972 2.75995C43.0359 1.91917 43.6573 1.26117 44.4798 0.749391C45.3023 0.25589 46.2893 0 47.4591 0C48.6654 0 49.689 0.25589 50.5115 0.749391C51.334 1.26117 51.9555 1.91917 52.3758 2.75995C52.7962 3.60073 53.0156 4.51462 53.0156 5.5199V6.74452C53.0156 7.7498 52.7962 8.66369 52.3758 9.50447C51.9372 10.327 51.3157 10.985 50.4932 11.4785C49.6524 11.972 48.6472 12.2279 47.4591 12.2279C46.2528 12.2279 45.2475 11.972 44.425 11.4785C43.6208 10.9667 42.9993 10.3087 42.5789 9.46791C42.1403 8.64541 41.9392 7.73152 41.9392 6.74452ZM45.9603 5.5199V6.74452C45.9603 7.20146 46.0517 7.64013 46.2711 8.06052C46.4721 8.46263 46.8742 8.66369 47.4591 8.66369C48.0806 8.66369 48.5009 8.46263 48.702 8.06052C48.9031 7.64013 49.0127 7.20146 49.0127 6.74452V5.5199C49.0127 5.06296 48.9031 4.62429 48.7203 4.18562C48.5375 3.76523 48.0988 3.56418 47.4591 3.56418C46.8559 3.56418 46.4538 3.78351 46.2528 4.22218C46.0517 4.64257 45.9603 5.08124 45.9603 5.5199ZM43.8767 24.4923L59.9246 1.13323H63.1598L47.1118 24.4923H43.8767Z" fill="#40B751"/>
</svg>
