<svg width="75" height="75" viewBox="0 0 75 75" fill="none" xmlns="http://www.w3.org/2000/svg">
<path d="M26.3121 65.3654L9.41211 48.3254L1.41211 56.3442L18.3121 73.3842L26.3121 65.3654Z" fill="#42B650"/>
<path d="M48.5122 9.63478L65.4122 26.6747L73.4122 18.6559L56.5122 1.61597L48.5122 9.63478Z" fill="#42B650"/>
<path d="M9.61206 26.3739L26.6121 9.4342L18.6121 1.41541L1.61206 18.3551L9.61206 26.3739Z" fill="#42B650"/>
<path d="M65.2122 48.6261L48.2122 65.5658L56.2122 73.5846L73.2122 56.6449L65.2122 48.6261Z" fill="#42B650"/>
<path d="M57.2122 36.7984L36.6122 56.6449L32.6122 57.2463H29.2122L23.7122 62.7593L12.7122 51.4327L18.3122 45.6191L17.7122 37.5001V29.2808L12.2122 23.7679L23.5121 12.5416L29.3122 18.3552L35.7122 18.7561L36.7122 17.6536H45.6122L51.1122 12.2408L62.3122 23.5674L56.5121 29.381L57.2122 36.7984Z" fill="#EAE1A1"/>
<path d="M51.3122 62.4586L45.5122 56.6449H36.6122L31.2122 51.2323L24.9122 44.9174C24.9122 44.9174 29.5122 40.3066 32.7122 43.4139L35.7122 46.5212L21.4122 32.0874C21.4122 32.0874 20.1122 30.6841 21.9122 28.8799C21.9122 28.8799 24.3122 26.9754 25.7122 28.2784L34.2122 36.8986L26.1122 28.6794C26.1122 28.6794 24.7122 26.7749 26.6122 24.8705C26.6122 24.8705 28.4122 22.966 31.0122 25.5721C31.0122 25.5721 31.1122 24.67 32.3122 23.4672C32.3122 23.4672 34.3122 21.7632 36.0122 23.4672L38.2122 25.6724C38.2122 25.6724 37.5122 24.0686 38.8122 22.6653C38.8122 22.6653 40.7122 20.8611 42.9122 23.0662C44.7122 24.8705 51.3122 30.9848 51.3122 30.9848L57.2122 36.7984V45.7193L62.6122 51.2323" fill="#EEE063"/>
<path fill-rule="evenodd" clip-rule="evenodd" d="M9.41422 46.9058L27.7243 65.3674L18.3101 74.8037L0 56.3421L9.41422 46.9058ZM2.82426 56.3463L18.3142 71.9645L24.9 65.3632L9.41004 49.745L2.82426 56.3463Z" fill="#3A3A3C"/>
<path fill-rule="evenodd" clip-rule="evenodd" d="M19.3122 37.0991L21.0363 35.2845L19.5881 33.902L17.3122 36.2973V45.2039L11.1011 51.4296L23.709 64.18L29.6141 58.261L32.5828 58.3485L32.6416 56.3446L28.8102 56.2317L23.7153 61.3386L13.9232 51.4359L19.3122 46.0343V37.0991Z" fill="#3A3A3C"/>
<path fill-rule="evenodd" clip-rule="evenodd" d="M56.5143 0.196289L74.8244 18.658L65.4102 28.0943L47.1001 9.63264L56.5143 0.196289ZM49.9244 9.63681L65.4143 25.255L72.0001 18.6538L56.5101 3.03555L49.9244 9.63681Z" fill="#3A3A3C"/>
<path fill-rule="evenodd" clip-rule="evenodd" d="M61.6052 22.8586L63.0194 24.2762L57.5122 29.7962V31.5862H55.5122V28.9658L61.6052 22.8586Z" fill="#3A3A3C"/>
<path fill-rule="evenodd" clip-rule="evenodd" d="M51.8128 12.956L46.021 18.6558H37.1407L35.4363 20.4496L33.988 19.0671L36.2836 16.6511H45.2033L50.4116 11.5255L51.8128 12.956Z" fill="#3A3A3C"/>
<path fill-rule="evenodd" clip-rule="evenodd" d="M18.6142 0L28.0284 9.43634L9.61002 27.7894L0.195801 18.353L18.6142 0ZM3.02841 18.3572L9.61419 24.9585L25.1958 9.43215L18.61 2.8309L3.02841 18.3572Z" fill="#3A3A3C"/>
<path fill-rule="evenodd" clip-rule="evenodd" d="M22.8049 13.2503L24.2191 11.8328L29.7263 17.3528H32.012V19.3575H28.8979L22.8049 13.2503Z" fill="#3A3A3C"/>
<path fill-rule="evenodd" clip-rule="evenodd" d="M12.9193 23.0591L18.7122 28.8656V32.8892H16.7122V29.696L11.5051 24.4766L12.9193 23.0591Z" fill="#3A3A3C"/>
<path fill-rule="evenodd" clip-rule="evenodd" d="M39.5118 23.3839C39.0396 23.9078 38.9043 24.3712 38.8671 24.6691C38.8473 24.828 38.8541 24.9522 38.8631 25.0272C38.8675 25.0645 38.8724 25.0889 38.8744 25.0982C38.8755 25.1028 38.8757 25.1035 38.8748 25.1001L38.8725 25.0918L38.8706 25.0852L38.8694 25.0813L38.8688 25.0792L38.8684 25.0781C38.8684 25.078 38.8684 25.0779 38.8649 25.0789L37.2052 26.0805L35.3052 24.176C34.7805 23.6501 34.2699 23.6515 33.8106 23.7888C33.5633 23.8627 33.3421 23.9777 33.1786 24.0793C33.0987 24.1291 33.0372 24.1727 32.9986 24.2015C32.9922 24.2063 32.9865 24.2106 32.9814 24.2145C32.4871 24.7181 32.2399 25.1339 32.1185 25.3947C32.0558 25.5293 32.0251 25.626 32.0114 25.6762C32.0074 25.691 32.0048 25.7019 32.0033 25.7087L31.7763 27.7555L30.3052 26.281C29.1954 25.1685 28.4187 25.1522 28.0273 25.2282C27.7972 25.2728 27.6117 25.3669 27.4831 25.4515C27.4198 25.4932 27.3741 25.5301 27.3482 25.5525C27.3387 25.5608 27.3321 25.5668 27.3286 25.5701L27.3194 25.5793C26.6145 26.2859 26.5707 26.9081 26.6376 27.3328C26.6747 27.5681 26.7522 27.7694 26.8217 27.912C26.8497 27.9694 26.8752 28.0148 26.894 28.0463L34.9229 36.1935L34.9237 36.1943L33.5011 37.6033L25.0196 29.0019C24.7725 28.7833 24.349 28.7422 23.6613 29.0202C23.3489 29.1464 23.0616 29.3103 22.8478 29.4473C22.7426 29.5147 22.6592 29.573 22.604 29.613C22.5928 29.6211 22.5828 29.6284 22.574 29.6349C21.9256 30.3059 21.9348 30.7711 21.9725 30.9885C21.9973 31.1311 22.0508 31.2493 22.0993 31.3318C22.1214 31.3695 22.1405 31.3965 22.1516 31.4111L32.8905 42.2505C33.0655 42.3817 33.2383 42.5291 33.4081 42.6941L33.4197 42.7053L36.4309 45.8242L35.0027 47.2276L31.5998 43.7928C30.5424 43.0762 29.3005 43.2852 28.0537 43.8999C27.4019 44.2213 26.8183 44.6262 26.3792 44.9703L37.0265 55.6427H45.9265L52.0194 61.7499L50.6052 63.1674L45.0981 57.6474H36.1981L30.5052 51.9411L23.4981 44.9175L24.2052 44.2087L24.9123 44.9175C24.2052 44.2087 24.2049 44.209 24.2052 44.2087L24.2064 44.2076L24.208 44.206L24.2124 44.2016L24.2264 44.1878C24.2379 44.1765 24.2538 44.161 24.274 44.1417C24.3143 44.1031 24.3716 44.0492 24.4445 43.9829C24.59 43.8507 24.7987 43.6684 25.0585 43.4612C25.5744 43.0499 26.3109 42.5252 27.1709 42.1011C27.7761 41.8027 28.4852 41.5371 29.2409 41.4118L20.6909 32.7818L20.6795 32.7695L21.4123 32.0875C20.6795 32.7695 20.6791 32.769 20.6786 32.7685L20.6777 32.7675L20.6757 32.7654L20.6714 32.7607L20.6614 32.7495C20.6541 32.7413 20.6456 32.7315 20.636 32.7201C20.6167 32.6974 20.5931 32.6684 20.5662 32.6333C20.5128 32.5634 20.4455 32.4677 20.3754 32.3482C20.2363 32.1112 20.0774 31.7658 20.0021 31.332C19.8407 30.4017 20.0994 29.2795 21.2052 28.1712L21.2462 28.1301L21.2916 28.094L21.9123 28.8799C21.2916 28.094 21.2914 28.0942 21.2916 28.094L21.2927 28.0932L21.294 28.0922L21.2972 28.0896L21.3064 28.0825L21.3351 28.0604C21.3588 28.0424 21.3915 28.0179 21.4323 27.9883C21.5139 27.9292 21.6289 27.8489 21.7706 27.7582C22.0505 27.5788 22.4507 27.3479 22.9133 27.161C23.3579 26.9813 23.9726 26.8005 24.623 26.8222C24.6753 25.9892 25.0165 25.0542 25.9015 24.1655L25.9074 24.1595C25.9164 24.1504 25.9273 24.1395 25.9402 24.1271C25.966 24.1023 25.9998 24.071 26.0413 24.0351C26.124 23.9635 26.2392 23.872 26.3853 23.7758C26.6754 23.5848 27.1024 23.3657 27.6473 23.26C28.5195 23.0908 29.5418 23.2385 30.6297 23.9593C30.8604 23.5959 31.1756 23.1891 31.6052 22.7585L31.6339 22.7298L31.6647 22.7035L32.3123 23.4672C31.6647 22.7035 31.6643 22.7038 31.6647 22.7035L31.6661 22.7023L31.6678 22.7009L31.6717 22.6976L31.6817 22.6892C31.6895 22.6828 31.6992 22.6749 31.711 22.6655C31.7344 22.6467 31.7658 22.6222 31.8046 22.5932C31.882 22.5355 31.9901 22.4593 32.1242 22.3759C32.3888 22.2113 32.7738 22.0068 33.239 21.8677C34.2047 21.579 35.5441 21.5805 36.7194 22.7585C36.7194 22.7585 36.7194 22.7585 36.7194 22.7585L37.2168 23.257C37.405 22.8452 37.6815 22.413 38.0795 21.9833L38.1013 21.9598L38.1246 21.9377L38.8123 22.6654C38.1246 21.9377 38.125 21.9373 38.1255 21.9369L38.1264 21.936L38.1283 21.9342L38.1329 21.93L38.1441 21.9195C38.1527 21.9118 38.1632 21.9023 38.1757 21.8913C38.2007 21.8694 38.2337 21.8414 38.2742 21.8089C38.3551 21.7442 38.4678 21.6603 38.6091 21.5707C38.8888 21.3935 39.2987 21.1824 39.8101 21.0628C40.9008 20.8077 42.278 21.013 43.6194 22.3575C44.5045 23.2447 46.5899 25.2108 48.4696 26.9694C49.4062 27.8455 50.2866 28.6655 50.933 29.2664C51.2562 29.5669 51.5208 29.8125 51.7045 29.983L51.9908 30.2485L52.0024 30.2592L58.2123 36.3783V45.3096L63.3259 50.5301L61.8988 51.9346L56.2123 46.1292V37.2187L50.6223 31.7105L50.3459 31.4542C50.1617 31.2833 49.8966 31.0372 49.5729 30.7362C48.9255 30.1343 48.0435 29.3129 47.105 28.4349C45.2348 26.6853 43.1202 24.6922 42.2052 23.7751C41.3466 22.9145 40.6739 22.9193 40.2646 23.015C40.026 23.0708 39.8233 23.173 39.6781 23.2651C39.6069 23.3102 39.5539 23.3501 39.5223 23.3754C39.5185 23.3785 39.515 23.3813 39.5118 23.3839ZM22.5309 29.6675C22.5309 29.6675 22.5309 29.6675 22.5309 29.6675Z" fill="#3A3A3C"/>
<path fill-rule="evenodd" clip-rule="evenodd" d="M37.905 33.8987L30.3049 26.2808L31.7191 24.8633L39.3192 32.4811L37.905 33.8987Z" fill="#3A3A3C"/>
<path fill-rule="evenodd" clip-rule="evenodd" d="M41.8051 30.6911L37.5051 26.381L38.9193 24.9635L43.2193 29.2736L41.8051 30.6911Z" fill="#3A3A3C"/>
<path fill-rule="evenodd" clip-rule="evenodd" d="M65.2143 47.2106L74.6285 56.6469L56.2101 75L46.7959 65.5636L65.2143 47.2106ZM49.6285 65.5678L56.2143 72.1691L71.7959 56.6427L65.2101 50.0415L49.6285 65.5678Z" fill="#3A3A3C"/>
</svg>
