<svg width="25" height="20" viewBox="0 0 25 20" fill="none" xmlns="http://www.w3.org/2000/svg">
<path fill-rule="evenodd" clip-rule="evenodd" d="M1.23053 7.4287C0.696455 7.19504 0.295898 6.66096 0.295898 6.02675C0.295898 5.39253 0.663075 4.85846 1.23053 4.6248L10.8439 0.48572C11.2778 0.285442 11.7785 0.185303 12.2792 0.185303C12.9468 0.185303 13.5476 0.352201 14.0483 0.652618L23.3613 4.59142C23.8953 4.82508 24.2959 5.39253 24.2959 6.02675C24.2959 6.69434 23.862 7.2618 23.2277 7.46208C22.0595 7.96277 20.8244 8.46347 19.5894 8.96416V10.0991V11.6679C19.5894 12.9363 18.7549 14.0379 17.3863 14.839C16.0845 15.5733 14.282 16.0407 12.2792 16.0407C10.3098 16.0407 8.5073 15.5733 7.20549 14.839C5.83693 14.0379 4.96906 12.9363 4.96906 11.6679V10.0991V8.99754L3.13317 8.22981V13.3369C3.30007 13.4037 3.43359 13.4704 3.53373 13.6039H3.56711C3.76739 13.8042 3.90091 14.1046 3.90091 14.4051C3.90091 14.7388 3.76739 15.0059 3.56711 15.2062H3.53373C3.50035 15.2729 3.46697 15.3063 3.40021 15.3397C3.46697 15.3731 3.50035 15.4064 3.53373 15.4732H3.56711C3.73401 15.6401 3.86753 15.8738 3.86753 16.1408L4.30146 18.5775L4.33484 18.6109V18.6443V18.9447C4.33484 19.1783 4.2347 19.3786 4.0678 19.5455C3.90091 19.7124 3.70063 19.8126 3.46697 19.8126H2.03164C1.79798 19.8126 1.56433 19.7124 1.43081 19.5455C1.26391 19.3786 1.16377 19.1783 1.16377 18.9447V18.6443V18.6109V18.5775L1.59771 16.1742C1.63109 15.8738 1.7646 15.6401 1.9315 15.4732C1.96488 15.4064 2.03164 15.3731 2.06502 15.3397C2.03164 15.3063 1.96488 15.2729 1.9315 15.2062C1.73123 15.0059 1.59771 14.7388 1.59771 14.4051C1.59771 14.1046 1.73123 13.8042 1.9315 13.6039C2.06502 13.5038 2.19854 13.4037 2.33206 13.3369V7.89601C1.79798 7.66235 1.39743 7.49546 1.23053 7.4287ZM3.09979 16.2743C3.09979 16.2409 3.09979 16.2409 3.09979 16.2076L3.06641 16.1742C3.06641 16.1408 3.03303 16.074 2.99965 16.0407C2.93289 15.9739 2.83276 15.9405 2.73262 15.9405C2.63248 15.9405 2.56572 15.9739 2.49896 16.0407C2.46558 16.074 2.4322 16.1074 2.39882 16.1742V16.2409C2.39882 16.2409 2.39882 16.2409 2.39882 16.2743L1.96488 18.6777V18.9447C1.96488 18.9447 1.96488 18.9781 1.99826 18.9781C1.99826 19.0114 1.99826 19.0114 2.03164 19.0114H3.46697C3.46697 19.0114 3.50035 19.0114 3.50035 18.9781L3.53373 18.9447V18.6777L3.09979 16.2743ZM2.99965 14.1714C2.93289 14.1046 2.83276 14.0713 2.73262 14.0713C2.63248 14.0713 2.56572 14.1046 2.49896 14.1714C2.4322 14.2382 2.39882 14.3049 2.39882 14.4051C2.39882 14.5052 2.4322 14.6053 2.49896 14.6387C2.56572 14.7055 2.63248 14.7388 2.73262 14.7388C2.83276 14.7388 2.93289 14.7055 2.99965 14.6387C3.03303 14.6053 3.09979 14.5052 3.09979 14.4051C3.09979 14.3049 3.03303 14.2382 2.99965 14.1714ZM10.677 6.5942L4.16794 7.79587C7.00522 8.99754 11.0442 10.6999 11.0442 10.6999H11.0775C11.2444 10.8 11.4447 10.8668 11.645 10.9002C11.8453 10.9669 12.0456 10.9669 12.2792 10.9669C12.5129 10.9669 12.7131 10.9669 12.9134 10.9002C13.1137 10.8668 13.314 10.8 13.5143 10.6999C15.6506 9.69852 17.8536 8.79726 20.0567 7.89601C20.9913 7.52884 21.9259 7.16166 22.9273 6.72772C22.9607 6.72772 22.9607 6.69434 22.9941 6.69434C23.1276 6.66096 23.2611 6.56082 23.3613 6.42731C23.428 6.32717 23.4948 6.16027 23.4948 6.02675C23.4948 5.85985 23.4614 5.72633 23.3613 5.62619C23.2945 5.49267 23.1944 5.39253 23.0608 5.35916L23.0275 5.32578L13.7479 1.38697C13.7145 1.35359 13.6812 1.35359 13.6478 1.32021C13.4475 1.22007 13.2472 1.11993 13.0136 1.05317C12.7799 1.0198 12.5462 0.986415 12.2792 0.986415C12.0789 0.986415 11.8787 0.986415 11.7118 1.05317C11.5449 1.08655 11.378 1.11993 11.2111 1.18669C11.1777 1.22007 11.1443 1.22007 11.1109 1.22007L1.53095 5.35916C1.39743 5.39253 1.29729 5.49267 1.19715 5.62619C1.13039 5.72633 1.09701 5.85985 1.09701 6.02675C1.09701 6.16027 1.13039 6.29379 1.19715 6.42731C1.29729 6.52744 1.39743 6.62758 1.49757 6.66096C1.56433 6.69434 1.59771 6.69434 1.63109 6.72772C1.83136 6.79448 2.2653 6.99476 2.83276 7.22842L10.3766 5.85985C10.5101 5.32578 11.3112 4.89184 12.2792 4.89184C13.3474 4.89184 14.2152 5.39253 14.2152 5.99337C14.2152 6.62758 13.3474 7.12828 12.2792 7.12828C11.6116 7.12828 11.0108 6.928 10.677 6.5942ZM18.7215 12.202C18.3543 12.6359 17.887 12.9697 17.3529 13.3035C17.1526 13.4037 16.919 13.3369 16.8188 13.1366C16.6853 12.9697 16.7521 12.7027 16.9524 12.6025C17.5532 12.2688 18.0205 11.8682 18.3543 11.4009C18.6547 11.0003 18.7882 10.5664 18.7882 10.0991V9.29796C17.1193 9.96555 15.4503 10.6665 13.8481 11.4343C13.3807 11.6679 12.8133 11.7681 12.2792 11.7681C11.6784 11.7681 11.2111 11.6679 10.7437 11.4343C10.7437 11.4343 8.24027 10.3661 5.77017 9.33134V10.0991C5.77017 11.0671 6.47114 11.935 7.60605 12.6025C8.80772 13.2701 10.4433 13.7041 12.2792 13.7041C12.5462 13.7041 12.8133 13.7041 13.0469 13.6707C13.314 13.6707 13.5476 13.6373 13.7813 13.6039C14.015 13.5706 14.2152 13.7375 14.2486 13.9377C14.282 14.1714 14.1151 14.3717 13.9148 14.4051C13.6478 14.4384 13.3807 14.4718 13.1137 14.4718C12.8133 14.5052 12.5462 14.5052 12.2792 14.5052C10.3098 14.5052 8.5073 14.0379 7.20549 13.2701C6.67142 12.9697 6.23748 12.6025 5.87031 12.202C6.07059 12.9363 6.7048 13.6039 7.60605 14.138C8.80772 14.839 10.4433 15.2395 12.2792 15.2395C14.1485 15.2395 15.7841 14.839 16.9857 14.138C17.887 13.6039 18.5212 12.9363 18.7215 12.202ZM15.8508 13.1032C16.0511 13.0365 16.2848 13.1366 16.3515 13.3369C16.4183 13.5706 16.3182 13.7708 16.1179 13.871C16.0845 13.871 16.0177 13.9044 15.9844 13.9044C15.7507 14.0045 15.5504 14.0713 15.2834 14.1046C15.0497 14.138 14.8494 14.0045 14.8161 13.7708C14.7827 13.5706 14.9496 13.3703 15.1499 13.3369C15.3168 13.3035 15.517 13.2368 15.6839 13.17C15.7507 13.1366 15.7841 13.1366 15.8508 13.1032ZM13.2472 5.89323C13.0136 5.75971 12.6798 5.69295 12.2792 5.69295C11.912 5.69295 11.5449 5.75971 11.3446 5.89323V5.92661C11.2444 5.95999 11.1777 5.99337 11.1777 5.99337C11.1777 5.99337 11.2111 6.06013 11.3112 6.09351C11.5449 6.22703 11.912 6.32717 12.2792 6.32717C12.6798 6.32717 13.0136 6.22703 13.2472 6.09351C13.3474 6.06013 13.4141 5.99337 13.4141 5.99337C13.4141 5.99337 13.3474 5.95999 13.2472 5.92661V5.89323Z" fill="#7E8490"/>
</svg>
