<svg width="93" height="77" viewBox="0 0 93 77" fill="none" xmlns="http://www.w3.org/2000/svg">
<path d="M87.3598 33.4488C87.3598 51.334 72.7962 65.7698 54.911 65.7698C37.0258 65.7698 22.59 51.334 22.59 33.4488C22.59 15.5636 37.0258 1 54.911 1C72.7962 1 87.3598 15.5636 87.3598 33.4488Z" fill="#EEE063"/>
<path fill-rule="evenodd" clip-rule="evenodd" d="M54.911 2C37.5833 2 23.59 16.1108 23.59 33.4488C23.59 50.7817 37.5781 64.7698 54.911 64.7698C72.249 64.7698 86.3598 50.7765 86.3598 33.4488C86.3598 16.1159 72.2439 2 54.911 2ZM21.59 33.4488C21.59 15.0165 36.4684 0 54.911 0C73.3485 0 88.3598 15.0113 88.3598 33.4488C88.3598 51.8914 73.3433 66.7698 54.911 66.7698C36.4736 66.7698 21.59 51.8862 21.59 33.4488Z" fill="#3A3A3C"/>
<path fill-rule="evenodd" clip-rule="evenodd" d="M57.0828 27.3167V39.9641C57.0828 42.7747 56.955 44.8187 56.6995 46.0962C56.3589 47.4589 55.6775 48.6938 54.6555 49.801C53.7187 50.9081 52.5689 51.7172 51.2062 52.2282C49.8435 52.7392 48.2679 52.9947 46.4794 52.9947C44.2651 52.9947 42.3914 52.7392 40.8584 52.2282C39.4105 51.7172 38.2608 50.9081 37.4091 49.801C36.4722 48.6938 35.8335 47.544 35.4928 46.3517C35.067 45.0742 34.8541 43.1153 34.8541 40.4751V27.3167C34.8541 23.8249 35.1521 21.2273 35.7483 19.5239C36.3445 17.8206 37.5368 16.4579 39.3254 15.4359C41.1139 14.3287 43.2857 13.7751 45.8407 13.7751C47.8847 13.7751 49.7158 14.1584 51.334 14.9249C53.0373 15.6062 54.2722 16.5005 55.0388 17.6077C55.8904 18.6297 56.444 19.7794 56.6995 21.0569C56.955 22.3345 57.0828 24.421 57.0828 27.3167ZM47.7569 24.123C47.7569 22.1641 47.6292 20.9292 47.3737 20.4182C47.2033 19.9072 46.7775 19.6517 46.0962 19.6517C45.3297 19.6517 44.8612 19.9072 44.6909 20.4182C44.4354 20.9292 44.3077 22.1641 44.3077 24.123V42.5192C44.3077 44.7335 44.4354 46.0536 44.6909 46.4794C44.8612 46.9904 45.2871 47.2459 45.9684 47.2459C46.6498 47.2459 47.1182 46.9479 47.3737 46.3517C47.6292 45.8407 47.7569 44.6909 47.7569 42.9024V24.123Z" fill="#42B650"/>
<path fill-rule="evenodd" clip-rule="evenodd" d="M45.8407 14.7751C43.4315 14.7751 41.4512 15.296 39.8517 16.2862C39.8417 16.2923 39.8317 16.2983 39.8215 16.3041C38.2107 17.2246 37.1976 18.4104 36.6922 19.8543C36.1535 21.3935 35.8541 23.8526 35.8541 27.3167V40.4751C35.8541 43.0904 36.0685 44.9164 36.4415 46.0355C36.4461 46.0492 36.4504 46.063 36.4543 46.077C36.75 47.1117 37.3119 48.1379 38.1725 49.155C38.1825 49.1669 38.1922 49.1789 38.2017 49.1912C38.9224 50.1281 39.9026 50.8289 41.1829 51.2823C42.5826 51.7476 44.3399 51.9947 46.4794 51.9947C48.1746 51.9947 49.6271 51.7524 50.8551 51.2919C52.0584 50.8407 53.066 50.1313 53.8921 49.155C53.9014 49.144 53.9109 49.1332 53.9207 49.1227C54.8316 48.1359 55.4246 47.0559 55.7236 45.8766C55.9555 44.7001 56.0828 42.7478 56.0828 39.9641V27.3167C56.0828 24.4271 55.9535 22.426 55.7189 21.2531C55.4968 20.1425 55.0179 19.1447 54.2705 18.2479C54.2515 18.225 54.2335 18.2013 54.2166 18.1769C53.5956 17.2799 52.5479 16.4875 50.9626 15.8534C50.9434 15.8457 50.9245 15.8375 50.9059 15.8286C49.4393 15.1339 47.7576 14.7751 45.8407 14.7751ZM38.814 14.5764C40.7885 13.3585 43.1466 12.7751 45.8407 12.7751C48.0003 12.7751 49.9714 13.1786 51.734 14.0079C53.5246 14.7286 54.927 15.7093 55.8351 17.0013C56.7753 18.1403 57.394 19.4305 57.6801 20.8608C57.9565 22.2429 58.0828 24.415 58.0828 27.3167V39.9641C58.0828 42.783 57.9563 44.9113 57.6801 46.2923C57.677 46.3078 57.6735 46.3233 57.6697 46.3387C57.287 47.8692 56.5242 49.2461 55.4049 50.4634C54.3598 51.6931 53.0726 52.5963 51.5573 53.1646C50.06 53.7261 48.3613 53.9947 46.4794 53.9947C44.1945 53.9947 42.2071 53.7319 40.5421 53.1769L40.5255 53.1712C38.9221 52.6053 37.6105 51.6951 36.6309 50.4294C35.6308 49.2434 34.9224 47.9828 34.5373 46.6472C34.0635 45.2119 33.8541 43.1275 33.8541 40.4751V27.3167C33.8541 23.7971 34.1508 21.0611 34.8045 19.1936C35.4897 17.2359 36.8559 15.6992 38.814 14.5764ZM44.6911 18.9654C45.1224 18.7302 45.614 18.6517 46.0962 18.6517C46.5533 18.6517 47.0253 18.7363 47.4411 18.9858C47.8558 19.2346 48.1403 19.6033 48.2993 20.0362C48.4936 20.4598 48.5939 21.026 48.6558 21.6247C48.7246 22.29 48.7569 23.1263 48.7569 24.123V42.9024C48.7569 43.816 48.7245 44.5909 48.655 45.2165C48.5901 45.8008 48.4837 46.3527 48.2817 46.7712C48.088 47.2117 47.7905 47.5969 47.3676 47.8661C46.9399 48.1382 46.4559 48.2459 45.9684 48.2459C45.5112 48.2459 45.0393 48.1613 44.6235 47.9118C44.2181 47.6685 43.9371 47.3107 43.7761 46.8904C43.6635 46.6697 43.5945 46.4256 43.5465 46.2068C43.487 45.9358 43.4422 45.619 43.4081 45.2663C43.3398 44.5602 43.3077 43.6403 43.3077 42.5192V24.123C43.3077 23.1263 43.34 22.29 43.4088 21.6247C43.4707 21.0257 43.5711 20.4591 43.7656 20.0354C43.9364 19.5737 44.2534 19.2042 44.6911 18.9654ZM45.6433 20.7244C45.6423 20.7268 45.641 20.7301 45.6396 20.7344C45.6246 20.7793 45.6065 20.8231 45.5853 20.8654C45.5447 20.9467 45.4607 21.2256 45.3982 21.8305C45.3392 22.4002 45.3077 23.1607 45.3077 24.123V42.5192C45.3077 43.6124 45.3394 44.4597 45.3988 45.0737C45.4286 45.381 45.4636 45.6124 45.5 45.778C45.5315 45.9217 45.5556 45.9753 45.5548 45.9757C45.5546 45.9757 45.5526 45.9719 45.5484 45.9649C45.5859 46.0275 45.6165 46.094 45.6396 46.1632C45.6458 46.1819 45.6511 46.1926 45.654 46.1977C45.669 46.2061 45.7528 46.2459 45.9684 46.2459C46.1622 46.2459 46.2531 46.2046 46.2939 46.1787C46.3312 46.155 46.3924 46.1028 46.4545 45.9578C46.4623 45.9398 46.4705 45.922 46.4793 45.9045C46.5239 45.8152 46.6058 45.5483 46.6672 44.9957C46.7255 44.4715 46.7569 43.7773 46.7569 42.9024V24.123C46.7569 23.1607 46.7254 22.4002 46.6664 21.8305C46.6039 21.2256 46.5199 20.9467 46.4793 20.8654C46.4581 20.8231 46.44 20.7793 46.425 20.7344C46.4188 20.7157 46.4135 20.705 46.4106 20.6999C46.3956 20.6915 46.3118 20.6517 46.0962 20.6517C45.8118 20.6517 45.686 20.7009 45.6488 20.7212C45.6466 20.7224 45.6448 20.7235 45.6433 20.7244Z" fill="#3A3A3C"/>
<path fill-rule="evenodd" clip-rule="evenodd" d="M4.57704 42.4971C3.10844 42.4971 2 43.6867 2 45.0741V71.6464C2 73.1846 3.13071 74.3511 4.57704 74.3511H11.9866C13.4783 74.3511 14.6914 73.1381 14.6914 71.6464V45.0741C14.6914 43.7327 13.5012 42.4971 11.9866 42.4971H4.57704ZM0 45.0741C0 42.629 1.95759 40.4971 4.57704 40.4971H11.9866C14.5601 40.4971 16.6914 42.583 16.6914 45.0741V71.6464C16.6914 74.2427 14.5829 76.3511 11.9866 76.3511H4.57704C1.93532 76.3511 0 74.1961 0 71.6464V45.0741Z" fill="#3A3A3C"/>
<path d="M89.9148 56.8272L72.7962 72.7961C72.7962 72.7961 70.1134 75.9899 65.0034 75.9899C59.8933 75.9899 38.3033 75.9899 38.3033 75.9899C38.3033 75.9899 32.8101 76.3732 25.7837 72.4129L15.6914 67.1751V48.3957C15.6914 48.3957 19.1407 44.0521 24.3785 44.0521C29.4885 44.0521 54.911 44.0521 54.911 44.0521C57.5938 44.0521 59.6378 46.0962 59.6378 48.6512C59.6378 51.2062 57.5938 53.378 54.911 53.378H42.2636C39.9641 53.378 38.0478 55.2942 38.0478 57.5938C38.0478 60.021 39.9641 61.8095 42.2636 61.8095C42.6469 61.8095 43.4134 61.8095 43.4134 61.8095H65.0034C65.0034 61.8095 68.4526 61.2985 71.9019 58.3603L82.2498 49.1622C83.144 48.2679 84.5493 47.6292 86.0823 47.6292C89.0206 47.6292 91.4478 50.0564 91.4478 52.9947C91.4478 54.5277 90.8091 55.933 89.9148 56.8272Z" fill="white"/>
<path d="M89.9148 56.8272L72.7962 72.7961C72.7962 72.7961 70.1134 75.9899 65.0034 75.9899C59.8933 75.9899 38.3033 75.9899 38.3033 75.9899C38.3033 75.9899 32.8101 76.3732 25.7837 72.4129L15.6914 67.1751V48.3957C15.6914 48.3957 19.1407 44.0521 24.3785 44.0521C29.4885 44.0521 54.911 44.0521 54.911 44.0521C57.5938 44.0521 59.6378 46.0962 59.6378 48.6512C59.6378 51.2062 57.5938 53.378 54.911 53.378H42.2636C39.9641 53.378 38.0478 55.2942 38.0478 57.5938C38.0478 60.021 39.9641 61.8095 42.2636 61.8095C42.6469 61.8095 43.4134 61.8095 43.4134 61.8095H65.0034C65.0034 61.8095 68.4526 61.2985 71.9019 58.3603L82.2498 49.1622C83.144 48.2679 84.5493 47.6292 86.0823 47.6292C89.0206 47.6292 91.4478 50.0564 91.4478 52.9947C91.4478 54.5277 90.8091 55.933 89.9148 56.8272Z" stroke="#3A3A3C" stroke-width="2" stroke-linejoin="round"/>
<path fill-rule="evenodd" clip-rule="evenodd" d="M68.5804 17.7354V21.3125C68.5804 22.2493 68.4952 22.9306 68.3249 23.3565C68.1545 23.8675 67.8139 24.2933 67.3029 24.634C66.7067 24.9747 65.9402 25.145 65.0034 25.145C63.8962 25.145 63.0445 24.9747 62.4483 24.634C61.8522 24.2933 61.4689 23.91 61.2986 23.4842C61.1282 22.9732 61.0431 22.2919 61.0431 21.4402V17.7354C61.0431 16.7134 61.1282 15.9469 61.2986 15.4359C61.5541 15.0101 61.9799 14.6268 62.5761 14.2861C63.1722 13.9455 63.8962 13.7751 64.7479 13.7751C65.6847 13.7751 66.4512 13.9455 67.0474 14.2861C67.7287 14.6268 68.1545 15.0527 68.3249 15.5637C68.4952 16.0747 68.5804 16.7986 68.5804 17.7354ZM65.3866 16.8412C65.3866 16.3302 65.344 15.9895 65.2589 15.8191C65.1737 15.734 65.0459 15.6914 64.8756 15.6914C64.6201 15.6914 64.4498 15.734 64.3646 15.8191C64.2794 15.9895 64.2368 16.3302 64.2368 16.8412V22.079C64.2368 22.6751 64.2794 23.0158 64.3646 23.101C64.4498 23.2713 64.6201 23.3565 64.8756 23.3565C65.0459 23.3565 65.1737 23.2713 65.2589 23.101C65.344 23.0158 65.3866 22.7177 65.3866 22.2067V16.8412ZM74.7124 13.7751L66.5364 35.2373H64.6201L72.6684 13.7751H74.7124ZM78.2895 27.7V31.277C78.2895 32.2139 78.2043 32.8952 78.034 33.3211C77.8636 33.8321 77.523 34.2579 77.012 34.5986C76.4158 34.9392 75.6493 35.1096 74.7124 35.1096C73.6053 35.1096 72.7536 34.9392 72.1574 34.5986C71.5612 34.2579 71.178 33.8747 71.0077 33.4488C70.8373 32.9378 70.7522 32.2565 70.7522 31.4048V27.7C70.7522 26.678 70.8373 25.9115 71.0077 25.4005C71.2632 24.9746 71.689 24.5914 72.2852 24.2507C72.8813 23.9101 73.6053 23.7397 74.4569 23.7397C75.4789 23.7397 76.288 23.9101 76.8842 24.2507C77.4804 24.5914 77.8636 25.0172 78.034 25.5282C78.2043 26.0392 78.2895 26.7632 78.2895 27.7ZM75.0957 26.8057C75.0957 26.2947 75.0531 25.9541 74.968 25.7837C74.8828 25.6986 74.755 25.656 74.5847 25.656C74.3292 25.656 74.1588 25.6986 74.0737 25.7837C73.9885 25.9541 73.9459 26.2947 73.9459 26.8057V32.0436C73.9459 32.6397 73.9885 32.9804 74.0737 33.0655C74.1588 33.2359 74.3292 33.3211 74.5847 33.3211C74.755 33.3211 74.8828 33.2359 74.968 33.0655C75.0531 32.9804 75.0957 32.6823 75.0957 32.1713V26.8057Z" fill="#3A3A3C"/>
</svg>
