<svg width="13" height="24" viewBox="0 0 13 24" fill="none" xmlns="http://www.w3.org/2000/svg">
<path d="M5.13951 0C5.73554 0 6.26534 0.278146 6.64945 0.715232C7.02031 1.15232 7.25872 1.7351 7.25872 2.38411C7.25872 3.03311 7.02031 3.61589 6.64945 4.03974C6.53024 4.18543 6.38455 4.31788 6.23885 4.42384C6.30508 4.47682 6.3713 4.5298 6.43753 4.58278C6.84812 4.98013 7.08653 5.4702 7.09978 5.89404C7.09978 6.21192 7.06004 6.63576 6.99382 6.98013C6.94084 7.27152 6.84812 7.54967 6.75541 7.7351L7.21898 8.55629L7.23223 8.58278V8.59603C7.23223 8.60927 7.35143 8.88742 8.05342 9.01987C8.88786 9.16556 9.68256 9.45695 9.86799 9.52318C10.0799 9.57616 10.9673 9.86755 10.7289 11.2318H10.7554C12.5567 11.1921 12.7554 13.0464 12.7554 13.0464V13.0728V13.0861V23.6159C12.7554 23.8278 12.5832 24 12.3713 24C12.1594 24 11.9872 23.8278 11.9872 23.6159V13.1126C11.9607 12.9536 11.7753 12 10.7951 12.0132C10.6627 12.0132 9.72229 12.0927 9.23223 11.8675C9.0468 11.7881 8.95408 11.5497 9.0468 11.3642C9.13951 11.1656 9.36468 11.0861 9.56335 11.1788C9.65607 11.2185 9.78852 11.245 9.93421 11.2583C10.1594 10.3444 9.6958 10.2781 9.6958 10.2781L9.65607 10.2649L9.61633 10.2517C9.60309 10.2517 8.80839 9.93377 7.92097 9.77483C6.96733 9.61589 6.62296 9.08609 6.54349 8.92715L6.11965 8.18543C5.80176 8.34437 5.37792 8.56954 5.07329 8.72848C5.19249 8.91391 5.28521 9.0596 5.35143 9.17881C5.47064 9.36424 5.58984 9.54967 5.6958 9.70861C5.86799 9.97351 6.11965 10.1589 6.33157 10.2649C6.35806 10.2781 6.38455 10.2914 6.41104 10.3046C6.64945 10.4238 6.84812 10.4636 6.84812 10.4636H6.86137L7.97395 10.6887C8.17263 10.7285 8.31832 10.9404 8.26534 11.1391C8.22561 11.351 8.02693 11.4834 7.81501 11.4437L6.71567 11.2185C6.70243 11.2185 6.60971 11.1921 6.46402 11.1523C6.35806 11.7748 6.59647 12.2781 6.59647 12.2781V12.2914C6.59647 12.2914 7.6958 14.9139 8.02693 15.6689C8.3713 16.4901 8.3713 17.3775 8.3713 17.3907V18.9007C8.3713 19.1126 8.19912 19.2848 7.98719 19.2848C7.77527 19.2848 7.60309 19.1126 7.60309 18.9007V17.3907C7.60309 17.3775 7.60309 16.649 7.3117 15.9603C7.00706 15.2318 5.97395 12.7947 5.89448 12.596C5.89448 12.596 5.8415 12.5166 5.80176 12.3576H1.89448C2.02693 12.7417 2.19912 13.0464 2.22561 13.0861C2.23885 13.1126 2.2521 13.1391 2.2521 13.1523L2.27859 13.2318C2.56998 13.5762 4.23885 15.5232 4.98057 16.1987C5.29845 16.4768 5.48388 16.7947 5.61633 17.0993C5.66931 17.1656 5.6958 17.2583 5.6958 17.351C5.82825 17.8411 5.80176 18.2517 5.78852 18.3709V21.2848H7.60309V20.4106C7.60309 20.1987 7.77527 20.0265 7.98719 20.0265C8.19912 20.0265 8.3713 20.1987 8.3713 20.4106V21.6689C8.38455 21.7748 8.46402 22.1987 8.75541 22.2649C8.7819 22.2649 9.62958 22.3709 9.62958 23.5232C9.62958 23.7351 9.45739 23.9073 9.23223 23.9073H6.06666C6.04017 23.9073 6.01368 23.9073 5.97395 23.894C5.81501 23.8675 5.00706 23.6689 5.00706 22.7682V18.8477L3.9607 21.0066C3.94746 21.0331 3.93421 21.0596 3.90772 21.0861C3.90772 21.0861 3.78852 21.2318 3.6958 21.4172C3.6958 21.4437 3.68256 21.457 3.68256 21.4834C3.66931 21.4967 3.65607 21.5099 3.64282 21.5364C3.5766 21.7219 3.55011 21.947 3.66931 22.1325C3.66931 22.1325 3.68256 22.1457 3.68256 22.1589C4.21236 22.9669 3.94746 23.6821 3.93421 23.6821C3.86799 23.8808 3.64282 23.9868 3.44415 23.9073C3.4309 23.9073 3.4309 23.9073 3.41766 23.9073L0.636201 22.6358C0.477261 22.5695 -0.410156 22.1325 0.225605 20.8609C0.31832 20.6887 0.437526 20.4371 0.569976 20.1589C0.569976 20.1457 0.583221 20.1325 0.583221 20.1192C1.21898 18.8079 2.19912 16.7152 2.19912 16.702L2.21236 16.6755C2.21236 16.6755 2.50375 16.1722 2.21236 15.3775C1.94746 14.649 1.68256 13.8675 1.5766 13.5497V13.5364H1.56335L1.53686 13.4305C1.41766 13.2318 0.861367 12.1457 1.00706 11.2848C1.03355 11.1391 1.06004 10.8344 1.11302 10.4503C1.28521 8.84768 1.61633 5.82781 2.43753 4.98013C2.91435 4.49007 3.24547 4.18543 3.60309 4.01325C3.24547 3.5894 3.03355 3.01987 3.03355 2.38411C3.03355 1.7351 3.25872 1.15232 3.62958 0.715232C4.01368 0.278146 4.54349 0 5.13951 0ZM4.19912 8.80795V8.7947L4.18587 8.78146C3.74878 8.09272 3.35143 7.44371 3.35143 7.44371L3.33819 7.41722L3.32494 7.40397C3.32494 7.39073 2.79514 6.23841 3.90772 5.57616C5.03355 4.90066 5.78852 6 5.78852 6.01325L5.80176 6.02649L5.81501 6.03974L6.23885 6.80795C6.29183 6.50331 6.33157 6.17219 6.33157 5.92053C6.31832 5.68212 6.17263 5.39073 5.90772 5.15232C5.73554 4.99338 5.52362 4.84768 5.25872 4.75497C5.21898 4.76821 5.17925 4.76821 5.13951 4.76821C4.88786 4.76821 4.64945 4.71523 4.42428 4.62252C4.23885 4.62252 4.09316 4.64901 3.9607 4.70199C3.6958 4.82119 3.41766 5.08609 2.99382 5.50993C2.35806 6.17219 2.04017 9.01987 1.88123 10.543C1.82825 10.9404 1.80176 11.245 1.76203 11.4172C1.76203 11.4702 1.74878 11.5232 1.74878 11.5762H5.66931C5.65607 11.351 5.66931 11.0861 5.73554 10.8079C5.49713 10.649 5.24547 10.4238 5.0468 10.1325C4.98057 10.0132 4.84812 9.81457 4.70243 9.5894C4.50375 9.28477 4.34481 9.01987 4.19912 8.80795ZM4.66269 8.07947C4.95408 7.92053 5.40441 7.68212 5.74878 7.50993L5.15276 6.43709C5.07329 6.34437 4.74216 5.96026 4.30508 6.23841C3.8415 6.51656 3.98719 6.96689 4.02693 7.07285C4.09316 7.17881 4.35806 7.5894 4.66269 8.07947ZM4.60971 3.8543C4.74216 3.86755 4.88786 3.88079 5.0468 3.90728C5.15276 3.93377 5.24547 3.94702 5.33819 3.97351C5.61633 3.92053 5.86799 3.76159 6.06666 3.53642C6.31832 3.24503 6.47726 2.83444 6.47726 2.38411C6.47726 1.92053 6.31832 1.52318 6.06666 1.21854C5.82825 0.940397 5.49713 0.768212 5.13951 0.768212C4.7819 0.768212 4.45077 0.940397 4.21236 1.21854C3.9607 1.52318 3.80176 1.92053 3.80176 2.38411C3.80176 2.83444 3.9607 3.24503 4.21236 3.53642C4.33157 3.66887 4.46402 3.77483 4.60971 3.8543ZM2.96733 15.1921C3.32494 16.2649 2.88786 17.0331 2.88786 17.0464C2.7819 17.2583 2.02693 18.8742 1.44415 20.106L3.15276 20.8344C3.20574 20.7417 3.24547 20.6755 3.28521 20.6358L4.87461 17.3377C4.79514 17.1523 4.66269 16.9536 4.47726 16.7682C4.09316 16.4371 3.51037 15.8013 2.96733 15.1921ZM1.11302 20.8079C1.03355 20.9536 0.967327 21.0993 0.914347 21.2053C0.636201 21.7483 0.874612 21.894 0.927592 21.9205C0.927592 21.9205 0.940837 21.9205 0.954082 21.9338L3.20574 22.9536C3.17925 22.8477 3.12627 22.7152 3.03355 22.5828L3.02031 22.5563C2.79514 22.2252 2.7819 21.8675 2.84812 21.5497L1.11302 20.8079ZM5.78852 22.053V22.7682C5.78852 23.0464 6.02693 23.1126 6.09316 23.1391H8.7819C8.72892 23.0464 8.66269 23.0331 8.66269 23.0331H8.64945C8.04017 22.9139 7.77527 22.3974 7.66931 22.053H5.78852Z" fill="#7E8490"/>
</svg>
