<svg width="24" height="23" viewBox="0 0 24 23" fill="none" xmlns="http://www.w3.org/2000/svg">
<path d="M15.9051 2.31576C15.7154 2.18928 15.6522 1.96794 15.747 1.77821C15.8419 1.62011 16.0949 1.55687 16.253 1.65173L16.9486 2.03118C17.1383 2.12604 17.2016 2.37901 17.0751 2.56873C16.9802 2.72683 16.7589 2.79007 16.5692 2.69521L15.9051 2.31576ZM21.4387 15.0272V21.7308C21.4387 22.0786 21.2806 22.3632 21.0593 22.5845C20.8379 22.8059 20.5534 22.964 20.2055 22.964H3.76285C3.44664 22.964 3.13043 22.8059 2.90909 22.5845C2.68775 22.3632 2.56126 22.0786 2.56126 21.7308V15.0272H0.632411H0L0.284585 14.4581L2.62451 10.1893L2.71937 9.99956H2.94071H3.5415C3.47826 9.87308 3.41502 9.74659 3.35178 9.62011C3.2253 9.24067 3.13043 8.8296 3.13043 8.41853C3.13043 7.69126 3.41502 7.12209 3.85771 6.6794C4.36364 6.14185 5.09091 5.82565 5.62846 5.82565C5.88142 5.82565 6.07115 5.88889 6.22925 5.92051C6.07115 5.47782 5.66008 5.22486 5.66008 5.22486C5.47036 5.12999 5.40711 4.90865 5.5336 4.71893C5.62846 4.5292 5.8498 4.46596 6.03953 4.56082C6.03953 4.56082 6.83004 5.03513 7.01976 5.92051C7.14625 5.88889 7.30435 5.85727 7.49407 5.85727V3.35924V3.26438L7.52569 3.16952L8.1581 1.87308V1.11418C8.1581 0.861219 8.28459 0.608254 8.47431 0.418531C8.66403 0.228808 8.917 0.102326 9.16996 0.102326H11.8261C12.1107 0.102326 12.3636 0.228808 12.5217 0.418531C12.7115 0.608254 12.8379 0.861219 12.8379 1.11418V1.87308L13.3755 2.9798L14.5455 0.987701C14.83 0.513393 15.2727 0.197187 15.747 0.0707051C16.253 -0.0557771 16.7905 -0.0241566 17.2648 0.260428L17.4545 0.35529C17.9289 0.639875 18.2451 1.08256 18.3715 1.58849C18.5296 2.0628 18.4664 2.60035 18.1818 3.10628L17.9289 3.54897H20.0791C20.3953 3.54897 20.6798 3.67545 20.8696 3.89679C21.0593 4.08651 21.1858 4.3711 21.1858 4.68731C21.1858 5.00351 21.0593 5.2881 20.8696 5.47782C20.7431 5.6043 20.6166 5.69916 20.4585 5.7624V6.86912H20.5534C20.7431 6.86912 20.9328 7.02723 20.9328 7.24857C20.9328 7.43829 20.7431 7.62802 20.5534 7.62802H20.4585V8.38691H20.5534C20.7747 8.38691 20.9328 8.54501 20.9328 8.76636C20.9328 8.95608 20.7747 9.1458 20.5534 9.1458H20.4585V9.99956H21.0593H21.2806L21.3755 10.1893L23.6838 14.4581L24 15.0272H23.3676H21.4387ZM20.6798 21.7308V15.0272H16.2213H7.77866H3.32016V21.7308C3.32016 21.8573 3.3834 21.9837 3.44664 22.047V22.0786C3.5415 22.1418 3.63636 22.2051 3.76285 22.2051H20.2055C20.332 22.2051 20.4585 22.1418 20.5217 22.0786V22.047C20.6166 21.9837 20.6798 21.8573 20.6798 21.7308ZM1.26482 14.2683H2.56126H2.94071H7.77866H16.2213H21.0593H21.4387H22.7352L20.8379 10.7585H16.5059H16.2846H16.2213H11.7312H11.5099H9.13834H8.98024H7.77866H4.26877H4.11067H3.16206L1.26482 14.2683ZM9.70751 9.99956H11.1621C11.1621 9.93632 11.1304 9.9047 11.1304 9.84146C11.0672 9.62011 11.0356 9.36715 11.0356 9.11418C11.0356 8.29205 11.3518 7.53316 11.8893 6.99561C12.1423 6.74264 12.4269 6.55292 12.7747 6.39482V3.73869H8.25296V5.95213C8.63241 6.07861 9.0751 6.33157 9.42293 6.6794C9.83399 7.12209 10.1186 7.69126 10.1186 8.41853C10.1186 8.8296 10.0553 9.24067 9.89723 9.62011C9.83399 9.74659 9.77075 9.87308 9.70751 9.99956ZM16.8538 9.99956H19.6996V9.1458H17.0119C16.9802 9.39877 16.9486 9.62011 16.8854 9.84146C16.8854 9.9047 16.8854 9.93632 16.8538 9.99956ZM12.2372 2.34738H8.75889L8.47431 2.9798H12.5217L12.2372 2.34738ZM11.8261 0.861219H9.16996C9.10672 0.861219 9.04348 0.892839 9.01186 0.95608C8.94862 0.987701 8.917 1.05094 8.917 1.11418V1.58849H9.92885H11.0672H12.0791V1.11418C12.0791 1.05094 12.0474 0.987701 11.9842 0.95608C11.9526 0.892839 11.8893 0.861219 11.8261 0.861219ZM13.502 4.27624V6.17347C13.6917 6.14185 13.8498 6.11023 14.0079 6.11023C14.4506 6.11023 14.8617 6.20509 15.2411 6.39482V5.73078C15.083 5.69916 14.9565 5.6043 14.83 5.47782C14.6087 5.2881 14.4822 5.00351 14.4822 4.68731C14.4822 4.3711 14.6087 4.08651 14.83 3.89679C15.0198 3.67545 15.3043 3.54897 15.6206 3.54897H17.0435L17.5178 2.72683C17.7075 2.44225 17.7391 2.09442 17.6443 1.77821C17.581 1.46201 17.3597 1.20904 17.0751 1.01932L16.8854 0.92446C16.6008 0.734737 16.253 0.703116 15.9368 0.797978C15.6522 0.892839 15.3676 1.08256 15.1779 1.36715L13.502 4.27624ZM16.7589 5.06675C16.9802 5.06675 17.1383 5.22486 17.1383 5.4462C17.1383 5.63592 16.9802 5.82565 16.7589 5.82565H16V6.86912H16.0316H19.6996V5.82565H18.8775C18.6877 5.82565 18.498 5.63592 18.498 5.4462C18.498 5.22486 18.6877 5.06675 18.8775 5.06675H20.0791C20.1739 5.06675 20.2688 5.00351 20.332 4.94027C20.3953 4.87703 20.4269 4.78217 20.4269 4.68731C20.4269 4.59244 20.3953 4.49758 20.332 4.43434C20.2688 4.33948 20.1739 4.30786 20.0791 4.30786H15.6206C15.5257 4.30786 15.4308 4.33948 15.3676 4.43434C15.3043 4.49758 15.2411 4.59244 15.2411 4.68731C15.2411 4.78217 15.3043 4.87703 15.3676 4.94027C15.4308 5.00351 15.5257 5.06675 15.6206 5.06675H16.7589ZM19.6996 8.38691V7.62802H16.6008C16.7273 7.84936 16.8538 8.10233 16.917 8.38691H19.6996ZM15.5889 7.53316C15.1779 7.12209 14.6403 6.86912 14.0079 6.86912C13.4071 6.86912 12.8379 7.12209 12.4269 7.53316C12.0474 7.94422 11.7945 8.48177 11.7945 9.11418C11.7945 9.30391 11.8261 9.49363 11.8577 9.65173V9.68335C11.8893 9.77821 11.9209 9.87308 11.9526 9.99956H16.0632C16.0949 9.87308 16.1265 9.77821 16.1581 9.65173C16.2213 9.49363 16.253 9.30391 16.253 9.11418C16.253 8.48177 16 7.94422 15.5889 7.53316ZM6.19763 6.77426C6.10277 6.71102 6.00791 6.58454 5.62846 6.58454C5.28063 6.58454 4.7747 6.80588 4.39526 7.21695C4.11067 7.50153 3.88933 7.9126 3.88933 8.41853C3.88933 8.73474 3.95257 9.05094 4.04743 9.33553C4.14229 9.55687 4.3004 9.80983 4.4585 9.99956H7.77866H8.79051C8.94862 9.80983 9.10672 9.55687 9.20158 9.33553C9.29644 9.05094 9.35968 8.73474 9.35968 8.41853C9.35968 7.9126 9.16996 7.50153 8.85376 7.21695C8.47431 6.80588 8 6.58454 7.62055 6.58454C7.24111 6.58454 7.14625 6.71102 7.05138 6.77426C6.98814 6.86912 6.9249 6.96399 6.7668 6.99561C6.73518 6.99561 6.73518 7.02723 6.70356 7.02723L6.64032 7.05885L6.54545 7.02723C6.51383 7.02723 6.51383 6.99561 6.48221 6.99561C6.35573 6.96399 6.26087 6.86912 6.19763 6.77426Z" fill="#7E8490"/>
</svg>
