<svg width="22" height="25" viewBox="0 0 22 25" fill="none" xmlns="http://www.w3.org/2000/svg">
<path d="M19.1871 17.9352L13.727 22.7815V22.8138C13.5655 22.943 13.4685 23.1369 13.4362 23.363C13.4362 23.5569 13.5008 23.783 13.6624 23.9446C13.7916 24.1061 14.0178 24.203 14.2116 24.203C14.4378 24.2353 14.6316 24.1707 14.7932 24.0092L20.2533 19.1629H20.221C20.2533 19.1306 20.2533 19.1306 20.2856 19.1306C20.4148 18.9691 20.5117 18.7752 20.5117 18.5814C20.5441 18.3875 20.4794 18.1614 20.3179 17.9998C20.1564 17.8383 19.9625 17.7414 19.7687 17.7414C19.5425 17.7091 19.3486 17.7737 19.1871 17.9352ZM17.6686 18.2583L16.1501 17.2244L16.1178 17.1921L16.0855 17.1598C16.0855 17.1598 15.6332 16.7075 15.6332 15.9644C15.6332 15.4152 15.7624 12.9597 15.7624 12.9597V12.9274V12.8951C15.7624 12.8951 15.9886 11.6674 15.5686 10.6658C15.1486 9.50274 12.5316 2.68568 12.3054 2.10413C12.2085 1.9749 11.9177 1.65182 11.5623 1.78105L11.53 1.81336H11.4654C11.4654 1.81336 11.4654 1.81336 11.4331 1.81336C11.3685 1.84567 11.3039 1.91028 11.2393 2.00721C11.1746 2.13644 11.1746 2.33029 11.2069 2.49183C11.2069 2.52414 11.2069 2.58876 11.2393 2.62107C11.4008 3.23493 12.5316 7.43501 12.6285 7.72578C12.6931 7.7904 12.7901 7.88732 12.8547 7.98425C13.2424 8.53349 13.6624 9.40582 14.0178 10.7305C14.147 11.1505 14.2439 11.6028 14.3732 12.1197C14.4055 12.3459 14.2762 12.5397 14.0501 12.572C13.8562 12.6366 13.6301 12.4751 13.5978 12.2813C13.5008 11.7643 13.4039 11.3443 13.2747 10.9243C12.9516 9.69659 12.5962 8.92119 12.2408 8.46887C11.95 8.11348 11.7562 7.98425 11.5946 8.01656C11.5946 8.01656 11.5946 8.01656 11.5623 8.01656C11.2393 8.11348 11.2393 8.59811 11.2393 8.69503L11.5623 10.7951C11.5623 10.892 11.5946 11.0212 11.627 11.1505C11.8208 11.9582 12.1439 13.3797 11.3362 16.546C11.0454 17.7091 11.2393 18.646 11.5946 19.4214C12.1439 20.6168 13.2101 21.3599 13.7916 21.7153L17.6686 18.2583ZM11.6916 7.24116C11.3362 5.94882 10.6254 3.26723 10.4962 2.84723C10.4639 2.7503 10.4315 2.68568 10.4315 2.62107C10.3669 2.26568 10.4315 1.94259 10.5608 1.68413C10.69 1.39335 10.9162 1.16719 11.2393 1.07027C11.2393 1.07027 11.2716 1.07027 11.3039 1.07027C12.3054 0.682567 12.9516 1.71643 12.9516 1.71643L12.9839 1.74874V1.78105C13.0162 1.81336 15.8917 9.30889 16.3117 10.3751C16.7317 11.5059 16.5378 12.8628 16.5378 13.0243C16.5055 13.3151 16.4086 15.3505 16.4086 15.9644C16.4086 16.3198 16.5701 16.546 16.6347 16.6106L18.2502 17.7091L18.6702 17.3537C18.9933 17.0629 19.4133 16.9337 19.801 16.966C20.221 16.966 20.6087 17.1598 20.8994 17.4829C21.1902 17.806 21.3195 18.226 21.2871 18.6137C21.2548 19.0014 21.0933 19.3891 20.8025 19.6799L20.7702 19.7122L15.3101 24.5907C14.987 24.8815 14.567 25.0107 14.1793 24.9784C13.7593 24.9461 13.3716 24.7846 13.0808 24.4615C12.7901 24.1384 12.6608 23.7184 12.6931 23.2984C12.6931 22.9107 12.887 22.523 13.1778 22.2322C12.4993 21.8122 11.4977 20.9722 10.8839 19.7445C10.8192 19.6152 10.7869 19.486 10.7223 19.3568C10.6577 19.486 10.6254 19.6152 10.5608 19.7445C9.85 21.166 8.62228 22.0384 7.97612 22.4261C7.78227 22.523 7.55611 22.4584 7.42688 22.2645C7.32995 22.0707 7.39457 21.8445 7.58842 21.7476C8.16997 21.4245 9.26845 20.6491 9.85 19.4214C10.2054 18.646 10.3992 17.7091 10.1085 16.546C9.30076 13.3797 9.62384 11.9582 9.81769 11.1505C9.85 11.0212 9.88231 10.892 9.88231 10.7951L10.2054 8.69503C10.2054 8.59811 10.2054 8.11348 9.88231 8.01656C9.85 8.01656 9.88231 8.01656 9.85 8.01656C9.68846 7.98425 9.49461 8.11348 9.20383 8.46887C8.84844 8.92119 8.49305 9.69659 8.16997 10.9243C8.04073 11.3443 7.94381 11.7643 7.84688 12.2813C7.81457 12.4751 7.58842 12.6366 7.39457 12.572C7.16841 12.5397 7.03918 12.3459 7.10379 12.1197C7.20072 11.6028 7.29764 11.1505 7.42688 10.7305C7.78227 9.40582 8.20227 8.53349 8.58997 7.98425C9.0746 7.37039 9.59153 7.17654 10.0115 7.27347C10.0438 7.27347 10.0762 7.27347 10.0762 7.27347C10.3992 7.37039 10.5931 7.53193 10.7223 7.72578C10.8516 7.53193 11.0777 7.37039 11.3685 7.27347C11.3685 7.27347 11.4008 7.27347 11.4331 7.27347C11.53 7.24116 11.5946 7.24116 11.6916 7.24116ZM10.7223 15.8352C11.3039 13.2182 11.0454 12.0228 10.8839 11.312C10.8516 11.1828 10.8192 11.0535 10.7869 10.9243L10.7223 10.4397L10.6577 10.9243C10.6254 11.0535 10.5931 11.1828 10.5608 11.312C10.3992 12.0228 10.1408 13.2182 10.7223 15.8352Z" fill="#7E8490"/>
<path d="M2.25748 17.9352L7.71758 22.7815V22.8138C7.87913 22.943 7.97605 23.1369 8.00836 23.363C8.00836 23.5569 7.94374 23.783 7.7822 23.9446C7.65297 24.1061 7.42681 24.203 7.23296 24.203C7.03911 24.2353 6.81295 24.1707 6.65141 24.0092L1.22361 19.1629C1.1913 19.1306 1.1913 19.1306 1.15899 19.1306C1.02976 18.9691 0.932834 18.7752 0.932834 18.5814C0.900526 18.3875 0.965142 18.1614 1.12668 17.9998C1.28823 17.8383 1.48208 17.7414 1.67593 17.7414C1.90208 17.7091 2.09593 17.7737 2.25748 17.9352ZM3.77597 18.2583L5.29446 17.2244L5.32677 17.1921L5.35908 17.1598C5.35908 17.1598 5.81139 16.7075 5.81139 15.9644C5.81139 15.4152 5.68216 12.9597 5.68216 12.9597V12.9274V12.8951C5.68216 12.8951 5.48831 11.6674 5.87601 10.6658C6.29602 9.50274 8.91299 2.68568 9.17146 2.10413C9.23608 1.9749 9.52685 1.65182 9.88224 1.78105L9.91455 1.81336H9.97917C9.97917 1.81336 9.97917 1.81336 10.0115 1.81336C10.0761 1.84567 10.1407 1.91028 10.2053 2.00721C10.2699 2.13644 10.2699 2.33029 10.2376 2.49183C10.2376 2.52414 10.2376 2.58876 10.2053 2.62107C10.0438 3.26723 8.81607 7.72578 8.81607 7.75809L9.55916 7.95194C9.55916 7.91963 10.7869 3.42878 10.9484 2.84723C10.9807 2.7503 11.013 2.68568 11.013 2.62107C11.0777 2.26568 11.013 1.94259 10.8838 1.68413C10.7546 1.39335 10.5284 1.16719 10.2053 1.07027C10.2053 1.07027 10.173 1.07027 10.1407 1.07027C9.13915 0.682567 8.49298 1.71643 8.49298 1.71643L8.46068 1.74874V1.78105C8.42837 1.81336 5.55293 9.30889 5.13292 10.3751C4.71291 11.5059 4.90676 12.8628 4.90676 13.0243C4.93907 13.3151 5.03599 15.3505 5.03599 15.9644C5.03599 16.3198 4.87445 16.546 4.80983 16.6106L3.19442 17.7091L2.77441 17.3537C2.45133 17.0629 2.06363 16.9337 1.64362 16.966C1.22361 16.966 0.835909 17.1598 0.545134 17.4829C0.254359 17.806 0.125126 18.226 0.157434 18.6137C0.189742 19.0014 0.351284 19.3891 0.642059 19.6799L0.674367 19.7122L6.13448 24.5907C6.45756 24.8815 6.87757 25.0107 7.26527 24.9784C7.68528 24.9461 8.07298 24.7846 8.36375 24.4615C8.65453 24.1384 8.78376 23.7184 8.75145 23.2984C8.75145 22.9107 8.5576 22.523 8.23452 22.2322L3.77597 18.2583Z" fill="#7E8490"/>
</svg>
