<svg width="46" height="51" viewBox="0 0 46 51" fill="none" xmlns="http://www.w3.org/2000/svg">
<path fill-rule="evenodd" clip-rule="evenodd" d="M36.8545 33.0567C46.4885 38.2651 45.3596 48.3506 45.3596 48.3506C45.3596 49.8108 44.2456 51 42.8758 51H2.56351C1.19367 51 0.0797416 49.8108 0.0797416 48.3506C0.0797416 48.3506 -1.87716 34.7426 13.5975 30.9793C15.2834 32.861 17.3607 34.2308 19.694 34.863C19.8746 35.2695 20.1305 35.6308 20.4316 35.9318C21.109 36.6092 22.0423 37.0307 23.0659 37.0307H29.3882H29.9602C30.1107 37.0307 30.2763 37.0006 30.4871 36.9705C30.5623 36.9554 30.6376 36.9404 30.7129 36.9253C32.745 36.6243 34.5514 35.6458 35.9062 34.2308C36.2524 33.8695 36.5685 33.4782 36.8545 33.0567ZM36.2675 28.5859C35.9965 31.8374 33.4826 34.4416 30.2914 34.863C30.1709 34.8932 30.0656 34.9082 29.9602 34.9082H29.3882H23.0659C22.1777 34.9082 21.4552 34.2007 21.4552 33.3126C21.4552 32.4395 22.1777 31.7169 23.0659 31.7169H29.7645C31.5257 31.5363 32.9257 30.1364 33.0913 28.3751V25.1688C32.745 24.8678 32.4741 24.4764 32.3085 24.0398C31.5257 26.3129 30.186 28.2397 28.5001 29.5945H23.0659C22.0423 29.5945 21.109 30.0159 20.4316 30.6933C20.2509 30.874 20.1004 31.0697 19.9499 31.2804C16.8489 30.2568 14.3049 27.5472 13.0856 24.0248C12.7394 25.0334 11.7911 25.7409 10.6922 25.7409H10.1653C8.7654 25.7409 7.62136 24.5968 7.62136 23.2119V15.3994C7.62136 14.3908 8.20843 13.5177 9.06646 13.0962C9.35247 5.81051 15.3436 0 22.7046 0C30.0505 0 36.0567 5.82556 36.3277 13.1113C37.1857 13.5177 37.7728 14.3908 37.7728 15.3994V23.2119C37.7728 24.2205 37.1707 25.1086 36.2976 25.5151V27.9988V28.5859H36.2675ZM32.3235 14.5263C32.4891 14.1048 32.7601 13.7134 33.1063 13.4274C32.9859 7.78247 28.3796 3.23642 22.7046 3.23642C17.0296 3.23642 12.4083 7.78247 12.3029 13.4424C12.6491 13.7285 12.9201 14.1048 13.0706 14.5413C14.6361 10.0103 18.3542 6.81907 22.7046 6.81907C27.0399 6.81907 30.7731 10.0103 32.3235 14.5263Z" fill="#40B751"/>
</svg>
