<svg width="83" height="77" viewBox="0 0 83 77" fill="none" xmlns="http://www.w3.org/2000/svg">
<path d="M81.0828 20.2018V29.238H1V20.2018C1 16.2485 4.16264 12.9729 8.11595 12.9729H73.8539C77.8072 12.9729 81.0828 16.2485 81.0828 20.2018Z" fill="#EAE1A1"/>
<path fill-rule="evenodd" clip-rule="evenodd" d="M8.11595 13.9729C4.73531 13.9729 2 16.7802 2 20.2018V68.884C2 72.2851 4.71492 75 8.11595 75H73.8539C77.2756 75 80.0828 72.2647 80.0828 68.884V20.2018C80.0828 16.8008 77.255 13.9729 73.8539 13.9729H8.11595ZM0 20.2018C0 15.7168 3.58997 11.9729 8.11595 11.9729H73.8539C78.3595 11.9729 82.0828 15.6962 82.0828 20.2018V68.884C82.0828 73.41 78.3389 77 73.8539 77H8.11595C3.61035 77 0 73.3896 0 68.884V20.2018Z" fill="#3A3A3C"/>
<path fill-rule="evenodd" clip-rule="evenodd" d="M81.0828 30.0121H1V28.0121H81.0828V30.0121Z" fill="#3A3A3C"/>
<path d="M74.9834 20.8795C74.9834 22.1219 73.9669 23.1385 72.7244 23.1385C71.5949 23.1385 70.5783 22.1219 70.5783 20.8795C70.5783 19.75 71.5949 18.7334 72.7244 18.7334C73.9669 18.7334 74.9834 19.75 74.9834 20.8795Z" fill="#3A3A3C"/>
<path fill-rule="evenodd" clip-rule="evenodd" d="M29.238 21.8795H7.43827V19.8795H29.238V21.8795Z" fill="#3A3A3C"/>
<path d="M39.0648 49.5693L34.8855 48.8915L37.3705 45.6159L33.0783 41.2108L29.6898 43.6958L29.125 39.6295H22.9126L22.3479 43.6958L18.9593 41.2108L14.6672 45.6159L17.1521 48.8915L12.9729 49.5693V55.6687L17.1521 56.3464L14.6672 59.622L18.9593 64.0271L22.3479 61.5422L22.9126 65.6084H29.125L29.6898 61.5422L33.0783 64.0271L37.3705 59.622L34.8855 56.3464L39.0648 55.6687V49.5693Z" fill="#EEE063"/>
<path fill-rule="evenodd" clip-rule="evenodd" d="M21.9222 39.4919C21.9908 38.9976 22.4135 38.6295 22.9126 38.6295H29.125C29.6241 38.6295 30.0468 38.9976 30.1155 39.4919L30.4497 41.8984L32.4869 40.4044C32.8889 40.1096 33.4466 40.1559 33.7945 40.513L38.0867 44.9181C38.432 45.2725 38.4662 45.8261 38.1672 46.2203L36.6876 48.1707L39.2248 48.5822C39.709 48.6607 40.0648 49.0788 40.0648 49.5693V55.6687C40.0648 56.1592 39.709 56.5772 39.2248 56.6558L36.6876 57.0672L38.1672 59.0176C38.4662 59.4118 38.432 59.9654 38.0867 60.3198L33.7945 64.725C33.4467 65.082 32.8889 65.1283 32.4869 64.8335L30.4497 63.3395L30.1155 65.746C30.0468 66.2404 29.6241 66.6084 29.125 66.6084H22.9126C22.4135 66.6084 21.9908 66.2404 21.9222 65.746L21.5879 63.3395L19.5507 64.8335C19.1487 65.1283 18.591 65.082 18.2431 64.725L13.9509 60.3198C13.6056 59.9654 13.5714 59.4118 13.8705 59.0176L15.3501 57.0672L12.8128 56.6558C12.3287 56.5772 11.9729 56.1592 11.9729 55.6687V49.5693C11.9729 49.0788 12.3287 48.6607 12.8128 48.5822L15.3501 48.1707L13.8705 46.2203C13.5714 45.8261 13.6056 45.2725 13.9509 44.9181L18.2431 40.513C18.591 40.1559 19.1487 40.1096 19.5507 40.4044L21.5879 41.8984L21.9222 39.4919ZM23.7834 40.6295L23.3384 43.8334C23.2899 44.1821 23.0616 44.4797 22.7373 44.6168C22.413 44.754 22.0405 44.7104 21.7565 44.5022L19.0689 42.5313L15.9841 45.6973L17.9488 48.2872C18.1609 48.5668 18.2109 48.9371 18.0806 49.2629C17.9502 49.5888 17.6586 49.8225 17.3122 49.8786L13.9729 50.4202V54.8178L17.3122 55.3593C17.6586 55.4154 17.9502 55.6491 18.0806 55.975C18.2109 56.3008 18.1609 56.6712 17.9488 56.9508L15.9841 59.5406L19.0689 62.7067L21.7565 60.7358C22.0405 60.5275 22.413 60.484 22.7373 60.6211C23.0616 60.7582 23.2899 61.0558 23.3384 61.4046L23.7834 64.6084H28.2543L28.6993 61.4046C28.7477 61.0558 28.976 60.7582 29.3003 60.6211C29.6246 60.484 29.9972 60.5275 30.2811 60.7358L32.9687 62.7067L36.0536 59.5406L34.0889 56.9508C33.8767 56.6712 33.8267 56.3008 33.9571 55.975C34.0874 55.6491 34.379 55.4154 34.7255 55.3593L38.0648 54.8178V50.4202L34.7255 49.8786C34.379 49.8225 34.0874 49.5888 33.9571 49.2629C33.8267 48.9371 33.8767 48.5668 34.0889 48.2872L36.0536 45.6973L32.9687 42.5313L30.2811 44.5022C29.9972 44.7104 29.6246 44.754 29.3003 44.6168C28.976 44.4797 28.7477 44.1821 28.6993 43.8334L28.2543 40.6295H23.7834Z" fill="#3A3A3C"/>
<path d="M26.0753 59.622C29.9157 59.622 32.9653 56.4594 32.9653 52.619C32.9653 48.7786 29.9157 45.616 26.0753 45.616C22.122 45.616 19.0723 48.7786 19.0723 52.619C19.0723 56.4594 22.122 59.622 26.0753 59.622Z" fill="white"/>
<path fill-rule="evenodd" clip-rule="evenodd" d="M18.0723 52.619C18.0723 48.2369 21.5592 44.616 26.0753 44.616C30.489 44.616 33.9653 48.2477 33.9653 52.619C33.9653 56.9903 30.489 60.622 26.0753 60.622C21.5592 60.622 18.0723 57.0011 18.0723 52.619ZM26.0753 46.616C22.6848 46.616 20.0723 49.3204 20.0723 52.619C20.0723 55.9176 22.6848 58.622 26.0753 58.622C29.3423 58.622 31.9653 55.9284 31.9653 52.619C31.9653 49.3096 29.3423 46.616 26.0753 46.616Z" fill="#3A3A3C"/>
<path fill-rule="evenodd" clip-rule="evenodd" d="M52.0542 34.5632C52.6065 34.5632 53.0542 35.0109 53.0542 35.5632V39.5165C53.0542 40.0688 52.6065 40.5165 52.0542 40.5165C51.5019 40.5165 51.0542 40.0688 51.0542 39.5165V35.5632C51.0542 35.0109 51.5019 34.5632 52.0542 34.5632Z" fill="#3A3A3C"/>
<path fill-rule="evenodd" clip-rule="evenodd" d="M52.0542 64.7214C52.6065 64.7214 53.0542 65.1692 53.0542 65.7214V69.6747C53.0542 70.227 52.6065 70.6747 52.0542 70.6747C51.5019 70.6747 51.0542 70.227 51.0542 69.6747V65.7214C51.0542 65.1692 51.5019 64.7214 52.0542 64.7214Z" fill="#3A3A3C"/>
<path fill-rule="evenodd" clip-rule="evenodd" d="M64.0437 52.6189C64.0437 52.0666 64.4914 51.6189 65.0437 51.6189H68.997C69.5493 51.6189 69.997 52.0666 69.997 52.6189C69.997 53.1712 69.5493 53.6189 68.997 53.6189H65.0437C64.4914 53.6189 64.0437 53.1712 64.0437 52.6189Z" fill="#3A3A3C"/>
<path fill-rule="evenodd" clip-rule="evenodd" d="M52.0542 44.2771C52.6065 44.2771 53.0542 44.7248 53.0542 45.2771V52.0553L61.1563 56.9593C61.6288 57.2452 61.78 57.8601 61.494 58.3326C61.2081 58.805 60.5932 58.9562 60.1207 58.6703L51.5364 53.4745C51.2371 53.2933 51.0542 52.9689 51.0542 52.619V45.2771C51.0542 44.7248 51.5019 44.2771 52.0542 44.2771Z" fill="#3A3A3C"/>
<path fill-rule="evenodd" clip-rule="evenodd" d="M38.2908 41.0294C41.5252 37.0763 46.4373 34.5632 52.0542 34.5632C61.9901 34.5632 69.997 42.7003 69.997 52.619C69.997 62.5376 61.9901 70.6747 52.0542 70.6747C46.4373 70.6747 41.5252 68.1616 38.2908 64.2085L39.8387 62.942C42.7038 66.4438 47.0537 68.6747 52.0542 68.6747C60.8683 68.6747 67.997 61.4503 67.997 52.619C67.997 43.7876 60.8683 36.5632 52.0542 36.5632C47.0537 36.5632 42.7038 38.7941 39.8387 42.2959L38.2908 41.0294Z" fill="#3A3A3C"/>
<path d="M70.2395 11.0527C70.2395 16.4744 65.8344 20.8795 60.4127 20.8795C54.991 20.8795 50.5858 16.4744 50.5858 11.0527C50.5858 5.63103 54.991 1.33887 60.4127 1.33887C65.8344 1.33887 70.2395 5.63103 70.2395 11.0527Z" fill="#42B650"/>
<path fill-rule="evenodd" clip-rule="evenodd" d="M60.2997 2C55.4303 2 51.36 6.07037 51.36 10.9398C51.36 15.9148 55.4229 19.8795 60.2997 19.8795C65.2821 19.8795 69.2395 15.9221 69.2395 10.9398C69.2395 6.06296 65.2747 2 60.2997 2ZM49.36 10.9398C49.36 4.96581 54.3257 0 60.2997 0C66.394 0 71.2395 4.97322 71.2395 10.9398C71.2395 17.0267 66.3866 21.8795 60.2997 21.8795C54.3331 21.8795 49.36 17.0341 49.36 10.9398Z" fill="#3A3A3C"/>
<path d="M62.8976 6.98645C61.5422 6.98645 60.5256 7.89006 60.2997 9.13253C60.0738 7.89006 59.0572 6.98645 57.8148 6.98645C56.3464 6.98645 55.2169 8.22891 55.2169 9.58433C55.2169 10.1491 55.3298 10.7138 55.6687 11.1656C56.1205 11.7304 58.9443 15.006 60.2997 15.006C61.5422 15.006 64.5919 11.7304 65.0437 10.9398C65.3449 10.5633 65.4955 10.1114 65.4955 9.58433C65.4955 8.22891 64.253 6.98645 62.8976 6.98645Z" fill="#3A3A3C"/>
</svg>
