<svg width="17" height="12" viewBox="0 0 17 12" fill="none" xmlns="http://www.w3.org/2000/svg">
<path fill-rule="evenodd" clip-rule="evenodd" d="M2.49676 1.5L6.53399 5.80724C7.4453 6.7795 8.99723 6.75112 9.87238 5.74619L13.5702 1.5H2.49676ZM14.5 2.71636L11.6033 6.04266L14.5 8.93939V2.71636ZM10.5835 7.14426C9.22773 8.28346 7.23927 8.3132 5.84974 7.21097L2.56071 10.5H13.9393L10.5835 7.14426ZM4.79454 6.14486L1.5 2.62999V9.43939L4.79454 6.14486ZM14 12C14.9001 12 15.6613 11.4055 15.9123 10.5877L16.0303 10.4697L15.9601 10.3995C15.9863 10.2704 16 10.1368 16 10V2C16 0.895431 15.1046 0 14 0H2C0.895431 0 0 0.895431 0 2V10C0 11.1046 0.895431 12 2 12H14Z" fill="white"/>
</svg>
