<svg width="13" height="17" viewBox="0 0 13 17" fill="none" xmlns="http://www.w3.org/2000/svg">
<path fill-rule="evenodd" clip-rule="evenodd" d="M9.65486 14.7035C8.86708 15.5515 7.94964 16.3111 6.91947 16.9253C6.79263 17.0166 6.6207 17.0277 6.47977 16.9392C4.95776 15.9887 3.67955 14.8474 2.67473 13.6064C1.28801 11.8992 0.415669 10.0067 0.116903 8.18328C-0.1875 6.33499 0.097173 4.55587 1.03434 3.11016C1.40357 2.5388 1.87568 2.01862 2.45066 1.569C3.77256 0.535561 5.28189 -0.0109028 6.78699 0.000164847C8.23573 0.0112325 9.66614 0.541094 10.9021 1.64924C11.3361 2.03661 11.7011 2.48069 11.9999 2.96214C13.0075 4.59184 13.2246 6.66979 12.782 8.7754C12.3452 10.8561 11.26 12.97 9.65486 14.6993V14.7035ZM6.4995 3.28725C8.28646 3.28725 9.73378 4.70944 9.73378 6.46227C9.73378 8.21649 8.28505 9.63729 6.4995 9.63729C4.71254 9.63729 3.26522 8.21649 3.26522 6.46227C3.26381 4.70805 4.71254 3.28725 6.4995 3.28725Z" fill="white"/>
</svg>
