<svg width="77" height="77" viewBox="0 0 77 77" fill="none" xmlns="http://www.w3.org/2000/svg">
<path d="M48.3958 11C48.3958 5.47917 43.9167 1 38.3958 1C32.875 1 28.3958 5.47917 28.3958 11V14.5417C28.1875 15.2708 28.2917 15.8958 28.2917 15.8958C28.2917 19.2292 32.25 19.5417 32.25 19.5417L32.0417 12.25L38.2917 9.64582L44.6458 12.6667L44.5417 19.2292C48.6042 19.4375 48.3958 15.4792 48.3958 15.4792C48.3958 15.4792 48.3958 15.0625 48.1875 14.5417H48.3958V11Z" fill="#838384"/>
<path d="M75.7917 55.7916L70.6875 55.0624L73.7083 50.8957L68.2917 45.3749L64.125 48.4999L63.2917 43.3958H55.5833L54.8542 48.4999L50.6875 45.3749L45.1667 50.8957L48.2917 55.0624L43.1875 55.7916V63.4999L48.2917 64.3332L45.1667 68.4999L50.6875 73.9166L54.8542 70.8957L55.5833 75.9999H63.2917L64.125 70.8957L68.2917 73.9166L73.7083 68.4999L70.6875 64.3332L75.7917 63.4999V55.7916Z" fill="#EEE063"/>
<path d="M42.4584 25.8959L49.4375 28.6042C52.25 29.75 51.9375 33.6042 51.9375 33.6042V38.3959H24.6459V33.0834C24.6459 33.0834 24.6459 30.0626 27.25 28.8126C29.8542 27.6667 34.5417 25.8959 34.5417 25.8959L38.2917 31.625L42.4584 25.8959Z" fill="#42B650"/>
<path d="M23.0833 46H1V76H23.0833V46Z" fill="#EAE1A1"/>
<path fill-rule="evenodd" clip-rule="evenodd" d="M0 45H24.0833V77H0V45ZM2 47V75H22.0833V47H2Z" fill="#3A3A3C"/>
<path fill-rule="evenodd" clip-rule="evenodd" d="M7.04165 51.7917H4.64581V49.7917H7.04165V51.7917Z" fill="#3A3A3C"/>
<path fill-rule="evenodd" clip-rule="evenodd" d="M9.64581 49.7917H19.4375V51.7917H9.64581V49.7917Z" fill="#3A3A3C"/>
<path fill-rule="evenodd" clip-rule="evenodd" d="M7.04165 56.7916H4.64581V54.7916H7.04165V56.7916Z" fill="#3A3A3C"/>
<path fill-rule="evenodd" clip-rule="evenodd" d="M9.64581 54.7916H19.4375V56.7916H9.64581V54.7916Z" fill="#3A3A3C"/>
<path fill-rule="evenodd" clip-rule="evenodd" d="M7.04165 62H4.64581V60H7.04165V62Z" fill="#3A3A3C"/>
<path fill-rule="evenodd" clip-rule="evenodd" d="M9.64581 60H19.4375V62H9.64581V60Z" fill="#3A3A3C"/>
<path fill-rule="evenodd" clip-rule="evenodd" d="M7.04165 67H4.64581V65H7.04165V67Z" fill="#3A3A3C"/>
<path fill-rule="evenodd" clip-rule="evenodd" d="M9.64581 65H19.4375V67H9.64581V65Z" fill="#3A3A3C"/>
<path fill-rule="evenodd" clip-rule="evenodd" d="M7.04165 72H4.64581V70H7.04165V72Z" fill="#3A3A3C"/>
<path fill-rule="evenodd" clip-rule="evenodd" d="M9.64581 70H19.4375V72H9.64581V70Z" fill="#3A3A3C"/>
<path fill-rule="evenodd" clip-rule="evenodd" d="M28.5524 59.6383L32.6521 55.4495L31.2228 54.0505L25.7391 59.6534L31.2303 65.1446L32.6446 63.7304L28.5524 59.6383Z" fill="#3A3A3C"/>
<path fill-rule="evenodd" clip-rule="evenodd" d="M39.5416 60.6459H27.6666V58.6459H39.5416V60.6459Z" fill="#3A3A3C"/>
<path fill-rule="evenodd" clip-rule="evenodd" d="M60.9034 36.9892L65.0922 32.8895L66.4912 34.3189L60.8883 39.8025L55.3971 34.3113L56.8113 32.8971L60.9034 36.9892Z" fill="#3A3A3C"/>
<path fill-rule="evenodd" clip-rule="evenodd" d="M52.25 16.0417H58.1875C59.1017 16.0417 59.8507 16.2564 60.4398 16.6492C61.0281 17.0413 61.3843 17.5627 61.5945 18.0561C61.8013 18.5417 61.8724 19.0114 61.8952 19.3471C61.9068 19.5179 61.9064 19.6622 61.9028 19.7678C61.901 19.8204 61.8983 19.864 61.8958 19.8971V37.8751H59.8958V19.7989L59.9012 19.7507C59.9013 19.7499 59.9013 19.7489 59.9014 19.7476C59.902 19.7396 59.9031 19.723 59.904 19.699C59.9056 19.6508 59.9061 19.5754 59.8998 19.4826C59.8867 19.2909 59.8471 19.0574 59.7545 18.8399C59.6651 18.6302 59.5331 18.4484 59.3304 18.3133C59.1285 18.1786 58.7837 18.0417 58.1875 18.0417H52.25V16.0417Z" fill="#3A3A3C"/>
<path fill-rule="evenodd" clip-rule="evenodd" d="M18.9911 11.5354L24.6093 17.0341L18.9987 22.6447L17.5845 21.2305L21.7656 17.0494L17.5922 12.9647L18.9911 11.5354Z" fill="#3A3A3C"/>
<path fill-rule="evenodd" clip-rule="evenodd" d="M11.1458 19.8971C11.1433 19.864 11.1407 19.8204 11.1388 19.7678C11.1352 19.6622 11.1349 19.5179 11.1465 19.3471C11.1692 19.0114 11.2403 18.5417 11.4471 18.0561C11.6573 17.5627 12.0135 17.0413 12.6018 16.6492C13.1909 16.2564 13.94 16.0417 14.8541 16.0417H22.3541V18.0417H14.8541C14.2579 18.0417 13.9131 18.1786 13.7112 18.3133C13.5085 18.4484 13.3765 18.6302 13.2872 18.8399C13.1945 19.0574 13.1549 19.2909 13.1419 19.4826C13.1355 19.5754 13.136 19.6508 13.1377 19.699C13.1385 19.723 13.1396 19.7396 13.1402 19.7476C13.1403 19.7489 13.1404 19.7499 13.1404 19.7507L13.1458 19.7989V42.1459H11.1458V19.8971Z" fill="#3A3A3C"/>
<path fill-rule="evenodd" clip-rule="evenodd" d="M54.5934 43.2543C54.6638 42.7617 55.0857 42.3958 55.5833 42.3958H63.2917C63.7818 42.3958 64.1996 42.7509 64.2786 43.2346L64.8459 46.7092L67.6917 44.5749C68.0927 44.2742 68.6544 44.3168 69.0055 44.6746L74.4221 50.1954C74.7638 50.5437 74.8043 51.0877 74.5179 51.4827L72.4704 54.3069L75.9331 54.8016C76.4257 54.872 76.7917 55.2939 76.7917 55.7916V63.4999C76.7917 63.99 76.4365 64.4079 75.9528 64.4868L72.4488 65.0589L74.5179 67.9129C74.8064 68.3109 74.763 68.8594 74.4154 69.207L68.9988 74.6237C68.6512 74.9712 68.1026 75.0147 67.7047 74.7262L64.8507 72.657L64.2786 76.161C64.1996 76.6447 63.7818 76.9999 63.2917 76.9999H55.5833C55.0857 76.9999 54.6638 76.634 54.5934 76.1413L54.0987 72.6786L51.2745 74.7262C50.8794 75.0126 50.3354 74.9721 49.9872 74.6304L44.4663 69.2137C44.1085 68.8626 44.0659 68.3009 44.3667 67.8999L46.501 65.0541L43.0264 64.4868C42.5427 64.4079 42.1875 63.99 42.1875 63.4999V55.7916C42.1875 55.2939 42.5534 54.872 43.0461 54.8016L46.4783 54.3113L44.3667 51.4957C44.0681 51.0976 44.1077 50.5405 44.4596 50.1886L49.9804 44.6678C50.3323 44.3159 50.8894 44.2763 51.2875 44.5749L54.1031 46.6866L54.5934 43.2543ZM56.4506 44.3958L55.8441 48.6413C55.7941 48.9911 55.5633 49.2886 55.2368 49.4238C54.9104 49.559 54.5368 49.5119 54.2542 49.2999L50.7813 46.6953L46.487 50.9896L49.0917 54.4624C49.3037 54.7451 49.3508 55.1186 49.2155 55.4451C49.0803 55.7715 48.7829 56.0024 48.4331 56.0523L44.1875 56.6589V62.6499L48.4528 63.3463C48.798 63.4027 49.0887 63.6353 49.2193 63.9598C49.3499 64.2843 49.3015 64.6534 49.0917 64.9332L46.4921 68.3994L50.7847 72.611L54.2672 70.0861C54.5509 69.8804 54.9216 69.8383 55.2443 69.975C55.567 70.1117 55.7946 70.4074 55.8441 70.7543L56.4506 74.9999H62.4417L63.1381 70.7346C63.194 70.3922 63.4233 70.1033 63.7441 69.9711C64.0648 69.839 64.4311 69.8825 64.712 70.0861L68.1879 72.6062L72.3979 68.3961L69.8779 64.9202C69.6743 64.6393 69.6307 64.273 69.7629 63.9523C69.8951 63.6315 70.184 63.4022 70.5264 63.3463L74.7917 62.6499V56.6589L70.5461 56.0523C70.1991 56.0028 69.9035 55.7752 69.7667 55.4525C69.63 55.1299 69.6722 54.7592 69.8779 54.4754L72.4027 50.9929L68.1911 46.7003L64.725 49.2999C64.4452 49.5098 64.076 49.5582 63.7516 49.4276C63.4271 49.2969 63.1944 49.0063 63.1381 48.661L62.4417 44.3958H56.4506Z" fill="#3A3A3C"/>
<path d="M59.4375 68.5C64.3333 68.5 68.2917 64.5417 68.2917 59.6459C68.2917 54.8542 64.3333 50.8959 59.4375 50.8959C54.6458 50.8959 50.6875 54.8542 50.6875 59.6459C50.6875 64.5417 54.6458 68.5 59.4375 68.5Z" fill="white"/>
<path fill-rule="evenodd" clip-rule="evenodd" d="M49.6875 59.6459C49.6875 54.3019 54.0936 49.8959 59.4375 49.8959C64.8779 49.8959 69.2917 54.2942 69.2917 59.6459C69.2917 65.094 64.8856 69.5 59.4375 69.5C54.0859 69.5 49.6875 65.0863 49.6875 59.6459ZM59.4375 51.8959C55.1981 51.8959 51.6875 55.4065 51.6875 59.6459C51.6875 63.9971 55.2058 67.5 59.4375 67.5C63.7811 67.5 67.2917 63.9894 67.2917 59.6459C67.2917 55.4142 63.7888 51.8959 59.4375 51.8959Z" fill="#3A3A3C"/>
<path fill-rule="evenodd" clip-rule="evenodd" d="M54.5834 59.6458C54.5834 57.0101 56.8019 54.7916 59.4376 54.7916C62.16 54.7916 64.3959 56.9929 64.3959 59.6458C64.3959 62.3855 62.1773 64.6041 59.4376 64.6041C56.7847 64.6041 54.5834 62.3682 54.5834 59.6458ZM59.4376 56.7916C57.9065 56.7916 56.5834 58.1147 56.5834 59.6458C56.5834 61.2984 57.9237 62.6041 59.4376 62.6041C61.0728 62.6041 62.3959 61.281 62.3959 59.6458C62.3959 58.1319 61.0901 56.7916 59.4376 56.7916Z" fill="#3A3A3C"/>
<path fill-rule="evenodd" clip-rule="evenodd" d="M33.0416 12.25V18.0833C33.0416 20.9578 35.3956 23.3333 38.3958 23.3333C41.281 23.3333 43.6458 20.9686 43.6458 18.0833V12.25H45.6458V18.0833C45.6458 22.0731 42.3856 25.3333 38.3958 25.3333C34.3126 25.3333 31.0416 22.0839 31.0416 18.0833V12.25H33.0416Z" fill="#3A3A3C"/>
<path fill-rule="evenodd" clip-rule="evenodd" d="M35.5417 25.5764V23.5H33.5417V26.2153L38.3746 33.0075L43.4584 26.2292V23.7083H41.4584V25.5625L38.4171 29.6175L35.5417 25.5764Z" fill="#3A3A3C"/>
<path fill-rule="evenodd" clip-rule="evenodd" d="M27.6687 29.7209C28.9493 29.158 30.7466 28.4389 32.2368 27.8558C32.9828 27.5639 33.6478 27.3076 34.1263 27.1243C34.3655 27.0327 34.558 26.9593 34.6906 26.909L34.8944 26.8316L34.1882 24.9604L33.9799 25.0395C33.8459 25.0904 33.6518 25.1644 33.4109 25.2567C32.9291 25.4412 32.2595 25.6993 31.508 25.9933C30.0096 26.5796 28.17 27.3153 26.8473 27.8973L26.8322 27.9039L26.8173 27.9111C25.2058 28.6846 24.4127 30.0077 24.0297 31.0804C23.8382 31.6164 23.7432 32.1038 23.6955 32.4586C23.6715 32.637 23.6591 32.7846 23.6527 32.8914C23.6495 32.9449 23.6478 32.9885 23.6469 33.0208C23.6465 33.037 23.6462 33.0504 23.646 33.0609L23.6459 33.0744L23.6459 33.0794L23.6459 33.0816C23.6459 33.082 23.6459 33.0834 24.6459 33.0834H23.6459V39.3959H52.9375V33.638C52.9379 33.6315 52.9384 33.6244 52.9388 33.6168C52.9409 33.5796 52.9433 33.5283 52.9451 33.4647C52.9487 33.3377 52.95 33.1602 52.9417 32.9455C52.9252 32.5192 52.8704 31.9309 52.713 31.2941C52.403 30.039 51.6439 28.4233 49.8148 27.6781L49.8071 27.675L42.8202 24.9636L42.0966 26.8282L49.0674 29.5332C50.046 29.9352 50.5352 30.8176 50.7714 31.7738C50.8875 32.2436 50.9303 32.6905 50.9432 33.0227C50.9495 33.1873 50.9484 33.3198 50.9459 33.408C50.9446 33.452 50.943 33.4847 50.9419 33.5045L50.9408 33.5241L50.9406 33.5256L50.9375 33.5637V37.3959H25.6459V33.0878L25.6461 33.0775C25.6465 33.065 25.6473 33.0424 25.6492 33.0108C25.653 32.9476 25.6609 32.8494 25.6777 32.7251C25.7113 32.4744 25.7791 32.1285 25.9131 31.7531C26.1798 31.0063 26.6853 30.1982 27.6687 29.7209Z" fill="#3A3A3C"/>
<path fill-rule="evenodd" clip-rule="evenodd" d="M29.9499 27.6786L31.8418 27.0299L33.9209 33.094L38.4215 30.0937L42.9092 33.366L45.0598 27.4303L46.9402 28.1116L43.8825 36.5509L38.3702 32.5315L32.8708 36.1978L29.9499 27.6786Z" fill="#3A3A3C"/>
<path fill-rule="evenodd" clip-rule="evenodd" d="M38.2979 10.9643C37.0805 11.8925 35.6583 12.3727 34.5263 12.6268C33.8359 12.7818 33.2243 12.8591 32.7836 12.8979C32.5626 12.9174 32.383 12.9273 32.2559 12.9323C32.1923 12.9348 32.1417 12.9362 32.1056 12.9368L32.0623 12.9375L32.0491 12.9376L32.0446 12.9376L32.043 12.9376C32.0426 12.9376 32.0416 12.9376 32.0416 11.9376V12.9376C31.1945 12.9376 30.657 13.1414 30.3068 13.3812C29.9525 13.6238 29.7177 13.9528 29.5605 14.315C29.4006 14.6832 29.3299 15.0665 29.3021 15.3691C29.2884 15.5176 29.2857 15.6394 29.2861 15.7202C29.2863 15.7604 29.2874 15.7899 29.2881 15.8068L29.2889 15.8218L29.2916 15.8565V15.8959C29.2916 17.0575 29.9372 17.684 30.718 18.0744C31.1171 18.274 31.5276 18.3943 31.8457 18.464C32.0025 18.4984 32.1313 18.5193 32.2176 18.5313C32.2607 18.5373 32.2927 18.541 32.3119 18.5431L32.3307 18.545L32.3294 18.5449C32.3291 18.5449 32.3287 18.5448 32.25 19.5417C32.1713 20.5386 32.1708 20.5386 32.1704 20.5386L32.1673 20.5383L32.1618 20.5379L32.1465 20.5365C32.1344 20.5354 32.1185 20.5338 32.0991 20.5317C32.0603 20.5276 32.0073 20.5213 31.9421 20.5123C31.8119 20.4942 31.6315 20.4646 31.4173 20.4176C30.9931 20.3246 30.414 20.1585 29.8236 19.8632C28.6313 19.2671 27.3051 18.0797 27.2917 15.9286C27.2912 15.9191 27.2906 15.9082 27.2901 15.8961C27.2883 15.8551 27.2865 15.7995 27.2862 15.7315C27.2854 15.5958 27.29 15.4083 27.3105 15.1857C27.351 14.7462 27.4561 14.1399 27.7259 13.5185C27.9983 12.8911 28.4472 12.2306 29.1769 11.7309C29.9103 11.2288 30.8567 10.9378 32.0402 10.9376L32.0438 10.9376L32.0677 10.9372C32.0907 10.9368 32.1274 10.9358 32.1765 10.9339C32.2748 10.93 32.4223 10.922 32.6083 10.9056C32.9813 10.8728 33.5026 10.8069 34.0882 10.6754C35.2823 10.4073 36.6316 9.89177 37.5845 8.9388L38.2916 8.23169L38.9966 8.93668C38.9966 8.93664 38.9965 8.93653 38.9966 8.93668C38.9968 8.93684 38.9975 8.93755 38.9979 8.93792C38.998 8.93809 38.9977 8.93771 38.9979 8.93792L39.0121 8.95167C39.0263 8.96514 39.0498 8.98732 39.0826 9.017C39.1481 9.07639 39.2498 9.16546 39.3849 9.27439C39.6557 9.49281 40.0567 9.78791 40.5651 10.0835C41.5879 10.6781 43.0022 11.2501 44.6458 11.2501C46.8753 11.2501 48.1432 12.2454 48.7918 13.3625C49.0972 13.8884 49.2456 14.4053 49.319 14.7847C49.3561 14.9763 49.3752 15.1387 49.385 15.2578C49.39 15.3176 49.3927 15.367 49.3941 15.4043C49.3949 15.423 49.3953 15.4387 49.3955 15.4513L49.3956 15.4545C49.3961 15.4677 49.3966 15.4846 49.397 15.5052C49.3977 15.5463 49.398 15.6018 49.3966 15.6697C49.3938 15.805 49.3842 15.9919 49.3578 16.2131C49.3057 16.6495 49.1842 17.2508 48.8961 17.8599C48.605 18.4755 48.1343 19.1167 47.3843 19.5813C46.6309 20.048 45.6728 20.2886 44.4904 20.2279L44.5928 18.2306C45.4417 18.2741 45.981 18.098 46.3311 17.8811C46.6846 17.6621 46.9236 17.3528 47.0882 17.0048C47.2558 16.6504 47.3362 16.2752 47.3719 15.9759C47.3895 15.8292 47.3954 15.7085 47.397 15.6282C47.3979 15.5882 47.3976 15.5589 47.3973 15.5421L47.3969 15.5271L47.3969 15.526L47.3958 15.5055V15.4865C47.3958 15.4853 47.3957 15.4837 47.3956 15.4817C47.3952 15.4717 47.3943 15.4517 47.3919 15.4232C47.3871 15.3657 47.3769 15.2758 47.3554 15.1647C47.3117 14.9386 47.2257 14.6482 47.0623 14.3668C46.7734 13.8693 46.1663 13.2501 44.6458 13.2501C42.5394 13.2501 40.7766 12.5199 39.5598 11.8125C39.0444 11.5128 38.6192 11.2128 38.2979 10.9643ZM32.3324 18.5451C32.3325 18.5452 32.3325 18.5452 32.3324 18.5451Z" fill="#3A3A3C"/>
<path fill-rule="evenodd" clip-rule="evenodd" d="M38.3958 2C33.4273 2 29.3958 6.03146 29.3958 11V14.5417H27.3958V11C27.3958 4.92689 32.3227 0 38.3958 0C44.4689 0 49.3958 4.92689 49.3958 11V14.5417H47.3958V11C47.3958 6.03146 43.3644 2 38.3958 2Z" fill="#3A3A3C"/>
</svg>
