<svg width="36" height="36" viewBox="0 0 36 36" fill="none" xmlns="http://www.w3.org/2000/svg">
<circle cx="18" cy="18" r="18" fill="#F3F3F3"/>
<path fill-rule="evenodd" clip-rule="evenodd" d="M20.3548 23.9737C19.673 24.722 18.8792 25.3921 17.9877 25.9341C17.8779 26.0147 17.7292 26.0244 17.6072 25.9463C16.2902 25.1077 15.1841 24.1006 14.3146 23.0057C13.1146 21.4993 12.3597 19.8294 12.1012 18.2205C11.8377 16.5897 12.0841 15.0199 12.8951 13.7443C13.2146 13.2401 13.6231 12.7811 14.1207 12.3844C15.2645 11.4726 16.5706 10.9904 17.8731 11.0001C19.1267 11.0099 20.3645 11.4774 21.434 12.4552C21.8096 12.797 22.1255 13.1888 22.384 13.6136C23.2559 15.0516 23.4437 16.8851 23.0608 18.743C22.6828 20.5789 21.7438 22.4441 20.3548 23.97V23.9737ZM17.6243 13.9005C19.1706 13.9005 20.423 15.1554 20.423 16.702C20.423 18.2498 19.1694 19.5035 17.6243 19.5035C16.078 19.5035 14.8255 18.2498 14.8255 16.702C14.8243 15.1542 16.078 13.9005 17.6243 13.9005Z" fill="#44B54D"/>
</svg>
