<svg width="64" height="64" viewBox="0 0 64 64" fill="none" xmlns="http://www.w3.org/2000/svg">
<path d="M64 32.0001C64 49.6736 49.6728 64 32 64C14.3267 64 0 49.6736 0 32.0001C0 14.3267 14.3267 0 32 0C49.6728 0 64 14.3267 64 32.0001Z" fill="white"/>
<path d="M32.7086 9.49367C32.7086 9.49367 34.4613 11.5963 34.4613 14.1901C34.4613 16.7838 32.7086 18.8866 32.7086 18.8866C32.7086 18.8866 30.9561 16.7838 30.9561 14.1901C30.9561 11.5963 32.7086 9.49367 32.7086 9.49367ZM25.3192 14.422C25.3192 14.422 24.9669 17.058 26.31 19.1907C27.6533 21.3233 30.1831 22.1445 30.1831 22.1445C30.1831 22.1445 30.5356 19.508 29.1921 17.3756C27.849 15.2429 25.3192 14.422 25.3192 14.422ZM20.8091 20.3358C22.9109 21.7268 25.5543 21.4343 25.5543 21.4343C25.5543 21.4343 24.791 18.8861 22.6887 17.4955C20.5872 16.1043 17.9436 16.3973 17.9436 16.3973C17.9436 16.3973 18.7071 18.9448 20.8091 20.3358ZM22.5675 23.8532C20.366 22.6264 17.7526 23.1201 17.7526 23.1201C17.7526 23.1201 18.7081 25.6019 20.9102 26.8285C23.1119 28.0554 25.7253 27.5619 25.7253 27.5619C25.7253 27.5619 24.7698 25.0792 22.5675 23.8532ZM16.7731 33.8578C19.1525 33.0261 20.5191 30.7449 20.5191 30.7449C20.5191 30.7449 18.0285 29.8105 15.6492 30.6427C13.2699 31.4741 11.9036 33.7559 11.9036 33.7559C11.9036 33.7559 14.3939 34.6895 16.7731 33.8578ZM17.818 39.33C17.818 39.33 20.4315 39.8232 22.6329 38.5961C24.8347 37.3693 25.7905 34.8875 25.7905 34.8875C25.7905 34.8875 23.1767 34.3935 20.9752 35.6208C18.7735 36.8477 17.818 39.33 17.818 39.33ZM20.1359 46.154C20.1359 46.154 22.7858 45.9286 24.578 44.1564C26.3704 42.3843 26.6258 39.737 26.6258 39.737C26.6258 39.737 23.9754 39.9619 22.1832 41.7344C20.3909 43.5065 20.1359 46.154 20.1359 46.154ZM28.7129 13.111C28.7129 13.111 29.1719 11.8719 28.7536 10.6917C28.3357 9.51149 27.1995 8.83752 27.1995 8.83752C27.1995 8.83752 26.7408 10.0763 27.1587 11.2566C27.5767 12.4366 28.7129 13.111 28.7129 13.111ZM23.562 15.195C23.562 15.195 23.7879 13.8929 23.1618 12.8086C22.5363 11.7241 21.2961 11.2683 21.2961 11.2683C21.2961 11.2683 21.0704 12.5697 21.6962 13.6543C22.322 14.7386 23.562 15.195 23.562 15.195ZM15.897 20.1844C16.9151 20.9132 18.2327 20.8163 18.2327 20.8163C18.2327 20.8163 17.9001 19.5372 16.8819 18.8087C15.8641 18.0797 14.5466 18.1771 14.5466 18.1771C14.5466 18.1771 14.879 19.4555 15.897 20.1844ZM14.8782 27.9986C16.1042 28.2521 17.2695 27.6294 17.2695 27.6294C17.2695 27.6294 16.4469 26.5951 15.2208 26.3418C13.9948 26.088 12.8299 26.7112 12.8299 26.7112C12.8299 26.7112 13.652 27.745 14.8782 27.9986ZM14.774 36.2845C13.6813 36.8951 13.2088 38.1291 13.2088 38.1291C13.2088 38.1291 14.5071 38.3721 15.5999 37.761C16.6926 37.1498 17.1655 35.9161 17.1655 35.9161C17.1655 35.9161 15.8666 35.6729 14.774 36.2845ZM18.0056 41.7023C17.0358 42.4937 16.7849 43.791 16.7849 43.791C16.7849 43.791 18.1059 43.8046 19.0757 43.0127C20.0453 42.221 20.2967 40.9237 20.2967 40.9237C20.2967 40.9237 18.9752 40.9102 18.0056 41.7023ZM23.9288 47.0429C23.4262 48.1894 23.7944 49.4585 23.7944 49.4585C23.7944 49.4585 24.9764 48.8685 25.4787 47.7216C25.9807 46.5748 25.6132 45.3056 25.6132 45.3056C25.6132 45.3056 24.4306 45.8959 23.9288 47.0429ZM38.9913 19.1908C40.3345 17.0582 39.9821 14.4221 39.9821 14.4221C39.9821 14.4221 37.4522 15.2431 36.1092 17.3757C34.7654 19.5081 35.1181 22.1447 35.1181 22.1447C35.1181 22.1447 37.648 21.3234 38.9913 19.1908ZM47.2979 15.3415C47.2979 15.3415 44.6407 15.4603 42.7789 17.1594C40.9167 18.8579 40.5555 21.4935 40.5555 21.4935C40.5555 21.4935 43.2128 21.3743 45.0747 19.6752C46.9367 17.9767 47.2979 15.3415 47.2979 15.3415ZM47.5492 23.1201C47.5492 23.1201 44.9357 22.6264 42.7339 23.8532C40.5317 25.0793 39.5761 27.5619 39.5761 27.5619C39.5761 27.5619 42.1896 28.0554 44.3915 26.8285C46.5937 25.6019 47.5492 23.1201 47.5492 23.1201ZM43.0239 31.6758C43.0239 31.6758 44.869 33.5912 47.3744 33.8662C49.8801 34.1411 52.0964 32.6712 52.0964 32.6712C52.0964 32.6712 50.2515 30.7551 47.7463 30.4806C45.2407 30.2052 43.0239 31.6758 43.0239 31.6758ZM44.3265 35.621C42.1248 34.3936 39.511 34.8876 39.511 34.8876C39.511 34.8876 40.4666 37.3694 42.6685 38.5963C44.8703 39.8233 47.4837 39.3301 47.4837 39.3301C47.4837 39.3301 46.5283 36.8477 44.3265 35.621ZM37.9089 39.2239C37.9089 39.2239 37.7026 41.8755 39.1614 43.931C40.6199 45.9866 43.1912 46.6669 43.1912 46.6669C43.1912 46.6669 43.3979 44.015 41.9392 41.96C40.4805 39.9037 37.9089 39.2239 37.9089 39.2239ZM38.312 11.4129C38.8404 10.2778 38.5015 9.00097 38.5015 9.00097C38.5015 9.00097 37.3061 9.56381 36.778 10.699C36.2494 11.8339 36.5882 13.111 36.5882 13.111C36.5882 13.111 37.7836 12.5478 38.312 11.4129ZM43.7416 14.4568C44.5587 13.5084 44.5799 12.1875 44.5799 12.1875C44.5799 12.1875 43.2767 12.4041 42.4596 13.3527C41.6422 14.3011 41.6211 15.6224 41.6211 15.6224C41.6211 15.6224 42.9244 15.4055 43.7416 14.4568ZM48.7237 20.3986C49.7418 19.6695 50.0743 18.3911 50.0743 18.3911C50.0743 18.3911 48.7566 18.2938 47.7388 19.0226C46.7205 19.7514 46.3879 21.0302 46.3879 21.0302C46.3879 21.0302 47.7057 21.1274 48.7237 20.3986ZM47.3627 27.2054C47.3627 27.2054 48.3909 28.0353 49.6426 28.0161C50.8947 27.9967 51.896 27.1351 51.896 27.1351C51.896 27.1351 50.8682 26.3049 49.6166 26.3244C48.3644 26.3435 47.3627 27.2054 47.3627 27.2054ZM49.961 35.3338C48.7518 35.0085 47.5519 35.5623 47.5519 35.5623C47.5519 35.5623 48.3126 36.6426 49.5219 36.9674C50.7312 37.2924 51.9305 36.7387 51.9305 36.7387C51.9305 36.7387 51.1701 35.6581 49.961 35.3338ZM44.0504 41.1644C44.0504 41.1644 44.1824 42.4791 45.0756 43.3562C45.9692 44.2336 47.2858 44.3407 47.2858 44.3407C47.2858 44.3407 47.1544 43.0257 46.2608 42.1491C45.3677 41.2717 44.0504 41.1644 44.0504 41.1644ZM38.6013 45.3056C38.6013 45.3056 38.2338 46.5748 38.7358 47.7216C39.238 48.8685 40.4201 49.4585 40.4201 49.4585C40.4201 49.4585 40.7883 48.1894 40.2857 47.0429C39.7838 45.8959 38.6013 45.3056 38.6013 45.3056Z" fill="url(#paint0_linear_30_25)"/>
<path d="M32.6453 35.5606L34.3457 37.3392C34.3457 37.3392 38.0867 31.9641 43.2976 29.5403C37.6098 30.7132 32.6453 35.5606 32.6453 35.5606Z" fill="#3A3A3C"/>
<path d="M34.3565 37.4783L32.521 35.5584L32.5835 35.4975C32.6334 35.4488 37.6319 30.6186 43.2798 29.454L44.0219 29.301L43.3348 29.6204C38.2047 32.0064 34.4554 37.336 34.4182 37.3896L34.3565 37.4783ZM32.7702 35.5635L34.336 37.2012C34.8244 36.5281 38.1105 32.1515 42.5713 29.8021C37.6246 31.1094 33.3375 35.0292 32.7702 35.5635Z" fill="#232323"/>
<path d="M31.9999 32.3738C34.2016 32.3738 35.9864 30.589 35.9864 28.3874C35.9864 26.1857 34.2016 24.4009 31.9999 24.4009C29.7982 24.4009 28.0134 26.1857 28.0134 28.3874C28.0134 30.589 29.7982 32.3738 31.9999 32.3738Z" fill="#3A3A3C"/>
<path d="M32 32.4622C29.7531 32.4622 27.9253 30.6341 27.9253 28.3874C27.9253 26.1406 29.7532 24.3126 32 24.3126C34.2467 24.3126 36.0748 26.1406 36.0748 28.3874C36.0748 30.6341 34.2467 32.4622 32 32.4622ZM32 24.4892C29.8505 24.4892 28.1017 26.2379 28.1017 28.3874C28.1017 30.5368 29.8505 32.2855 32 32.2855C34.1494 32.2855 35.8981 30.5368 35.8981 28.3874C35.8981 26.2379 34.1494 24.4892 32 24.4892Z" fill="#232323"/>
<path d="M19.6707 29.2906C19.6707 29.2906 28.8271 32.3739 30.5556 40.9853C30.5556 40.9853 31.5367 45.1587 31.2875 49.2542C31.2408 50.0213 30.7269 49.9705 30.7269 49.9705C30.7269 49.9705 29.2476 49.7213 29.1074 46.42C29.0439 44.9251 29.4189 43.1498 29.4189 43.1498C29.4189 43.1498 29.5279 42.1999 29.1074 41.4369C27.6281 43.5547 27.8616 47.5412 27.8616 47.5412C27.8616 47.5412 28.1731 55.4207 32.1148 55.4207C33.9971 55.4207 36.6326 52.7285 36.4575 47.4478C35.9866 33.2459 19.6707 29.2906 19.6707 29.2906Z" fill="#3A3A3C"/>
<path d="M32.1148 55.509C28.1339 55.509 27.7862 47.8699 27.7734 47.5447C27.7638 47.3822 27.5551 43.5048 29.035 41.3862L29.1162 41.2699L29.1846 41.3941C29.6138 42.1729 29.511 43.1199 29.5064 43.1598C29.5013 43.1856 29.1332 44.9498 29.1954 46.4161C29.3304 49.5921 30.7279 49.8809 30.7419 49.8833C30.8435 49.8827 31.1634 49.837 31.1993 49.2486C31.4448 45.2128 30.4793 41.0469 30.4696 41.0053C29.5816 36.5817 26.6856 33.6557 24.4124 31.9796C21.9468 30.1615 19.6651 29.3817 19.6423 29.3741L19.6913 29.2047C19.7323 29.2146 23.833 30.229 27.9363 32.9701C30.3484 34.5814 32.2906 36.4653 33.7089 38.5698C35.4831 41.2027 36.4375 44.1887 36.5455 47.4447C36.6416 50.3422 35.8712 52.8573 34.4317 54.3452C33.7164 55.0848 32.8719 55.509 32.1148 55.509ZM29.0965 41.6114C27.743 43.7094 27.9474 47.4972 27.9497 47.5361C27.9528 47.6157 28.3028 55.3324 32.1147 55.3324C32.8241 55.3324 33.6226 54.9279 34.3049 54.2225C35.7112 52.7688 36.4636 50.3006 36.3691 47.4507C36.1271 40.152 31.5963 35.6274 27.8383 33.1168C25.3248 31.4379 22.8143 30.4114 21.2485 29.8686C22.1323 30.2965 23.3034 30.9426 24.5172 31.8377C26.8154 33.5324 29.7436 36.4919 30.642 40.968C30.6513 41.0069 31.6226 45.1981 31.3756 49.2596C31.3292 50.0209 30.8434 50.0595 30.7464 50.0595C30.7282 50.0595 30.718 50.0584 30.718 50.0584C30.6488 50.0469 29.1607 49.7583 29.019 46.4238C28.9558 44.935 29.3285 43.1496 29.3324 43.1316C29.3322 43.1306 29.4201 42.3145 29.0965 41.6114Z" fill="#232323"/>
<defs>
<linearGradient id="paint0_linear_30_25" x1="32.0001" y1="8.39261" x2="32.0001" y2="49.9393" gradientUnits="userSpaceOnUse">
<stop stop-color="#179D4B"/>
<stop offset="1" stop-color="#FBE34E"/>
</linearGradient>
</defs>
</svg>
