<svg width="48" height="48" viewBox="0 0 48 48" fill="none" xmlns="http://www.w3.org/2000/svg">
<path d="M29.5055 0.642064C24.8874 -0.448327 20.0498 -0.144867 15.6042 1.51407C11.1586 3.17301 7.3047 6.11293 4.5299 9.96207C1.7551 13.8112 0.183975 18.3967 0.0151884 23.1388C-0.153598 27.8808 1.08753 32.5664 3.58165 36.6031C6.07576 40.6398 9.71085 43.8463 14.0272 45.8171C18.3437 47.7879 23.1475 48.4345 27.8314 47.6752C32.5153 46.9159 36.8689 44.7848 40.3416 41.5513C43.8144 38.3178 46.2503 34.1271 47.3414 29.5092C48.066 26.4427 48.1794 23.2634 47.6752 20.153C47.171 17.0426 46.059 14.0619 44.4027 11.3813C42.7465 8.70067 40.5784 6.37255 38.0223 4.5299C35.4662 2.68725 32.5722 1.36616 29.5055 0.642064Z" fill="#E9E9E9"/>
<path d="M16.8147 24.284C16.8147 22.9457 17.1444 21.8014 17.8037 20.8511C18.4631 19.9009 19.3649 19.1834 20.5092 18.6985C21.5564 18.2524 22.8462 17.9326 24.3785 17.7383C24.902 17.6803 25.7554 17.6027 26.9384 17.5055V17.011C26.9384 15.7698 26.8028 14.936 26.5312 14.5092C26.1239 13.9271 25.484 13.6365 24.6111 13.6365H24.3785C23.7384 13.6946 23.1856 13.8982 22.7202 14.2472C22.2548 14.5964 21.954 15.081 21.8184 15.7019C21.7407 16.0896 21.547 16.3126 21.2366 16.3709L17.891 15.9636C17.5613 15.886 17.3964 15.7115 17.3964 15.4399C17.3964 15.3818 17.4061 15.3138 17.4253 15.2365C17.755 13.5104 18.5647 12.2305 19.8545 11.3964C21.1441 10.5628 22.6522 10.0971 24.3785 10H25.1059C27.3163 10 29.0426 10.5721 30.2843 11.7164C30.4786 11.9112 30.6588 12.1201 30.8223 12.3417C30.9867 12.5646 31.1179 12.7636 31.2145 12.938C31.3117 13.1125 31.3992 13.3649 31.4765 13.6943C31.5544 14.0243 31.6122 14.2521 31.6515 14.3779C31.69 14.5039 31.7192 14.7756 31.7385 15.1928C31.7578 15.6097 31.7674 15.8568 31.7674 15.9344V22.9746C31.7674 23.4788 31.84 23.9394 31.9856 24.3564C32.1312 24.7736 32.2721 25.0741 32.4072 25.2582C32.5429 25.4423 32.7664 25.7384 33.0765 26.1452C33.1929 26.3202 33.251 26.4754 33.251 26.6111C33.251 26.7663 33.1737 26.9014 33.0179 27.0181C31.4085 28.4147 30.5359 29.1712 30.3999 29.2877C30.1674 29.4621 29.8861 29.4814 29.5562 29.3457C29.2851 29.1127 29.0476 28.89 28.8437 28.6765C28.6403 28.4634 28.4947 28.3082 28.4072 28.2111C28.3202 28.1145 28.1793 27.9251 27.9856 27.6439C27.7918 27.3626 27.6554 27.1733 27.5783 27.0767C26.4923 28.2598 25.4257 28.9968 24.3785 29.2877C23.7189 29.4814 22.9043 29.5785 21.9348 29.5785C20.4413 29.5785 19.2147 29.1176 18.2548 28.1965C17.2946 27.2751 16.8147 25.971 16.8147 24.284ZM21.8184 23.7019C21.8184 24.4585 22.0077 25.0644 22.3855 25.5202C22.7639 25.9759 23.2728 26.2038 23.9129 26.2038C23.9712 26.2038 24.0535 26.1941 24.1603 26.1749C24.2666 26.1551 24.3395 26.1454 24.3785 26.1454C25.1929 25.9324 25.8231 25.409 26.2692 24.5749C26.4827 24.2064 26.6426 23.804 26.7494 23.3676C26.8562 22.9314 26.9142 22.5772 26.9239 22.3056C26.9335 22.0342 26.9387 21.5881 26.9387 20.9675V20.2402C25.8137 20.2402 24.9606 20.3178 24.3788 20.473C22.6715 20.9576 21.8184 22.034 21.8184 23.7019Z" fill="black"/>
<path d="M34.0364 33.0694C34.0755 32.9915 34.1335 32.9142 34.2114 32.8363C34.6961 32.5066 35.1614 32.284 35.6075 32.1676C36.3445 31.9738 37.0622 31.867 37.7601 31.8475C37.9544 31.8277 38.1385 31.8379 38.313 31.8764C39.1859 31.9538 39.7091 32.0996 39.8841 32.3129C39.9615 32.4293 40 32.6038 40 32.8363V33.0402C40 33.7186 39.8159 34.5189 39.4477 35.44C39.0789 36.3611 38.5651 37.1033 37.9055 37.6658C37.8088 37.7431 37.7213 37.7817 37.644 37.7817C37.6049 37.7817 37.5661 37.772 37.5276 37.7528C37.4112 37.6947 37.382 37.5879 37.4401 37.4327C38.1578 35.7455 38.5164 34.5723 38.5164 33.9124C38.5164 33.6994 38.4779 33.5441 38.4005 33.447C38.2062 33.2145 37.6635 33.098 36.7713 33.098C36.4411 33.098 36.0536 33.1173 35.6075 33.1561C35.1229 33.2147 34.6768 33.2725 34.2692 33.3311C34.1528 33.3311 34.0755 33.3113 34.0362 33.2725C33.9976 33.234 33.9877 33.1952 34.0072 33.1561C34.0072 33.1371 34.0169 33.1079 34.0364 33.0694ZM8.05807 32.5751C8.15521 32.4199 8.31016 32.4103 8.5237 32.5457C13.3722 35.358 18.6475 36.7642 24.3491 36.7642C28.1507 36.7642 31.9033 36.0561 35.6075 34.6402C35.7041 34.6017 35.845 34.5436 36.0291 34.4658C36.2138 34.3884 36.3445 34.3301 36.4218 34.2913C36.7127 34.1749 36.9406 34.2332 37.1054 34.4658C37.2708 34.6988 37.2174 34.9119 36.9458 35.1056C36.5963 35.358 36.1502 35.6488 35.6075 35.9785C33.9398 36.9679 32.0775 37.7338 30.0218 38.277C27.9663 38.8202 25.9587 39.0913 24.0001 39.0913C20.9746 39.0913 18.1139 38.5629 15.4183 37.5059C12.7224 36.4489 10.3078 34.96 8.17448 33.0405C8.05807 32.9434 8 32.8462 8 32.7493C8 32.691 8.01927 32.6329 8.05807 32.5751Z" fill="#FF9900"/>
</svg>
