<svg width="36" height="36" viewBox="0 0 36 36" fill="none" xmlns="http://www.w3.org/2000/svg">
<circle cx="18" cy="18" r="18" fill="#F3F3F3"/>
<path fill-rule="evenodd" clip-rule="evenodd" d="M9.40869 14.11L18 9L26.6353 14.11H9.40869ZM9 25.026H10.3301V24.096H10.5234V23.6524H11.0874V16.3298H9.93457V15.0546H26.064V16.3298H24.9126V23.6524H25.4766V24.096H25.6699V25.026H27V27H9V25.026ZM13.7739 24.096H14.4243V23.6524H14.9883V16.3298H13.21V23.6524H13.7739V24.096ZM17.6748 24.096H18.3267V23.6524H18.8892V16.3298H17.1108V23.6524H17.6748V24.096ZM21.5757 24.096H22.2275V23.6524H22.7915V16.3298H21.0117V23.6524H21.5757V24.096Z" fill="#44B54D"/>
</svg>
