<svg width="36" height="36" viewBox="0 0 36 36" fill="none" xmlns="http://www.w3.org/2000/svg">
<circle cx="18" cy="18" r="18" fill="#F3F3F3"/>
<path d="M11.0773 13H23.9217C24.0845 13 24.2378 13.0399 24.3759 13.1067L18.1992 17.5753C17.662 18.1295 17.3294 18.1295 16.7923 17.5753L10.618 13.1093C10.7582 13.0409 10.9125 13 11.0773 13ZM24.9995 22.8887C24.9995 23.5023 24.5171 24 23.9222 24H11.0773C10.4824 24 10 23.5023 10 22.8887V14.4443C10 14.3884 10.008 14.3351 10.0161 14.2817L16.3572 18.9202C16.9882 19.5712 18.0118 19.5712 18.6429 18.9202L24.9839 14.2817C24.9915 14.3351 25 14.3884 25 14.4443V22.8887H24.9995Z" fill="#44B54D"/>
</svg>
