<svg width="45" height="45" viewBox="0 0 45 45" fill="none" xmlns="http://www.w3.org/2000/svg">
<path d="M8.48059 20.2845V18.1417H16.9431V20.2845H14.0012V27.8753H11.4043V20.2845H8.48059ZM19.213 27.8753H16.3619L19.5762 18.1417H23.19L26.4043 27.8753H23.5532L21.4285 20.8293H21.3377L19.213 27.8753ZM18.6864 24.0436H24.0435V26.023H18.6864V24.0436ZM30.1634 18.1417L31.7615 20.9746H31.8341L33.4503 18.1417H36.3922L33.4866 23.0085L36.5193 27.8753H33.4866L31.8341 24.9879H31.7615L30.1089 27.8753H27.1126L30.0908 23.0085L27.2034 18.1417H30.1634Z" fill="#40B751"/>
<path fill-rule="evenodd" clip-rule="evenodd" d="M22.5 0C34.9213 0 45 10.0605 45 22.5C45 34.9213 34.9213 45 22.5 45C10.0605 45 0 34.9213 0 22.5C0 10.0605 10.0605 0 22.5 0ZM36.4649 12.3668L12.3668 36.4649C15.1998 38.5351 18.7046 39.7518 22.5 39.7518C32.0339 39.7518 39.7518 32.0339 39.7518 22.5C39.7518 18.7046 38.5351 15.1998 36.4649 12.3668ZM8.51695 32.6332L32.6332 8.51695C29.7821 6.44673 26.2772 5.23002 22.5 5.23002C12.9661 5.23002 5.23002 12.9661 5.23002 22.5C5.23002 26.2772 6.44673 29.7821 8.51695 32.6332Z" fill="#40B751"/>
</svg>
