<svg width="45" height="45" viewBox="0 0 45 45" fill="none" xmlns="http://www.w3.org/2000/svg">
<path fill-rule="evenodd" clip-rule="evenodd" d="M10.1807 5.10801H15.2887L18.912 1.48468C20.8739 -0.494894 24.1084 -0.494894 26.088 1.48468L29.7113 5.10801H34.8193C37.6119 5.10801 39.892 7.38806 39.892 10.1807V15.2887L43.5153 18.912C45.4772 20.8916 45.4772 24.1261 43.5153 26.088L39.892 29.7113V34.8193C39.892 37.6119 37.6119 39.9097 34.8193 39.9097H29.7113L26.088 43.5153C24.1084 45.4949 20.8739 45.4949 18.912 43.5153L15.2887 39.9097H10.1807C7.38806 39.9097 5.09034 37.6119 5.09034 34.8193V29.7113L1.48468 26.088C-0.494894 24.1261 -0.494894 20.8916 1.48468 18.912L5.09034 15.2887V10.1807C5.09034 7.38806 7.38806 5.10801 10.1807 5.10801ZM11.1528 23.5075C10.0216 22.3763 10.0216 20.5558 11.1528 19.4246C12.2663 18.3111 14.1045 18.3111 15.218 19.4246L19.3892 23.5958L28.7392 14.2636C29.8527 13.1324 31.6909 13.1324 32.8044 14.2636C33.9356 15.3771 33.9356 17.2152 32.8044 18.3288L21.4218 29.7113C20.3083 30.8425 18.4878 30.8425 17.3566 29.7113L11.1528 23.5075Z" fill="#40B751"/>
</svg>
