<svg width="80" height="79" viewBox="0 0 80 79" fill="none" xmlns="http://www.w3.org/2000/svg">
<path d="M31.1056 2.00012L1.00006 17.0015V38.4418C1.00006 38.4418 1.21241 57.0325 19.3785 69.1843L31.1056 77.0001L42.8327 69.1843C60.9987 57.0325 61.211 38.4418 61.211 38.4418V17.0015L31.1056 2.00012Z" fill="#EEE063"/>
<path d="M31.1056 7.63074L5.52103 20.3785V38.5993C5.52103 38.5993 5.69913 54.4021 21.1389 64.7318L31.1056 71.3763L41.0722 64.7318C56.512 54.4021 56.6901 38.5993 56.6901 38.5993V20.3785L31.1056 7.63074Z" fill="#EAE1A1"/>
<path d="M47.4427 27.7011C47.4427 27.7011 40.9763 18.7208 31.1056 28.5916C21.2348 18.7208 14.7684 27.7011 14.7684 27.7011C9.95294 34.3044 14.7684 38.7021 14.7684 38.7021L31.1056 55.0324L47.4427 38.7021C47.4427 38.7021 52.2582 34.3044 47.4427 27.7011Z" fill="#42B650"/>
<path fill-rule="evenodd" clip-rule="evenodd" d="M31.1056 6.51343L57.6901 19.7594V38.6105L56.6901 38.5993C57.69 38.6105 57.69 38.6111 57.69 38.6117L57.69 38.6132L57.6899 38.6172L57.6897 38.6297L57.6887 38.6716C57.6878 38.7071 57.6862 38.7575 57.6834 38.8221C57.6779 38.9513 57.6677 39.1376 57.6493 39.3757C57.6124 39.8517 57.5423 40.5355 57.4089 41.385C57.1423 43.0831 56.6222 45.449 55.6069 48.1444C53.5743 53.5405 49.5548 60.2598 41.6283 65.5629L41.6269 65.5638L31.1056 72.5781L20.5842 65.5638L20.5828 65.5629C12.6563 60.2598 8.6368 53.5405 6.60424 48.1444C5.58896 45.449 5.06882 43.0831 4.80221 41.385C4.66883 40.5355 4.59869 39.8517 4.56182 39.3757C4.54339 39.1376 4.53326 38.9513 4.52772 38.8221C4.52495 38.7575 4.52332 38.7071 4.52237 38.6716L4.5214 38.6297L4.52118 38.6172L4.52112 38.6132L4.52111 38.6117C4.5211 38.6111 4.52109 38.6105 5.52103 38.5993L4.52109 38.6105L4.52097 38.5993L4.52103 19.7594L31.1056 6.51343ZM6.52104 38.5918L6.52165 38.6182C6.52232 38.6431 6.52358 38.6827 6.52588 38.7364C6.53048 38.8437 6.53926 39.007 6.55585 39.2213C6.58904 39.6498 6.65343 40.2813 6.778 41.0747C7.02727 42.6624 7.51664 44.8928 8.47586 47.4394C10.3922 52.527 14.1816 58.8737 21.6944 63.9003C21.6946 63.9004 21.6942 63.9002 21.6944 63.9003L31.1056 70.1744L40.5162 63.9006C48.0294 58.8741 51.8188 52.5271 53.7353 47.4394C54.6945 44.8928 55.1838 42.6624 55.4331 41.0747C55.5577 40.2813 55.6221 39.6498 55.6553 39.2213C55.6719 39.007 55.6806 38.8437 55.6852 38.7364C55.6875 38.6827 55.6888 38.6431 55.6895 38.6182L55.6901 38.5918L55.6901 20.9974L31.1056 8.74794L6.52103 20.9974L6.52104 38.5918Z" fill="#3A3A3C"/>
<path fill-rule="evenodd" clip-rule="evenodd" d="M31.1055 27.2029C33.4 25.0736 35.5615 23.8706 37.5583 23.3238C39.7688 22.7184 41.7118 22.9354 43.31 23.5024C44.8952 24.0647 46.1232 24.9639 46.9488 25.7105C47.3636 26.0856 47.6829 26.4277 47.9012 26.6796C48.0106 26.8058 48.0951 26.9099 48.154 26.985C48.1835 27.0225 48.2067 27.0528 48.2234 27.0751L48.2436 27.1023L48.2501 27.1112C50.8416 30.6649 50.9008 33.7445 50.2029 35.9763C49.8619 37.0667 49.3519 37.9199 48.9276 38.5013C48.7147 38.793 48.5211 39.0195 48.3767 39.1766C48.3045 39.2553 48.2443 39.317 48.1998 39.3611C48.1886 39.3722 48.1783 39.3823 48.1691 39.3912C48.1602 39.3999 48.1522 39.4075 48.1453 39.4141L48.1384 39.4205L31.1055 56.4463L14.0727 39.4206L14.0658 39.4141C14.0518 39.4008 14.0335 39.3831 14.0113 39.3611C13.9668 39.317 13.9066 39.2553 13.8344 39.1766C13.69 39.0195 13.4964 38.793 13.2835 38.5013C12.8592 37.9199 12.3492 37.0667 12.0082 35.9763C11.3103 33.7447 11.3689 30.6662 13.9597 27.1129C13.96 27.1126 13.9602 27.1122 13.9605 27.1119L13.9675 27.1023L13.9877 27.0751C14.0044 27.0528 14.0276 27.0225 14.0571 26.985C14.116 26.9099 14.2005 26.8058 14.3099 26.6796C14.5282 26.4277 14.8475 26.0856 15.2623 25.7105C16.0878 24.9639 17.3159 24.0647 18.9011 23.5024C20.4993 22.9354 22.4423 22.7184 24.6528 23.3238C26.6496 23.8706 28.811 25.0736 31.1055 27.2029ZM15.5783 28.2878C15.5777 28.2885 15.5781 28.288 15.5783 28.2878L15.5764 28.2903C13.3525 31.34 13.4111 33.7616 13.917 35.3794C14.178 36.2139 14.5709 36.8728 14.899 37.3223C15.0623 37.5461 15.2073 37.7148 15.3075 37.8239C15.3575 37.8783 15.396 37.9176 15.4198 37.9412C15.4317 37.9529 15.4398 37.9608 15.4438 37.9645C15.4446 37.9653 15.4452 37.9659 15.4457 37.9663L15.4594 37.9789L31.1055 53.6185L46.7516 37.9789L46.7645 37.9672L46.7656 37.9662L46.7667 37.9651C46.7707 37.9614 46.7794 37.9529 46.7913 37.9412C46.815 37.9176 46.8536 37.8783 46.9036 37.8239C47.0038 37.7148 47.1487 37.5461 47.3121 37.3223C47.6402 36.8728 48.0331 36.2139 48.294 35.3794C48.8 33.7616 48.8586 31.34 46.6347 28.2903L46.6328 28.2878L46.6322 28.287L46.6242 28.2762C46.6159 28.2651 46.6015 28.2462 46.5812 28.2204C46.5406 28.1687 46.4766 28.0895 46.3898 27.9894C46.216 27.7888 45.953 27.5065 45.6073 27.1939C44.912 26.5651 43.9065 25.8361 42.6413 25.3873C41.3891 24.943 39.8647 24.7658 38.0866 25.2527C36.2987 25.7424 34.1896 26.9217 31.8127 29.2987L31.1055 30.0058L30.3984 29.2987C28.0215 26.9217 25.9124 25.7424 24.1245 25.2527C22.3464 24.7658 20.822 24.943 19.5698 25.3873C18.3046 25.8361 17.2991 26.5651 16.6038 27.1939C16.2581 27.5065 15.9951 27.7888 15.8213 27.9894C15.7345 28.0895 15.6705 28.1687 15.6299 28.2204C15.6096 28.2462 15.5952 28.2651 15.5869 28.2762L15.5789 28.287C15.5788 28.287 15.5783 28.2878 15.5783 28.2878Z" fill="#3A3A3C"/>
<path fill-rule="evenodd" clip-rule="evenodd" d="M31.1056 0.882812L62.211 16.3825V38.4532L61.211 38.4418C62.211 38.4532 62.211 38.4537 62.211 38.4543L62.2109 38.4604L62.2106 38.4744L62.2095 38.5224C62.2084 38.5632 62.2065 38.6215 62.2033 38.6965C62.1968 38.8466 62.185 39.0637 62.1634 39.3417C62.1203 39.8975 62.0382 40.6973 61.8819 41.6917C61.5695 43.6797 60.9598 46.451 59.7699 49.6087C57.3879 55.9295 52.6783 63.8013 43.3887 70.0155L43.3872 70.0164L31.1056 78.2018L18.8239 70.0164L18.8225 70.0155C9.53279 63.8013 4.82316 55.9295 2.44123 49.6087C1.25127 46.451 0.641649 43.6797 0.329214 41.6917C0.172932 40.6973 0.0907968 39.8975 0.0476671 39.3417C0.0260986 39.0637 0.014273 38.8466 0.00781065 38.6965C0.00457925 38.6215 0.00268805 38.5632 0.00159031 38.5224L0.00047034 38.4744L0.000228524 38.4604L0.000164688 38.4559L0.000144303 38.4543C0.000136793 38.4537 0.000130415 38.4532 1.00007 38.4418L0.000130415 38.4532L0 38.4418L6.52075e-05 16.3825L31.1056 0.882812ZM2.00007 38.4339L2.00011 38.4362L2.00087 38.4686C2.00168 38.4989 2.0032 38.5464 2.00596 38.6105C2.01148 38.7387 2.02195 38.9328 2.04167 39.187C2.08112 39.6953 2.15749 40.4428 2.30496 41.3812C2.60003 43.2587 3.17887 45.8946 4.31276 48.9035C6.57851 54.916 11.0581 62.4154 19.9345 68.3531L31.1056 75.7983L42.2766 68.3531C51.153 62.4154 55.6326 54.916 57.8983 48.9035C59.0322 45.8946 59.6111 43.2587 59.9061 41.3812C60.0536 40.4428 60.13 39.6953 60.1694 39.187C60.1891 38.9328 60.1996 38.7387 60.2051 38.6105C60.2079 38.5464 60.2094 38.4989 60.2102 38.4686L60.211 38.4362L60.211 38.434V17.6204L31.1056 3.11736L2.00007 17.6204V38.4339Z" fill="#3A3A3C"/>
<path fill-rule="evenodd" clip-rule="evenodd" d="M79.9114 24.1116H64.9922V22.1116H79.9114V24.1116Z" fill="#3A3A3C"/>
<path fill-rule="evenodd" clip-rule="evenodd" d="M74.9931 29.1942H64.9922V27.1942H74.9931V29.1942Z" fill="#3A3A3C"/>
<path fill-rule="evenodd" clip-rule="evenodd" d="M69.9927 34.1947H64.9922V32.1947H69.9927V34.1947Z" fill="#3A3A3C"/>
<path d="M58.6012 75.9178C68.3898 75.9178 76.322 67.9855 76.322 58.197C76.322 48.4153 68.3898 40.483 58.6012 40.483C48.8126 40.483 40.8804 48.4153 40.8804 58.197C40.8804 67.9855 48.8126 75.9178 58.6012 75.9178Z" fill="white"/>
<path fill-rule="evenodd" clip-rule="evenodd" d="M39.8804 58.197C39.8804 47.8627 48.2606 39.483 58.6012 39.483C68.9418 39.483 77.322 47.8627 77.322 58.197C77.322 68.5378 68.9421 76.9178 58.6012 76.9178C48.2604 76.9178 39.8804 68.5378 39.8804 58.197ZM58.6012 41.483C49.3647 41.483 41.8804 48.9678 41.8804 58.197C41.8804 67.4333 49.3649 74.9178 58.6012 74.9178C67.8375 74.9178 75.322 67.4333 75.322 58.197C75.322 48.9678 67.8377 41.483 58.6012 41.483Z" fill="#3A3A3C"/>
<path d="M70.6229 53.3473L65.5608 48.2852L54.9228 58.93L50.806 54.8131L45.7439 59.8821L54.1762 68.3144L54.9228 69.0542L70.6229 53.3473Z" fill="#42B650"/>
<path fill-rule="evenodd" clip-rule="evenodd" d="M65.5605 46.8707L72.0369 53.3471L54.9262 70.4653L53.4723 69.0247L53.469 69.0215L44.3301 59.8826L50.8055 53.3985L54.9226 57.5155L65.5605 46.8707ZM65.561 49.6996L54.923 60.3444L50.8065 56.2279L47.1576 59.8816L54.88 67.604L54.8833 67.6073L54.9194 67.6431L69.2088 53.3474L65.561 49.6996Z" fill="#3A3A3C"/>
</svg>
