<svg width="71" height="77" viewBox="0 0 71 77" fill="none" xmlns="http://www.w3.org/2000/svg">
<path d="M50.7179 6.28912V56.7475C50.7179 59.6037 48.2849 61.9309 45.4288 61.9309H15.1749C12.3188 61.9309 9.99155 59.6037 9.99155 56.7475V6.28912C9.99155 3.43299 12.3188 1 15.1749 1H45.4288C48.2849 1 50.7179 3.43299 50.7179 6.28912Z" fill="#F4ECBE"/>
<path fill-rule="evenodd" clip-rule="evenodd" d="M15.1749 2C12.897 2 10.9915 3.95891 10.9915 6.28912V56.7475C10.9915 59.0514 12.871 60.9309 15.1749 60.9309H45.4288C47.759 60.9309 49.7179 59.0254 49.7179 56.7475V6.28912C49.7179 3.98528 47.7326 2 45.4288 2H15.1749ZM8.99155 6.28912C8.99155 2.90707 11.7405 0 15.1749 0H45.4288C48.8372 0 51.7179 2.8807 51.7179 6.28912V56.7475C51.7179 60.1819 48.8108 62.9309 45.4288 62.9309H15.1749C11.7665 62.9309 8.99155 60.1559 8.99155 56.7475V6.28912Z" fill="#3A3A3C"/>
<path d="M35.3794 76L29.9845 67.1142C28.7151 65.2101 29.3498 62.6713 31.2539 61.4019C33.158 60.1325 35.6968 60.7672 36.9661 62.6713L38.976 65.8448V43.2073C38.976 41.0917 40.7743 39.2933 42.9958 39.2933C45.2172 39.2933 46.9097 41.0917 46.9097 43.2073V63.7292V58.1227C46.9097 56.1128 48.6022 54.4203 50.7179 54.4203C52.7278 54.4203 54.4203 56.1128 54.4203 58.1227V64.0465" fill="white"/>
<path d="M63.4119 51.7757H59.0748V47.2271H63.4119V51.7757Z" fill="#42B650"/>
<path d="M67.9605 28.7151L61.2962 22.0508L54.6319 28.7151H59.0747V42.6784H63.4118V28.7151H67.9605Z" fill="#42B650"/>
<path d="M42.1495 28.0804C42.1495 34.639 36.8604 39.9281 30.3018 39.9281C23.7433 39.9281 18.4542 34.639 18.4542 28.0804C18.4542 21.5219 23.7433 16.2328 30.3018 16.2328C36.8604 16.2328 42.1495 21.5219 42.1495 28.0804Z" fill="#EEE063"/>
<path d="M42.1495 28.0804C42.1495 34.639 36.8604 39.9281 30.3018 39.9281C23.7433 39.9281 18.4542 34.639 18.4542 28.0804C18.4542 21.5219 23.7433 16.2328 30.3018 16.2328C36.8604 16.2328 42.1495 21.5219 42.1495 28.0804Z" fill="#EEE063"/>
<path d="M8.82794 59.9209L16.5501 46.9096C17.7137 45.0056 20.2525 44.3708 22.1566 45.5345C24.0607 46.6981 24.6954 49.2369 23.426 51.141L17.7137 60.7672C17.7137 60.7672 21.6277 65.8448 21.6277 69.4414V75.9999" fill="white"/>
<path fill-rule="evenodd" clip-rule="evenodd" d="M30.3018 17.2328C24.2956 17.2328 19.4542 22.0742 19.4542 28.0804C19.4542 34.0867 24.2956 38.9281 30.3018 38.9281C36.3081 38.9281 41.1495 34.0867 41.1495 28.0804C41.1495 22.0742 36.3081 17.2328 30.3018 17.2328ZM17.4542 28.0804C17.4542 20.9696 23.191 15.2328 30.3018 15.2328C37.4127 15.2328 43.1495 20.9696 43.1495 28.0804C43.1495 35.1913 37.4127 40.9281 30.3018 40.9281C23.191 40.9281 17.4542 35.1913 17.4542 28.0804Z" fill="#3A3A3C"/>
<path fill-rule="evenodd" clip-rule="evenodd" d="M30.3018 17.2328C24.2956 17.2328 19.4542 22.0742 19.4542 28.0804C19.4542 34.0867 24.2956 38.9281 30.3018 38.9281C36.3081 38.9281 41.1495 34.0867 41.1495 28.0804C41.1495 22.0742 36.3081 17.2328 30.3018 17.2328ZM17.4542 28.0804C17.4542 20.9696 23.191 15.2328 30.3018 15.2328C37.4127 15.2328 43.1495 20.9696 43.1495 28.0804C43.1495 35.1913 37.4127 40.9281 30.3018 40.9281C23.191 40.9281 17.4542 35.1913 17.4542 28.0804Z" fill="#3A3A3C"/>
<path d="M32.7349 51.7758H27.9746C26.4937 51.7758 25.2243 52.9394 25.2243 54.4203C25.2243 55.9013 26.4937 57.0649 27.9746 57.0649H32.7349C34.2158 57.0649 35.3794 55.9013 35.3794 54.4203C35.3794 52.9394 34.2158 51.7758 32.7349 51.7758Z" fill="#3A3A3C"/>
<path fill-rule="evenodd" clip-rule="evenodd" d="M37.976 43.2073C37.976 40.5221 40.2395 38.2933 42.9958 38.2933C45.7871 38.2933 47.9098 40.5571 47.9098 43.2073V63.7292H45.9098V43.2073C45.9098 41.6262 44.6474 40.2933 42.9958 40.2933C41.3093 40.2933 39.976 41.6612 39.976 43.2073V65.8448H37.976V43.2073Z" fill="#3A3A3C"/>
<path fill-rule="evenodd" clip-rule="evenodd" d="M45.9097 58.1227C45.9097 55.5423 48.0684 53.4203 50.7179 53.4203C53.2801 53.4203 55.4203 55.5605 55.4203 58.1227V64.0465H53.4203V58.1227C53.4203 56.6651 52.1755 55.4203 50.7179 55.4203C49.1362 55.4203 47.9097 56.6833 47.9097 58.1227H45.9097Z" fill="#3A3A3C"/>
<path fill-rule="evenodd" clip-rule="evenodd" d="M53.4203 59.3921C53.4203 56.8299 55.5605 54.6897 58.1227 54.6897C60.8092 54.6897 62.8251 56.8487 62.8251 59.3921V64.3639H60.8251V59.3921C60.8251 57.9157 59.6675 56.6897 58.1227 56.6897C56.6651 56.6897 55.4203 57.9345 55.4203 59.3921V61.9309H53.4203V59.3921Z" fill="#3A3A3C"/>
<path fill-rule="evenodd" clip-rule="evenodd" d="M60.8251 60.6615C60.8251 58.0993 62.9653 55.9591 65.5275 55.9591C68.177 55.9591 70.3357 58.0811 70.3357 60.6615V76H68.3357V60.6615C68.3357 59.2221 67.1093 57.9591 65.5275 57.9591C64.0699 57.9591 62.8251 59.2039 62.8251 60.6615V62.6714H60.8251V60.6615Z" fill="#3A3A3C"/>
<path fill-rule="evenodd" clip-rule="evenodd" d="M30.6992 60.5699C33.1082 58.9639 36.2537 59.7999 37.7982 62.1167L37.8047 62.1264L39.8208 65.3098L38.1312 66.3799L36.128 63.217C35.1319 61.733 33.2048 61.3032 31.8086 62.234C30.3172 63.2283 29.8838 65.1604 30.8165 66.5595L30.8283 66.5772L36.2342 75.481L34.5246 76.519L29.1401 67.6503C27.5507 65.2437 28.3883 62.1105 30.6992 60.5699Z" fill="#3A3A3C"/>
<path fill-rule="evenodd" clip-rule="evenodd" d="M17.4065 47.4259L9.68789 60.4313L7.96799 59.4105L15.6967 46.3881C17.1433 44.021 20.2945 43.2246 22.678 44.6811C25.0383 46.1235 25.8504 49.2789 24.2733 51.6726L18.9108 60.7094C18.9827 60.8105 19.0624 60.9242 19.1486 61.0491C19.5272 61.5982 20.0328 62.3702 20.5398 63.2608C21.5241 64.99 22.6277 67.3588 22.6277 69.4413V75.9999H20.6277V69.4413C20.6277 67.9272 19.7743 65.9589 18.8016 64.2502C18.3301 63.4219 17.8572 62.6996 17.502 62.1843C17.3247 61.9272 17.1775 61.7228 17.0756 61.5839C17.0247 61.5145 16.9851 61.4615 16.9588 61.4266L16.9296 61.388L16.9229 61.3792L16.9217 61.3776L16.5075 60.8403L22.5794 50.6081L22.5939 50.5862C23.5351 49.1745 23.0754 47.2679 21.6351 46.3877C20.2121 45.5181 18.2886 45.9889 17.4065 47.4259Z" fill="#3A3A3C"/>
<path fill-rule="evenodd" clip-rule="evenodd" d="M8.64768 35.3403L8.53849 35.5916C8.4425 35.8122 8.30369 36.1304 8.13219 36.5215C7.78925 37.3034 7.31533 38.3772 6.79154 39.5441C5.74947 41.8657 4.49248 44.5955 3.6798 46.1125C2.96145 47.4534 2.53414 49.1546 2.28954 50.5707C2.16887 51.2693 2.0958 51.8794 2.05303 52.3134C2.03168 52.5301 2.01795 52.7021 2.00965 52.8184C2.0055 52.8765 2.0027 52.9206 2.00099 52.9494L2 52.9667V75.9999H0V52.9149L0.0011878 52.8906L1 52.9393C0.0011878 52.8906 0.00117821 52.8908 0.0011878 52.8906L0.00129139 52.8885L0.0014782 52.8848L0.00211495 52.8727L0.00453615 52.8303C0.00669628 52.7941 0.00999844 52.7422 0.0147319 52.6759C0.0241957 52.5434 0.0393994 52.3534 0.0626723 52.1173C0.109157 51.6455 0.188155 50.9862 0.318724 50.2303C0.576597 48.7374 1.04845 46.7891 1.91684 45.1681C2.6909 43.7232 3.9198 41.058 4.96692 38.7251C5.48774 37.5648 5.95924 36.4965 6.30059 35.7182C6.47123 35.3291 6.60927 35.0126 6.70459 34.7936L6.8521 34.4538L7.77009 34.8504C6.93804 34.2957 6.93817 34.2955 6.9383 34.2953L6.93926 34.2939L6.94095 34.2914L6.94574 34.2843L6.9609 34.2621C6.97342 34.2439 6.99076 34.219 7.01254 34.1885C7.056 34.1276 7.11766 34.0435 7.19437 33.9451C7.34564 33.7508 7.56533 33.4877 7.82765 33.2334C8.08163 32.9871 8.42132 32.7037 8.817 32.5175C9.21605 32.3298 9.79553 32.188 10.3977 32.4557L9.5854 34.2833C9.65683 34.315 9.70826 34.3088 9.72005 34.3065C9.71412 34.3082 9.69769 34.3135 9.66858 34.3272C9.55849 34.379 9.40232 34.4923 9.21994 34.6692C9.04591 34.8379 8.88874 35.0244 8.77225 35.174C8.71954 35.2417 8.67723 35.2991 8.64768 35.3403ZM7.77009 34.8504L6.9383 34.2953L6.88802 34.3707L6.8521 34.4538L7.77009 34.8504ZM9.72262 34.3059C9.7226 34.306 9.72173 34.3062 9.72005 34.3065Z" fill="#3A3A3C"/>
<path fill-rule="evenodd" clip-rule="evenodd" d="M60.5891 21.3437C60.9796 20.9532 61.6128 20.9532 62.0033 21.3437L68.6676 28.008C68.9536 28.294 69.0392 28.7241 68.8844 29.0978C68.7296 29.4714 68.365 29.7151 67.9605 29.7151H64.4118V42.6784C64.4118 43.2307 63.9641 43.6784 63.4118 43.6784H59.0747C58.5225 43.6784 58.0747 43.2307 58.0747 42.6784V29.7151H54.6319C54.2274 29.7151 53.8628 29.4714 53.708 29.0978C53.5532 28.7241 53.6388 28.294 53.9248 28.008L60.5891 21.3437ZM61.2962 23.465L57.0461 27.7151H59.0747C59.627 27.7151 60.0747 28.1628 60.0747 28.7151V41.6784H62.4118V28.7151C62.4118 28.1628 62.8596 27.7151 63.4118 27.7151H65.5463L61.2962 23.465Z" fill="#3A3A3C"/>
<path fill-rule="evenodd" clip-rule="evenodd" d="M58.0748 47.2271C58.0748 46.6748 58.5225 46.2271 59.0748 46.2271H63.4119C63.9642 46.2271 64.4119 46.6748 64.4119 47.2271V51.7757C64.4119 52.328 63.9642 52.7757 63.4119 52.7757H59.0748C58.5225 52.7757 58.0748 52.328 58.0748 51.7757V47.2271ZM60.0748 48.2271V50.7757H62.4119V48.2271H60.0748Z" fill="#3A3A3C"/>
<path fill-rule="evenodd" clip-rule="evenodd" d="M16.9732 7.60657H14.9633V5.60657H16.9732V7.60657Z" fill="#3A3A3C"/>
<path fill-rule="evenodd" clip-rule="evenodd" d="M31.1481 7.60657H18.9831V5.60657H31.1481V7.60657Z" fill="#3A3A3C"/>
<path d="M30.8307 35.3794L25.6474 29.0324L25.5416 27.763H28.1861C28.8914 27.763 29.4555 27.6572 29.8787 27.4457C30.3723 27.3046 30.7602 27.0226 31.0423 26.5994C31.2538 26.2468 31.3596 25.7532 31.3596 25.1185C31.3596 24.2722 31.1128 23.6023 30.6191 23.1086C30.055 22.615 29.244 22.3681 28.1861 22.3681H25.4358L25.9647 20.7814H28.1861C29.385 20.7814 30.337 20.9577 31.0423 21.3103C31.818 21.6629 32.3822 22.1918 32.7348 22.897C33.0874 23.5317 33.2637 24.2722 33.2637 25.1185C33.2637 25.8942 33.0874 26.5994 32.7348 27.2341C32.4527 27.8688 31.9238 28.3977 31.1481 28.8209C30.4428 29.1735 29.4908 29.3498 28.2919 29.3498L33.0522 35.2736V35.3794H30.8307ZM35.2736 24.1664L34.7447 25.8589H25.4358L25.9647 24.1664H35.2736ZM35.2736 20.7814L34.7447 22.3681H27.4457L27.9746 20.7814H35.2736Z" fill="#3A3A3C"/>
</svg>
