<svg width="21" height="24" viewBox="0 0 21 24" fill="none" xmlns="http://www.w3.org/2000/svg">
<path d="M1.71198 19.1225C1.80888 19.3163 1.74428 19.5424 1.55047 19.6393C1.35666 19.7362 1.13055 19.6716 1.03365 19.4778C0.678331 18.8641 0.452221 18.218 0.258412 17.5074C0.0969044 16.8614 0 16.1507 0 15.4401C0 13.8896 0.419919 12.4361 1.09825 11.2086C1.84118 9.91655 2.90713 8.8183 4.16689 8.07537C5.78197 7.04172 6.5895 8.07537 6.68641 8.17227C6.81561 8.33378 7.72005 9.59354 5.94347 10.6595C5.07133 11.144 4.3607 11.8223 3.87618 12.6622C3.39166 13.4697 3.13324 14.4065 3.13324 15.4401C3.13324 16.926 3.74697 18.2826 4.74832 19.284C5.71736 20.2853 7.07402 20.8668 8.59219 20.8668C9.43203 20.8668 10.2073 20.7052 10.8856 20.3822C11.6285 20.0269 12.2746 19.5424 12.7914 18.9287C14.0188 17.5397 14.891 18.1211 15.0525 18.2503C15.214 18.3795 16.2476 19.1548 15.6016 20.3822L15.5693 20.4145C14.7941 21.5128 13.7281 22.4495 12.5007 23.0633C11.3378 23.677 10.0135 24 8.59219 24C7.30013 24 6.07268 23.7093 4.97443 23.2248C3.84388 22.6756 2.81023 21.9004 2.03499 20.9637C1.87349 20.8022 1.90579 20.5437 2.06729 20.4145C2.2288 20.2853 2.48721 20.2853 2.61642 20.4468C3.32705 21.319 4.2638 22.0296 5.29744 22.5141C6.29879 22.9664 7.42934 23.2248 8.59219 23.2248C9.88425 23.2248 11.0794 22.9341 12.1454 22.3849C13.2759 21.8035 14.2127 20.996 14.9233 19.9946C15.2786 19.3163 14.6003 18.8964 14.6003 18.8964C14.568 18.8964 14.568 18.8641 14.5357 18.8641C14.5357 18.8641 14.1804 18.5087 13.3728 19.4132C12.7914 20.1238 12.0485 20.6729 11.2409 21.0606C10.4334 21.4482 9.52894 21.642 8.59219 21.642C6.88022 21.642 5.29744 20.9637 4.19919 19.8331C3.06864 18.7026 2.35801 17.1521 2.35801 15.4401C2.35801 14.2773 2.68102 13.2113 3.23015 12.2746C3.77927 11.3055 4.58681 10.5303 5.55585 9.98116C6.5572 9.36743 6.13728 8.7537 6.07268 8.6568C6.07268 8.6568 6.07268 8.6568 6.04038 8.6245C6.04038 8.6245 5.65276 8.04307 4.58681 8.7214H4.55451C3.42396 9.43203 2.45491 10.4011 1.77658 11.5962C1.13055 12.7268 0.775236 14.0188 0.775236 15.4401C0.775236 16.0861 0.87214 16.7322 1.00135 17.3459C1.16285 17.9596 1.38896 18.5734 1.71198 19.1225ZM8.55989 11.0794C8.55989 11.3055 8.39839 11.467 8.17227 11.467C7.94616 11.467 7.78466 11.3055 7.78466 11.0794V7.46164C7.78466 6.88022 8.04307 6.29879 8.43069 5.91117C8.85061 5.52355 9.39973 5.26514 10.0135 5.26514C10.6272 5.26514 11.1763 5.52355 11.5639 5.91117C11.5639 5.91117 11.5962 5.91117 11.5962 5.94347C11.9838 6.33109 12.21 6.88022 12.21 7.46164V7.72005H16.0538C16.4415 7.72005 16.8291 7.88156 17.0875 8.13997C17.3782 8.43069 17.5397 8.786 17.5397 9.20592C17.5397 9.62584 17.3782 9.98116 17.0875 10.2719C16.8291 10.5303 16.4415 10.6918 16.0538 10.6918H16.0215H12.3069V13.2113H16.3445C17.5397 13.2113 17.9596 14.0834 18.4118 15.0202L18.5411 15.2463L19.2194 16.603C19.284 16.7968 19.2194 17.0229 19.0256 17.1198C18.8318 17.2167 18.6057 17.1198 18.5087 16.926L17.8304 15.5693L17.7335 15.3755C17.3782 14.6649 17.0552 13.9542 16.3445 13.9542H11.9192H11.5316V13.5666V10.3042C11.5316 10.1104 11.7254 9.91655 11.9192 9.91655H16.0215H16.0538C16.2476 9.91655 16.4092 9.85195 16.5384 9.72275C16.6676 9.59354 16.7645 9.39973 16.7645 9.20592C16.7645 9.01211 16.6676 8.8183 16.5384 8.6891C16.4092 8.55989 16.2476 8.49529 16.0538 8.49529H11.8223C11.6285 8.49529 11.4347 8.30148 11.4347 8.10767V7.46164C11.4347 7.07402 11.3055 6.71871 11.0471 6.4603H11.0148C10.7564 6.20188 10.4011 6.04038 10.0135 6.04038C9.59354 6.04038 9.23822 6.20188 8.97981 6.4603C8.7214 6.71871 8.55989 7.07402 8.55989 7.46164V11.0794ZM10.0135 0C10.6272 0 11.1763 0.258412 11.5639 0.64603C11.9838 1.06595 12.21 1.61507 12.21 2.2288C12.21 2.84253 11.9838 3.39166 11.5639 3.77927C11.1763 4.19919 10.6272 4.4576 10.0135 4.4576C9.39973 4.4576 8.85061 4.19919 8.43069 3.77927C8.04307 3.39166 7.78466 2.84253 7.78466 2.2288C7.78466 1.61507 8.04307 1.06595 8.43069 0.64603C8.85061 0.258412 9.39973 0 10.0135 0ZM11.0148 1.19515C10.7564 0.936743 10.4011 0.775236 10.0135 0.775236C9.59354 0.775236 9.23822 0.936743 8.97981 1.19515C8.7214 1.45357 8.55989 1.84118 8.55989 2.2288C8.55989 2.61642 8.7214 2.97174 8.97981 3.23015C9.23822 3.52086 9.59354 3.68237 10.0135 3.68237C10.4011 3.68237 10.7564 3.52086 11.0148 3.23015C11.2732 2.97174 11.4347 2.61642 11.4347 2.2288C11.4347 1.84118 11.2732 1.45357 11.0148 1.19515ZM10.0135 16.183C9.39973 16.183 8.85061 15.9246 8.43069 15.537C8.04307 15.1494 7.78466 14.568 7.78466 13.9542V12.5976C7.78466 12.4038 7.94616 12.21 8.17227 12.21C8.39839 12.21 8.55989 12.4038 8.55989 12.5976V13.9542C8.55989 14.3742 8.7214 14.7295 8.97981 14.9879C9.23822 15.2463 9.59354 15.4078 10.0135 15.4078H14.7941C15.4078 15.4078 15.8923 15.6339 16.3122 16.0215C16.6999 16.3769 16.9583 16.8937 17.1844 17.5074C17.5074 18.4764 18.1857 20.4468 18.1857 20.4468C18.1857 20.4468 18.4118 21.1252 19.284 20.8345C20.0592 20.5437 19.5747 19.8008 19.5747 19.8008L19.5424 19.7685V19.7362L19.0256 18.4764C18.961 18.2826 19.0579 18.0565 19.2517 17.9596C19.4455 17.895 19.6716 17.9919 19.7362 18.1857L20.2207 19.4132C20.3822 19.6393 21.0929 20.996 19.5424 21.5451C17.9596 22.1265 17.4751 20.7052 17.4751 20.7052C17.4751 20.7052 16.7645 18.7026 16.4415 17.7335C16.2799 17.249 16.0538 16.8291 15.7631 16.5707C15.5047 16.3122 15.1817 16.183 14.7941 16.183H10.0135ZM15.0525 18.2503C15.0525 18.2826 15.0525 18.2826 15.0525 18.2826V18.2503Z" fill="#7E8490"/>
</svg>
