<svg width="78" height="77" viewBox="0 0 78 77" fill="none" xmlns="http://www.w3.org/2000/svg">
<path d="M54.7377 17.7136C54.7377 26.5994 47.5444 33.7926 38.6587 33.7926C29.7729 33.7926 22.6855 26.5994 22.6855 17.7136C22.6855 8.82788 29.7729 1.63464 38.6587 1.63464C47.5444 1.63464 54.7377 8.82788 54.7377 17.7136Z" fill="#EDE162"/>
<path fill-rule="evenodd" clip-rule="evenodd" d="M38.6587 2.63464C30.3338 2.63464 23.6855 9.37154 23.6855 17.7136C23.6855 26.0557 30.3338 32.7926 38.6587 32.7926C46.9922 32.7926 53.7377 26.0471 53.7377 17.7136C53.7377 9.38017 46.9922 2.63464 38.6587 2.63464ZM21.6855 17.7136C21.6855 8.28423 29.2121 0.634644 38.6587 0.634644C48.0967 0.634644 55.7377 8.2756 55.7377 17.7136C55.7377 27.1517 48.0967 34.7926 38.6587 34.7926C29.2121 34.7926 21.6855 27.143 21.6855 17.7136Z" fill="#3A3A3C"/>
<path fill-rule="evenodd" clip-rule="evenodd" d="M66.2679 38.3893C64.2665 38.3893 62.2961 40.4722 62.2961 43.6305C62.2961 46.7888 64.2665 48.8716 66.2679 48.8716C68.2692 48.8716 70.2397 46.7888 70.2397 43.6305C70.2397 40.4721 68.2692 38.3893 66.2679 38.3893ZM60.2961 43.6305C60.2961 39.8071 62.7685 36.3893 66.2679 36.3893C69.7672 36.3893 72.2397 39.8071 72.2397 43.6305C72.2397 47.4538 69.7672 50.8716 66.2679 50.8716C62.7685 50.8716 60.2961 47.4538 60.2961 43.6305Z" fill="#3A3A3C"/>
<path d="M72.086 42.6784C72.086 42.6784 71.557 37.0719 66.4795 37.0719C59.9209 37.0719 60.2383 43.5247 60.3441 45.2172C63.6233 45.2172 67.0084 42.0437 67.3257 40.3512C67.3257 40.3512 68.7009 42.6784 72.086 42.6784Z" fill="#838385"/>
<path d="M64.2581 51.2468L60.1325 52.3047C56.2186 53.7856 56.2186 57.2765 56.2186 57.2765C56.2186 57.2765 56.2186 60.8731 56.2186 62.354C56.2186 63.7292 57.5937 63.7292 57.5937 63.7292H66.3737H66.1621H74.9421C74.9421 63.7292 76.3173 63.7292 76.3173 62.354C76.3173 60.8731 76.3173 57.2765 76.3173 57.2765C76.3173 57.2765 76.3173 53.7856 72.4033 52.3047L68.3836 51.2468L66.4795 53.5741L64.2581 51.2468Z" fill="#E9E1A0"/>
<path fill-rule="evenodd" clip-rule="evenodd" d="M65.2581 50.8461V49.4485H63.2581V51.6474L66.4795 55.0223L69.7009 51.6474V49.4485H67.7009V50.8461L66.4795 52.1257L65.2581 50.8461Z" fill="#3A3A3C"/>
<path fill-rule="evenodd" clip-rule="evenodd" d="M64.0097 50.2782L64.5064 52.2155L60.4364 53.2591C58.7875 53.8975 58.0045 54.9245 57.6154 55.7657C57.4143 56.2006 57.3142 56.597 57.2648 56.8798C57.2403 57.0206 57.2287 57.131 57.2232 57.2011C57.2205 57.2361 57.2193 57.2607 57.2188 57.2738L57.2186 57.283V62.3541C57.2186 62.5229 57.2579 62.583 57.2655 62.5944C57.2773 62.612 57.3001 62.6363 57.3534 62.6629C57.4106 62.6915 57.4799 62.7108 57.5433 62.7214C57.5726 62.7263 57.5949 62.7283 57.6059 62.7291C57.6067 62.7292 57.6074 62.7292 57.608 62.7292H74.9278C74.9285 62.7292 74.9292 62.7292 74.9299 62.7291C74.941 62.7283 74.9632 62.7263 74.9926 62.7214C75.056 62.7108 75.1253 62.6915 75.1825 62.6629C75.2357 62.6363 75.2586 62.612 75.2704 62.5944C75.278 62.583 75.3173 62.5229 75.3173 62.3541V57.2823L75.317 57.2738C75.3165 57.2607 75.3154 57.2361 75.3126 57.2011C75.3072 57.131 75.2956 57.0206 75.271 56.8798C75.2216 56.597 75.1216 56.2006 74.9204 55.7657C74.5311 54.924 73.7475 53.8963 72.0966 53.258L68.1291 52.2139L68.6381 50.2798L72.7083 51.3509L72.7572 51.3694C74.988 52.2135 76.1502 53.6602 76.7357 54.9262C77.0238 55.5491 77.1683 56.118 77.2412 56.536C77.2778 56.7456 77.2968 56.9195 77.3066 57.0461C77.3116 57.1095 77.3142 57.1613 77.3156 57.2001C77.3164 57.2195 77.3168 57.2357 77.317 57.2485L77.3172 57.2651L77.3173 57.2714L77.3173 57.2741L77.3173 57.2754C77.3173 57.2759 77.3173 57.2765 76.3173 57.2765L77.3173 57.2765V62.3541C77.3173 62.8728 77.1847 63.3284 76.9345 63.7038C76.6884 64.0729 76.3675 64.3065 76.0769 64.4518C75.7903 64.5951 75.5158 64.6617 75.3214 64.6941C75.2218 64.7107 75.1367 64.7194 75.0725 64.724C75.0402 64.7263 75.0128 64.7276 74.9909 64.7284L74.9622 64.7291L74.9511 64.7292L74.9463 64.7292L74.9442 64.7292L74.9431 64.7292C74.9426 64.7292 74.9421 64.7292 74.9421 63.7292V64.7292H57.5937L57.5937 63.7292C57.5937 64.7292 57.5942 64.7292 57.5937 64.7292L57.5917 64.7292L57.5895 64.7292L57.5848 64.7292L57.5737 64.7291L57.545 64.7284C57.5231 64.7276 57.4957 64.7263 57.4634 64.724C57.3992 64.7194 57.314 64.7107 57.2145 64.6941C57.02 64.6617 56.7455 64.5951 56.4589 64.4518C56.1684 64.3065 55.8475 64.0729 55.6014 63.7038C55.3511 63.3284 55.2186 62.8728 55.2186 62.3541V57.2769L56.2186 57.2765C55.2186 57.2765 55.2186 57.2759 55.2186 57.2754L55.2186 57.2741L55.2186 57.2714L55.2186 57.2651L55.2188 57.2485C55.2191 57.2357 55.2195 57.2195 55.2202 57.2001C55.2216 57.1613 55.2243 57.1095 55.2292 57.0461C55.2391 56.9195 55.258 56.7456 55.2946 56.536C55.3676 56.118 55.5121 55.5491 55.8002 54.9262C56.3857 53.6602 57.5478 52.2135 59.7786 51.3694L59.8305 51.3498L64.0097 50.2782Z" fill="#3A3A3C"/>
<path d="M68.4894 55.4781C67.4316 55.4781 66.5853 56.2186 66.4795 57.1707C66.268 56.2186 65.4217 55.4781 64.3639 55.4781C63.3061 55.4781 62.354 56.4302 62.354 57.5938C62.354 58.0875 62.495 58.4753 62.7771 58.7574C63.0945 59.2863 65.3159 61.8251 66.4795 61.8251C67.4316 61.8251 69.8646 59.2863 70.1819 58.6516C70.3935 58.3695 70.4993 58.0169 70.4993 57.5938C70.4993 56.4302 69.653 55.4781 68.4894 55.4781Z" fill="#3DB54F"/>
<path fill-rule="evenodd" clip-rule="evenodd" d="M61.354 57.5938C61.354 55.9113 62.721 54.4781 64.3639 54.4781C65.1659 54.4781 65.8846 54.7702 66.4338 55.2453C66.9788 54.7637 67.7065 54.4781 68.4894 54.4781C70.2714 54.4781 71.4993 55.9464 71.4993 57.5938C71.4993 58.1619 71.3611 58.7118 71.0303 59.1849C70.875 59.4581 70.6101 59.7846 70.3546 60.0754C70.0446 60.4281 69.6577 60.8289 69.2502 61.2083C68.8458 61.5847 68.4006 61.9595 67.9749 62.2471C67.7623 62.3908 67.5355 62.5257 67.3066 62.6279C67.0912 62.7241 66.8003 62.8251 66.4795 62.8251C65.8807 62.8251 65.3147 62.5232 64.9077 62.2573C64.4619 61.9659 64.0169 61.5881 63.6236 61.2159C62.924 60.5538 62.2685 59.7934 61.9876 59.3779C61.536 58.8784 61.354 58.2475 61.354 57.5938ZM64.3639 56.4781C63.8911 56.4781 63.354 56.9491 63.354 57.5938C63.354 57.889 63.4321 57.9982 63.4842 58.0503C63.5421 58.1081 63.5926 58.1728 63.6346 58.2429C63.6346 58.2428 63.6374 58.2476 63.6444 58.258C63.6511 58.2681 63.6603 58.2815 63.6724 58.2983C63.6965 58.3323 63.7286 58.3753 63.7689 58.4271C63.8494 58.5306 63.9551 58.6592 64.0812 58.8045C64.3337 59.0956 64.655 59.4383 64.9984 59.7633C65.3456 60.0919 65.6939 60.3819 66.0018 60.5831C66.2516 60.7463 66.3982 60.8 66.4543 60.8172C66.4645 60.8132 66.4768 60.8081 66.4913 60.8017C66.5789 60.7625 66.7009 60.6942 66.8552 60.5899C67.1634 60.3817 67.5247 60.0821 67.8873 59.7445C68.2467 59.4099 68.587 59.0569 68.8523 58.7551C68.9849 58.6042 69.0936 58.4719 69.1741 58.3658C69.2486 58.2676 69.2798 58.2168 69.2864 58.2061C69.2876 58.204 69.288 58.2035 69.2875 58.2044C69.3143 58.1508 69.3459 58.0996 69.3819 58.0516C69.4393 57.9751 69.4993 57.8451 69.4993 57.5938C69.4993 56.914 69.0346 56.4781 68.4894 56.4781C67.8967 56.4781 67.5182 56.8785 67.4734 57.2811C67.4194 57.7671 67.0218 58.1428 66.5335 58.1692C66.0452 58.1956 65.6094 57.865 65.5033 57.3876C65.3891 56.8736 64.9333 56.4781 64.3639 56.4781Z" fill="#3A3A3C"/>
<path fill-rule="evenodd" clip-rule="evenodd" d="M62.1608 37.2907C63.2488 36.5197 64.6699 36.0719 66.4795 36.0719C69.4827 36.0719 71.175 37.7703 72.0641 39.3951C72.501 40.1936 72.7524 40.9819 72.8952 41.5642C72.9671 41.8573 73.0128 42.1037 73.0409 42.2804C73.055 42.3689 73.0647 42.4403 73.0711 42.4919C73.0743 42.5176 73.0767 42.5385 73.0784 42.554L73.0805 42.5733L73.0811 42.5799L73.0814 42.5825L73.0815 42.5835C73.0815 42.584 73.0815 42.5845 72.086 42.6784L73.0815 42.5845C73.108 42.8648 73.015 43.1433 72.8255 43.3515C72.636 43.5597 72.3675 43.6784 72.086 43.6784C70.1457 43.6784 68.7478 43.0062 67.8321 42.3115C67.7462 42.2463 67.6647 42.1811 67.5875 42.1164C67.5127 42.2251 67.4345 42.3319 67.3538 42.4364C66.8836 43.0459 66.2662 43.6602 65.5585 44.2091C64.1629 45.2914 62.2853 46.2172 60.3441 46.2172C59.816 46.2172 59.379 45.8066 59.346 45.2796C59.2931 44.4327 59.1654 42.1928 59.9837 40.1396C60.4009 39.0928 61.0773 38.0587 62.1608 37.2907Z" fill="#3A3A3C"/>
<path fill-rule="evenodd" clip-rule="evenodd" d="M5.07751 43.6305C5.07751 39.8071 7.54997 36.3893 11.0493 36.3893C14.5486 36.3893 17.0211 39.8071 17.0211 43.6305C17.0211 47.4538 14.5486 50.8716 11.0493 50.8716C7.54997 50.8716 5.07751 47.4538 5.07751 43.6305ZM11.0493 38.3893C9.04793 38.3893 7.07751 40.4721 7.07751 43.6305C7.07751 46.7888 9.04793 48.8716 11.0493 48.8716C13.0507 48.8716 15.0211 46.7888 15.0211 43.6305C15.0211 40.4722 13.0507 38.3893 11.0493 38.3893Z" fill="#3A3A3C"/>
<path d="M5.33704 42.6784C5.33704 42.6784 5.86595 37.0719 10.8377 37.0719C17.3963 37.0719 17.0789 43.5247 16.9731 45.2172C13.6939 45.2172 10.3088 42.0437 9.99147 40.3512C9.99147 40.3512 8.6163 42.6784 5.33704 42.6784Z" fill="#838385"/>
<path d="M13.165 51.2468L17.1848 52.3047C21.0987 53.7856 21.0987 57.2765 21.0987 57.2765C21.0987 57.2765 21.0987 60.8731 21.0987 62.354C21.0987 63.7292 19.7235 63.7292 19.7235 63.7292H10.9436H11.1551H2.37517C2.37517 63.7292 1 63.7292 1 62.354C1 60.8731 1 57.2765 1 57.2765C1 57.2765 1 53.7856 4.91396 52.3047L9.03949 51.2468L10.8378 53.5741L13.165 51.2468Z" fill="#E9E1A0"/>
<path fill-rule="evenodd" clip-rule="evenodd" d="M7.61639 49.4485H9.61639V50.8461L10.8545 52.1432L12.165 50.8326V49.4485H14.165V51.661L10.8212 55.0049L7.61639 51.6474V49.4485Z" fill="#3A3A3C"/>
<path fill-rule="evenodd" clip-rule="evenodd" d="M5.21782 53.2591L9.28787 52.2155L8.79112 50.2782L4.6119 51.3498L4.56007 51.3694C2.32924 52.2135 1.16713 53.6602 0.581618 54.9262C0.293523 55.5491 0.148988 56.118 0.0760464 56.536C0.0394592 56.7456 0.0204945 56.9195 0.0106519 57.0461C0.00572443 57.1095 0.00306386 57.1613 0.00163394 57.2001C0.000918627 57.2195 0.000510335 57.2357 0.000280738 57.2485L5.42402e-05 57.2651L1.15633e-05 57.2714L2.6226e-06 57.2741L6.55651e-07 57.2754C1.78814e-07 57.2759 0 57.2765 1 57.2765L0 57.2765V62.3541C0 62.8728 0.132568 63.3284 0.382818 63.7038C0.628895 64.0729 0.949839 64.3065 1.24036 64.4518C1.52697 64.5951 1.80148 64.6617 1.99589 64.6941C2.09547 64.7107 2.18064 64.7194 2.24482 64.724C2.27709 64.7263 2.30454 64.7276 2.3264 64.7284L2.35509 64.7291L2.36623 64.7292L2.37097 64.7292L2.37314 64.7292L2.37417 64.7292C2.37467 64.7292 2.37516 64.7292 2.37517 63.7292L2.37417 64.7292H19.7235V63.7292C19.7236 64.7292 19.7241 64.7292 19.7246 64.7292L19.7256 64.7292L19.7277 64.7292L19.7325 64.7292L19.7436 64.7291L19.7723 64.7284C19.7942 64.7276 19.8216 64.7263 19.8539 64.724C19.9181 64.7194 20.0033 64.7107 20.1028 64.6941C20.2972 64.6617 20.5717 64.5951 20.8584 64.4518C21.1489 64.3065 21.4698 64.0729 21.7159 63.7038C21.9662 63.3284 22.0987 62.8728 22.0987 62.3541V57.2769L21.0987 57.2765C22.0987 57.2765 22.0987 57.2759 22.0987 57.2754L22.0987 57.2741L22.0987 57.2714L22.0987 57.2651L22.0984 57.2485C22.0982 57.2357 22.0978 57.2195 22.0971 57.2001C22.0957 57.1613 22.093 57.1095 22.0881 57.0461C22.0782 56.9195 22.0593 56.7456 22.0227 56.536C21.9497 56.118 21.8052 55.5491 21.5171 54.9262C20.9316 53.6602 19.7695 52.2135 17.5387 51.3694L17.4898 51.3509L13.4195 50.2798L12.9105 52.2139L16.878 53.258C18.5289 53.8963 19.3126 54.924 19.7018 55.7657C19.903 56.2006 20.0031 56.597 20.0525 56.8798C20.077 57.0206 20.0886 57.131 20.0941 57.2011C20.0968 57.2361 20.098 57.2607 20.0984 57.2738L20.0987 57.2823V57.2834V62.3541C20.0987 62.5229 20.0594 62.583 20.0518 62.5944C20.04 62.612 20.0172 62.6363 19.9639 62.6629C19.9067 62.6915 19.8374 62.7108 19.774 62.7214C19.7447 62.7263 19.7224 62.7283 19.7114 62.7291C19.7106 62.7292 19.7099 62.7292 19.7093 62.7292H2.38945C2.38881 62.7292 2.38811 62.7292 2.38735 62.7291C2.37633 62.7283 2.35406 62.7263 2.32472 62.7214C2.26129 62.7108 2.192 62.6915 2.13481 62.6629C2.08154 62.6363 2.05869 62.612 2.04692 62.5944C2.03933 62.583 2 62.5229 2 62.3541V57.2834L2.00028 57.2738C2.00076 57.2607 2.00192 57.2361 2.00464 57.2011C2.01008 57.131 2.0217 57.0206 2.04627 56.8798C2.09563 56.597 2.19572 56.2006 2.39687 55.7657C2.78594 54.9245 3.56893 53.8975 5.21782 53.2591Z" fill="#3A3A3C"/>
<path d="M8.82793 55.4781C9.88576 55.4781 10.732 56.2186 10.9436 57.1707C11.0494 56.2186 11.8956 55.4781 12.9535 55.4781C14.1171 55.4781 14.9633 56.4302 14.9633 57.5938C14.9633 58.0875 14.8575 58.4753 14.646 58.7574C14.2228 59.2863 12.0014 61.8251 10.9436 61.8251C9.88576 61.8251 7.45275 59.2863 7.13541 58.6516C6.92384 58.3695 6.81805 58.0169 6.81805 57.5938C6.81805 56.4302 7.7701 55.4781 8.82793 55.4781Z" fill="#3DB54F"/>
<path fill-rule="evenodd" clip-rule="evenodd" d="M8.82793 56.4781C8.35517 56.4781 7.81805 56.9491 7.81805 57.5938C7.81805 57.8451 7.87804 57.9751 7.93541 58.0516C7.9714 58.0996 8.003 58.1508 8.02983 58.2044C8.02933 58.2034 8.02967 58.204 8.03098 58.2061C8.03757 58.2168 8.06868 58.2675 8.14281 58.365C8.22318 58.4707 8.33186 58.6025 8.46484 58.753C8.73074 59.0539 9.07293 59.4055 9.43697 59.7387C9.80423 60.0748 10.1726 60.3727 10.4915 60.5798C10.75 60.7477 10.8935 60.8007 10.9387 60.8174C10.9395 60.8177 10.9402 60.818 10.9409 60.8182C10.9803 60.8029 11.1105 60.7531 11.3481 60.5922C11.648 60.389 11.9937 60.0962 12.3454 59.7633C13.0318 59.1137 13.6496 58.3995 13.852 58.149C13.8924 58.0903 13.9633 57.9377 13.9633 57.5938C13.9633 56.914 13.4987 56.4781 12.9535 56.4781C12.3607 56.4781 11.9822 56.8785 11.9375 57.2811C11.8835 57.7671 11.4859 58.1428 10.9976 58.1692C10.5093 58.1956 10.0735 57.865 9.9674 57.3876C9.85317 56.8736 9.39736 56.4781 8.82793 56.4781ZM5.81805 57.5938C5.81805 55.9113 7.18503 54.4781 8.82793 54.4781C9.62993 54.4781 10.3487 54.7702 10.8978 55.2453C11.4428 54.7637 12.1705 54.4781 12.9535 54.4781C14.7354 54.4781 15.9633 55.9464 15.9633 57.5938C15.9633 58.2194 15.8302 58.8451 15.446 59.3574C15.4397 59.3658 15.4334 59.374 15.4268 59.3821C15.1913 59.6766 14.4992 60.4786 13.7202 61.2159C13.3314 61.5838 12.8969 61.9587 12.4696 62.2481C12.0912 62.5045 11.5342 62.8251 10.9436 62.8251C10.3621 62.8251 9.79544 62.5125 9.40231 62.2572C8.95765 61.9685 8.49955 61.592 8.08666 61.2141C7.67055 60.8332 7.27887 60.4312 6.96627 60.0775C6.70809 59.7854 6.44262 59.4587 6.28702 59.1848C5.95622 58.7118 5.81805 58.1619 5.81805 57.5938Z" fill="#3A3A3C"/>
<path fill-rule="evenodd" clip-rule="evenodd" d="M6.33254 42.7731L6.33239 42.7747L6.33248 42.7738L6.33254 42.7731ZM6.6114 41.5275C6.72725 41.1608 6.88664 40.7524 7.10371 40.3488C7.74031 39.1649 8.82678 38.0719 10.8377 38.0719C12.3074 38.0719 13.3061 38.4307 13.9999 38.9225C14.6981 39.4173 15.1656 40.1022 15.4756 40.8801C15.9133 41.9782 16.0102 43.1882 16.0108 44.1118C14.9626 43.8902 13.8981 43.3372 12.9844 42.6287C12.3963 42.1726 11.903 41.6762 11.5468 41.2146C11.1755 40.7334 11.0116 40.3658 10.9744 40.1669C10.8976 39.7574 10.575 39.4385 10.1648 39.3663C9.75713 39.2946 9.34772 39.4814 9.13462 39.8356C9.13508 39.8349 9.13524 39.8346 9.13511 39.8348L9.13377 39.837L9.13239 39.8393L9.13153 39.8408L9.13105 39.8416C9.13089 39.8419 9.13072 39.8422 9.13055 39.8424L9.99148 40.3512L9.00861 40.5355C9.10882 41.07 9.38418 41.6156 9.73332 42.1217C9.661 42.183 9.58493 42.2447 9.50504 42.3064C8.60575 43.0006 7.23233 43.6784 5.33704 43.6784C5.05549 43.6784 4.78698 43.5597 4.59747 43.3515C4.40796 43.1433 4.31502 42.8648 4.34146 42.5845L5.33704 42.6784C4.34146 42.5845 4.3415 42.584 4.34155 42.5836L4.34165 42.5825L4.34189 42.58L4.34254 42.5735L4.34456 42.5543C4.34624 42.5389 4.3486 42.5181 4.35178 42.4925C4.35814 42.4412 4.36777 42.37 4.38168 42.2817C4.40947 42.1055 4.4546 41.8597 4.52545 41.5671C4.66615 40.986 4.91342 40.199 5.34223 39.4015C6.21304 37.7821 7.87692 36.0719 10.8377 36.0719C12.6473 36.0719 14.0685 36.5197 15.1564 37.2907C16.24 38.0587 16.9163 39.0928 17.3335 40.1396C18.1518 42.1928 18.0241 44.4327 17.9712 45.2796C17.9383 45.8066 17.5012 46.2172 16.9731 46.2172C15.0319 46.2172 13.1543 45.2914 11.7588 44.2091C11.051 43.6602 10.4336 43.0459 9.96338 42.4364C9.88404 42.3336 9.80704 42.2285 9.73332 42.1217M9.13462 39.8356C9.13413 39.8364 9.13331 39.8377 9.13215 39.8395C9.12765 39.8466 9.11814 39.8612 9.1035 39.8824C9.07417 39.9248 9.02469 39.9928 8.95428 40.0781C8.81293 40.2493 8.59102 40.4854 8.28293 40.7232C7.88315 41.0318 7.33398 41.3475 6.6114 41.5275M9.13462 39.8356C9.13342 39.8376 9.13224 39.8396 9.13105 39.8416C9.13081 39.842 9.13055 39.8424 9.99148 40.3512" fill="#3A3A3C"/>
<path d="M36.1199 60.4498L30.9365 61.7192C26.0705 63.5175 26.0705 67.9604 26.0705 67.9604C26.0705 67.9604 26.0705 72.4033 26.0705 74.2016C26.0705 75.9999 27.8688 75.9999 27.8688 75.9999H38.8702H38.5529H49.4485C49.4485 75.9999 51.2468 75.9999 51.2468 74.2016C51.2468 72.4033 51.2468 67.9604 51.2468 67.9604C51.2468 67.9604 51.2468 63.5175 46.3808 61.7192L41.1974 60.4498L38.976 63.306L36.1199 60.4498Z" fill="#E9E1A0"/>
<path fill-rule="evenodd" clip-rule="evenodd" d="M35.882 59.4785L36.3577 61.4211L31.2312 62.6766C29.1173 63.4733 28.0983 64.8101 27.5888 65.9287C27.3274 66.5025 27.1969 67.0283 27.1322 67.4067C27.1 67.5951 27.0845 67.7445 27.0771 67.8418C27.0734 67.8904 27.0718 67.9257 27.071 67.9461L27.0705 67.965V74.2016C27.0705 74.4762 27.1363 74.6156 27.1835 74.6865C27.235 74.7637 27.3107 74.8276 27.4169 74.8807C27.5269 74.9357 27.6491 74.9682 27.7522 74.9854C27.8014 74.9936 27.8402 74.9973 27.8628 74.9989C27.8704 74.9995 27.8759 74.9997 27.879 74.9999H49.4383C49.4414 74.9997 49.4469 74.9995 49.4545 74.9989C49.4771 74.9973 49.5159 74.9936 49.5651 74.9854C49.6682 74.9682 49.7903 74.9357 49.9004 74.8807C50.0066 74.8276 50.0823 74.7637 50.1338 74.6865C50.181 74.6156 50.2468 74.4762 50.2468 74.2016V67.9654L50.2462 67.9461C50.2455 67.9257 50.2439 67.8904 50.2402 67.8418C50.2328 67.7445 50.2173 67.5951 50.1851 67.4067C50.1204 67.0283 49.9899 66.5025 49.7285 65.9287C49.219 64.8101 48.2 63.4733 46.0861 62.6766L40.9596 61.4211L41.4353 59.4785L46.674 60.7615L46.7274 60.7812C49.4443 61.7853 50.8457 63.5564 51.5486 65.0997C51.8955 65.8613 52.0691 66.5586 52.1564 67.0695C52.2003 67.3257 52.2228 67.5375 52.2344 67.6902C52.2402 67.7666 52.2433 67.8285 52.245 67.8741C52.2458 67.8969 52.2462 67.9156 52.2465 67.93L52.2467 67.9485L52.2468 67.9553L52.2468 67.958L52.2468 67.9593C52.2468 67.9598 52.2468 67.9604 51.2468 67.9604L52.2468 67.9604V74.2016C52.2468 74.8261 52.0878 75.361 51.7979 75.7959C51.5121 76.2245 51.1383 76.4978 50.7949 76.6695C50.4554 76.8393 50.128 76.9192 49.8939 76.9582C49.7745 76.9781 49.6728 76.9884 49.597 76.9938C49.559 76.9966 49.527 76.9981 49.502 76.9989C49.4895 76.9993 49.4787 76.9996 49.4698 76.9997L49.4577 76.9999L49.4528 76.9999L49.4505 76.9999H49.4495C49.449 76.9999 49.4485 76.9999 49.4485 75.9999V76.9999H27.8688V75.9999C27.8688 76.9999 27.8683 76.9999 27.8678 76.9999H27.8667L27.8645 76.9999L27.8596 76.9999L27.8475 76.9997C27.8386 76.9996 27.8278 76.9993 27.8153 76.9989C27.7903 76.9981 27.7583 76.9966 27.7203 76.9938C27.6445 76.9884 27.5428 76.9781 27.4234 76.9582C27.1893 76.9192 26.8619 76.8393 26.5224 76.6695C26.179 76.4978 25.8052 76.2245 25.5194 75.7959C25.2295 75.361 25.0705 74.8261 25.0705 74.2016V67.9612L26.0705 67.9604C25.0705 67.9604 25.0705 67.9598 25.0705 67.9593L25.0705 67.958L25.0705 67.9553L25.0706 67.9485L25.0708 67.93C25.0711 67.9156 25.0715 67.8969 25.0723 67.8741C25.074 67.8285 25.0771 67.7666 25.0829 67.6902C25.0945 67.5375 25.117 67.3257 25.1608 67.0695C25.2482 66.5586 25.4218 65.8613 25.7687 65.0997C26.4716 63.5564 27.873 61.7853 30.5899 60.7812L30.6433 60.7615L35.882 59.4785Z" fill="#3A3A3C"/>
<path d="M46.6981 47.5445V57.1707C46.6981 57.9112 46.0634 58.5459 45.2171 58.5459H32.4174C31.5712 58.5459 30.9365 57.9112 30.9365 57.1707V47.5445C30.9365 45.7462 31.5712 44.1594 32.5232 42.89C33.8984 40.8802 36.2256 39.7166 38.8702 39.7166C41.409 39.7166 43.7362 40.8802 45.2171 42.89C46.1692 44.1594 46.6981 45.7462 46.6981 47.5445Z" fill="#838385"/>
<path d="M44.1594 48.8139V53.2568C44.1594 54.4204 43.842 55.4782 43.1016 56.4303C42.1495 57.6997 40.5628 58.5459 38.8703 58.5459C37.072 58.5459 35.4852 57.6997 34.5332 56.4303C33.8985 55.4782 33.4753 54.4204 33.4753 53.2568V51.1411C36.6488 51.1411 39.2934 48.8139 39.8223 45.7462C39.8223 45.7462 42.3611 48.7081 44.1594 48.8139Z" fill="#FEFEFE"/>
<path fill-rule="evenodd" clip-rule="evenodd" d="M38.8702 40.7166C36.5223 40.7166 34.5192 41.7437 33.3485 43.4547L33.3362 43.4727L33.3232 43.49C32.4834 44.6097 31.9365 45.9901 31.9365 47.5445V57.1707C31.9365 57.3112 32.0745 57.5459 32.4174 57.5459H45.2171C45.56 57.5459 45.6981 57.3112 45.6981 57.1707V47.5445C45.6981 45.948 45.2309 44.575 44.4171 43.49L44.412 43.4833L44.4121 43.4832C43.1233 41.7342 41.0976 40.7166 38.8702 40.7166ZM31.7103 42.3073C33.2914 40.0098 35.9366 38.7166 38.8702 38.7166C41.7189 38.7166 44.3463 40.0248 46.0196 42.2934C47.1084 43.7466 47.6981 45.5459 47.6981 47.5445V57.1707C47.6981 58.5112 46.5667 59.5459 45.2171 59.5459H32.4174C31.0678 59.5459 29.9365 58.5112 29.9365 57.1707V47.5445C29.9365 45.5106 30.653 43.7237 31.7103 42.3073Z" fill="#3A3A3C"/>
<path fill-rule="evenodd" clip-rule="evenodd" d="M40.2857 47.656C39.2598 50.0008 37.0831 51.7198 34.4753 52.0738V53.2568C34.4753 54.1592 34.7986 55.0186 35.3495 55.8519C36.1147 56.8577 37.3972 57.5459 38.8703 57.5459C40.2373 57.5459 41.5319 56.8566 42.3016 55.8303L42.3068 55.8233L42.3122 55.8163C42.9024 55.0575 43.1594 54.2215 43.1594 53.2568V49.6079C42.8201 49.4853 42.4996 49.3209 42.2111 49.149C41.649 48.814 41.1124 48.3915 40.6572 47.9922C40.528 47.879 40.4038 47.7662 40.2857 47.656ZM40.5816 45.0954L40.5854 45.0999L40.6033 45.1204C40.6198 45.1393 40.6453 45.1681 40.6789 45.2055C40.7461 45.2803 40.8456 45.3892 40.9711 45.5209C41.2232 45.7855 41.5748 46.1368 41.9758 46.4885C42.3801 46.843 42.8153 47.1808 43.235 47.4309C43.6715 47.691 44.0033 47.803 44.2181 47.8156L45.1594 47.871V53.2568C45.1594 54.6165 44.7832 55.8938 43.8963 57.0373C42.7614 58.5459 40.8851 59.5459 38.8703 59.5459C36.7572 59.5459 34.8741 58.5515 33.7332 57.0303L33.7165 57.0081L33.7011 56.985C32.9922 55.9216 32.4753 54.6731 32.4753 53.2568V50.1411H33.4753C36.1455 50.1411 38.3878 48.1809 38.8368 45.5763L39.1981 43.4813L40.5816 45.0954Z" fill="#3A3A3C"/>
<path fill-rule="evenodd" clip-rule="evenodd" d="M37.1199 60.0358V58.5459H35.1199V60.8642L38.9895 64.7338L42.7264 60.8532V58.5459H40.7264V60.0468L38.9625 61.8784L37.1199 60.0358Z" fill="#3A3A3C"/>
<path fill-rule="evenodd" clip-rule="evenodd" d="M29.8307 76.0001V70.2878H31.8307V76.0001H29.8307Z" fill="#3A3A3C"/>
<path fill-rule="evenodd" clip-rule="evenodd" d="M45.6981 76.0001V70.2878H47.6981V76.0001H45.6981Z" fill="#3A3A3C"/>
<path d="M41.409 65.739C40.1396 65.739 39.0817 66.5853 38.8702 67.8547C38.6586 66.5853 37.6008 65.739 36.3314 65.739C34.8504 65.739 33.7926 66.9026 33.7926 68.2778C33.7926 68.9125 33.8984 69.4414 34.2157 69.8645C34.7446 70.4992 37.495 73.6727 38.8702 73.6727C40.1396 73.6727 43.1015 70.3935 43.6304 69.653C43.842 69.2299 43.9478 68.7714 43.9478 68.2778C43.9478 66.9026 42.7841 65.739 41.409 65.739Z" fill="#3DB54F"/>
<path fill-rule="evenodd" clip-rule="evenodd" d="M32.7926 68.2778C32.7926 66.3779 34.271 64.739 36.3314 64.739C37.3118 64.739 38.216 65.115 38.8702 65.7628C39.5244 65.115 40.4286 64.739 41.409 64.739C43.3364 64.739 44.9478 66.3503 44.9478 68.2778C44.9478 68.9197 44.8089 69.5321 44.5248 70.1002C44.5015 70.1469 44.4745 70.1917 44.4441 70.2342C44.1295 70.6747 43.208 71.7286 42.2149 72.6673C41.714 73.1407 41.1659 73.6127 40.6413 73.9731C40.3789 74.1533 40.1028 74.3192 39.8261 74.4431C39.5604 74.562 39.2277 74.6727 38.8702 74.6727C38.207 74.6727 37.5616 74.3196 37.0811 73.9981C36.5562 73.6469 36.0213 73.1884 35.5396 72.7342C34.5729 71.8227 33.7242 70.8368 33.4475 70.5047C33.4366 70.4916 33.426 70.4782 33.4157 70.4645C32.9113 69.792 32.7926 69.0086 32.7926 68.2778ZM36.3314 66.739C35.4298 66.739 34.7926 67.4274 34.7926 68.2778C34.7926 68.7992 34.8796 69.0731 35.0034 69.2476C35.2749 69.5718 36.0488 70.4655 36.9116 71.279C37.3555 71.6975 37.7991 72.0721 38.1932 72.3358C38.3897 72.4673 38.5552 72.5585 38.687 72.6143C38.785 72.6558 38.8412 72.6678 38.862 72.6713C38.8788 72.6673 38.926 72.6548 39.0089 72.6177C39.1392 72.5593 39.3069 72.4633 39.509 72.3245C39.9132 72.0468 40.3766 71.6528 40.8411 71.2138C41.7198 70.3832 42.4988 69.4912 42.7694 69.1356C42.8867 68.8765 42.9478 68.5944 42.9478 68.2778C42.9478 67.4549 42.2319 66.739 41.409 66.739C40.6039 66.739 39.9838 67.2556 39.8566 68.0191C39.7762 68.5013 39.359 68.8547 38.8702 68.8547C38.3813 68.8547 37.9641 68.5013 37.8838 68.0191C37.7565 67.2556 37.1364 66.739 36.3314 66.739Z" fill="#3A3A3C"/>
<path fill-rule="evenodd" clip-rule="evenodd" d="M53.1924 2.30439C53.021 2.14938 52.8455 1.99838 52.6659 1.85139L54.059 0.148682C54.2667 0.318643 54.4698 0.49339 54.6683 0.672919L55.0453 1.01398L55.0673 0.99411L55.2652 1.21292L55.484 1.41087L55.4642 1.43284L55.8052 1.80985C55.9848 2.0083 56.1595 2.2114 56.3295 2.41913L54.6268 3.81225C54.4798 3.6326 54.3288 3.4571 54.1738 3.28575L53.7076 2.77051L53.1924 2.30439Z" fill="#3A3A3C"/>
<path fill-rule="evenodd" clip-rule="evenodd" d="M58.3103 5.06396C58.906 6.00004 59.4366 6.97986 59.8964 7.99785L60.3492 9.00033L58.3442 9.90595L57.8914 8.90347C57.475 7.98149 56.9943 7.09369 56.4542 6.24509L58.3103 5.06396ZM61.5909 13.3008L61.7431 14.3902C61.8949 15.4761 61.9731 16.5856 61.9731 17.7138C61.9731 18.3426 61.9489 18.9668 61.9009 19.5854L61.8159 20.6821L59.6225 20.5121L59.7075 19.4154C59.751 18.8536 59.7731 18.286 59.7731 17.7138C59.7731 16.6874 59.702 15.6796 59.5643 14.6947L59.4121 13.6053L61.5909 13.3008ZM61.5745 22.2181L61.3166 23.2874C61.0206 24.5147 60.627 25.7065 60.1407 26.852L59.7109 27.8646L57.6858 27.0049L58.1156 25.9924C58.5543 24.959 58.9101 23.8823 59.178 22.7716L59.4358 21.7023L61.5745 22.2181ZM58.9801 29.25L58.3857 30.1756C58.0464 30.7037 57.6847 31.2171 57.3012 31.7143L55.5593 30.3705C55.904 29.9236 56.2294 29.4619 56.5346 28.9867L57.129 28.0611L58.9801 29.25Z" fill="#3A3A3C"/>
<path fill-rule="evenodd" clip-rule="evenodd" d="M56.2958 33.0477C56.124 33.2385 55.9476 33.429 55.7665 33.6192L55.4553 33.9462L55.4658 33.9573L55.2444 34.1677L55.0081 34.416L54.9957 34.4042L54.6686 34.7152C54.4839 34.8908 54.2951 35.0662 54.1024 35.2414L52.6226 33.6135C52.8034 33.4491 52.9802 33.2848 53.1527 33.1208L53.6888 32.6111L54.173 32.1024C54.3404 31.9266 54.5029 31.7511 54.6605 31.5759L56.2958 33.0477Z" fill="#3A3A3C"/>
<path fill-rule="evenodd" clip-rule="evenodd" d="M21.0613 33.0896L22.617 31.5339L24.7326 33.6496L23.177 35.2052L21.0613 33.0896Z" fill="#3A3A3C"/>
<path fill-rule="evenodd" clip-rule="evenodd" d="M21.7702 5.04092C21.4337 5.49388 21.1138 5.96192 20.8118 6.44374L20.2275 7.37577L18.3635 6.20731L18.9477 5.27528C19.2805 4.74437 19.6331 4.22847 20.0042 3.729L21.7702 5.04092ZM19.6708 8.44184L19.24 9.45397C18.7998 10.4881 18.4375 11.5641 18.1624 12.6724L17.8974 13.74L15.7622 13.21L16.0272 12.1424C16.3309 10.9189 16.7306 9.73208 17.2157 8.59233L17.6465 7.5802L19.6708 8.44184ZM17.703 14.9223L17.6134 16.0187C17.5677 16.5786 17.5443 17.1439 17.5443 17.7136C17.5443 18.74 17.6154 19.7477 17.7531 20.7326L17.9054 21.822L15.7265 22.1266L15.5743 21.0372C15.4225 19.9512 15.3443 18.8417 15.3443 17.7136C15.3443 17.0837 15.3702 16.4586 15.4207 15.8396L15.5103 14.7432L17.703 14.9223ZM18.9732 25.5214L19.426 26.5239C19.8424 27.4459 20.3231 28.3337 20.8632 29.1823L19.0071 30.3634C18.4114 29.4273 17.8808 28.4475 17.421 27.4295L16.9682 26.427L18.9732 25.5214Z" fill="#3A3A3C"/>
<path fill-rule="evenodd" clip-rule="evenodd" d="M24.6907 1.81762C24.5155 1.9753 24.34 2.13779 24.1642 2.30512L23.6555 2.78935L23.1458 3.32544C22.9818 3.49799 22.8175 3.6747 22.6531 3.85559L21.0252 2.37571C21.2004 2.183 21.3758 1.99429 21.5514 1.8096L21.8624 1.48245L21.8506 1.47005L22.0989 1.23372L22.3093 1.01238L22.3204 1.02289L22.6473 0.711632C22.8376 0.530542 23.0281 0.354114 23.2189 0.182373L24.6907 1.81762Z" fill="#3A3A3C"/>
<path d="M39.2934 26.7054L32.9464 18.7717L32.8407 17.3965H36.0141C36.8604 17.3965 37.6009 17.2554 38.2356 16.9733C38.7997 16.7618 39.2229 16.4092 39.505 15.9155C39.8576 15.4219 40.0339 14.8224 40.0339 14.1172C40.0339 13.0594 39.6813 12.2131 38.976 11.5784C38.3414 11.0142 37.3541 10.7322 36.0141 10.7322H32.7349L33.2638 8.72229H36.0141C37.4951 8.72229 38.694 8.9691 39.6107 9.46275C40.5275 9.88588 41.1975 10.5206 41.6206 11.3669C42.0437 12.2131 42.2553 13.1299 42.2553 14.1172C42.2553 15.034 42.0437 15.8803 41.6206 16.656C41.268 17.4317 40.6333 18.0664 39.7165 18.5601C38.7997 19.0537 37.6361 19.3006 36.2257 19.3006H36.1199L42.0437 26.4938V26.7054H39.2934ZM44.5825 12.9536L44.0536 14.9635H32.7349L33.2638 12.9536H44.5825ZM44.5825 8.72229L44.0536 10.7322H35.0621L35.6968 8.72229H44.5825Z" fill="#3A3A3C"/>
</svg>
