<svg width="25" height="19" viewBox="0 0 25 19" fill="none" xmlns="http://www.w3.org/2000/svg">
<path d="M10.2793 6.3364C10.7638 6.3364 11.1838 6.53021 11.5068 6.85323C11.8298 7.17624 12.0236 7.62846 12.0236 8.11298C12.0236 8.62981 11.8298 9.08203 11.5068 9.40504C11.2161 9.66345 10.8931 9.85726 10.5054 9.88956C10.1824 10.8586 9.601 11.6661 8.89036 12.2476C8.11513 12.8613 7.14608 13.2489 6.11244 13.2489C5.07879 13.2489 4.10975 12.8613 3.33451 12.2476C2.62388 11.6661 2.04245 10.8263 1.71944 9.88956C1.36412 9.82496 1.0411 9.63115 0.782693 9.37274C0.459678 9.04973 0.265869 8.59751 0.265869 8.11298C0.265869 7.66076 0.459678 7.20854 0.750391 6.88553C1.0088 6.62712 1.33182 6.46561 1.68713 6.3687C1.78404 6.01339 1.91324 5.69037 2.07475 5.36736C2.30086 4.97974 2.55927 4.62442 2.84999 4.30141C3.01149 4.1399 3.23761 4.1399 3.39911 4.26911C3.46372 4.33371 3.49602 4.39831 3.49602 4.49522C3.94824 6.43331 5.66022 6.3364 5.66022 6.3364H10.247C10.2793 6.3364 10.2793 6.3364 10.2793 6.3364ZM10.9577 7.40235C10.7962 7.20854 10.5377 7.11164 10.2793 7.07934H10.247H5.66022C5.46641 7.11164 3.75443 7.11164 2.97919 5.36736C2.91459 5.49656 2.84999 5.62577 2.75308 5.72267C2.59158 6.07799 2.46237 6.43331 2.36547 6.82092C2.30086 6.95013 2.17166 7.07934 2.01015 7.11164C1.75174 7.11164 1.49333 7.24084 1.33182 7.43465C1.17031 7.59616 1.0411 7.85457 1.0411 8.11298C1.0411 8.4037 1.17031 8.66211 1.33182 8.82362C1.52563 9.01742 1.75174 9.14663 2.04245 9.14663C2.20396 9.14663 2.33316 9.27584 2.39777 9.43734C2.65618 10.3418 3.173 11.0847 3.81903 11.6338C4.46506 12.1507 5.2726 12.4737 6.11244 12.4737C6.95228 12.4737 7.75981 12.1507 8.40584 11.6338C9.05187 11.0847 9.56869 10.3418 9.82711 9.43734C9.89171 9.27584 10.0209 9.14663 10.1824 9.14663C10.2147 9.14663 10.2147 9.14663 10.2147 9.14663C10.5054 9.14663 10.7638 9.01742 10.9577 8.85592C11.1515 8.66211 11.2484 8.4037 11.2484 8.11298C11.2484 7.85457 11.1515 7.59616 10.9577 7.40235Z" fill="#FFFFFF"/>
<path d="M1.26718 6.8532C1.23488 6.69169 0.685755 3.91376 0.944167 2.5571C0.976468 2.36329 1.20258 2.20178 1.39639 2.23408C1.42869 2.26639 1.42869 2.26639 1.46099 2.26639C1.52559 2.29869 1.94551 2.46019 2.30083 2.5571C2.68845 2.04028 3.17297 1.62036 3.72209 1.29734C4.36812 0.974326 5.07876 0.780518 5.85399 0.780518H6.85534C8.08279 0.780518 9.18104 1.26504 9.98858 2.07258C10.7961 2.88011 11.3129 4.01067 11.3129 5.23812V6.8855C11.3129 7.11161 11.1514 7.27311 10.9253 7.27311C10.8607 7.27311 10.7638 7.24081 10.6992 7.20851C10.6346 7.17621 10.57 7.14391 10.5054 7.14391C10.4085 7.11161 10.3439 7.07931 10.247 7.07931H5.66018C5.40177 7.11161 3.72209 7.07931 2.97916 5.36733C2.91456 5.49653 2.84995 5.62574 2.75305 5.72264C2.59154 6.07796 2.46234 6.43328 2.36543 6.82089C2.30083 6.9824 2.17162 7.07931 1.97781 7.11161C1.94551 7.11161 1.91321 7.11161 1.88091 7.11161C1.84861 7.11161 1.78401 7.14391 1.7517 7.14391C1.5579 7.20851 1.33178 7.11161 1.26718 6.8855V6.8532ZM1.6548 3.17083C1.6225 3.97836 1.7517 5.07661 1.88091 5.81955C1.94551 5.65804 2.01012 5.52883 2.07472 5.36733C2.30083 4.97971 2.55924 4.62439 2.84995 4.30138C2.88226 4.23678 2.97916 4.20447 3.04376 4.17217C3.26987 4.13987 3.46368 4.26908 3.49598 4.49519C3.9159 6.30407 5.40177 6.33637 5.62788 6.33637H5.66018H10.247C10.2793 6.33637 10.2793 6.33637 10.2793 6.33637C10.3762 6.33637 10.4731 6.33637 10.5377 6.33637V5.23812C10.5377 4.20447 10.1178 3.30003 9.43946 2.6217C8.79343 1.94337 7.85668 1.55575 6.85534 1.55575H5.85399C5.20796 1.55575 4.62654 1.71726 4.10971 1.97567C3.56059 2.29869 3.10837 2.71861 2.78535 3.20313C2.68845 3.36464 2.49464 3.46154 2.33313 3.39694C2.13932 3.33233 1.88091 3.23543 1.6548 3.17083Z" fill="#FFFFFF"/>
<path d="M8.05047 12.409C8.05047 12.5059 8.08278 12.6028 8.11508 12.6997C8.11508 12.7966 8.11508 12.8935 8.11508 13.0227C8.11508 13.5719 7.88897 14.0887 7.53365 14.444C7.14603 14.7993 6.66151 15.0254 6.08008 15.0254C5.53096 15.0254 5.01414 14.7993 4.65882 14.444C4.3035 14.0564 4.07739 13.5719 4.07739 13.0227C4.07739 12.8935 4.07739 12.7966 4.07739 12.6997C4.10969 12.6028 4.142 12.5059 4.142 12.409C4.2066 12.2152 4.43271 12.086 4.62652 12.1506C4.65882 12.1506 4.69112 12.1506 4.69112 12.1829C4.91723 12.2798 5.14334 12.3444 5.36945 12.409C5.62786 12.4413 5.85397 12.4736 6.11239 12.4736C6.3708 12.4736 6.59691 12.4413 6.82302 12.409C7.04913 12.3444 7.30754 12.2798 7.50135 12.1829C7.69516 12.086 7.92127 12.1829 8.01817 12.3767C8.01817 12.409 8.01817 12.409 8.05047 12.409ZM6.98453 13.8949C7.21064 13.6688 7.33984 13.3781 7.33984 13.055C7.21064 13.0873 7.11373 13.1196 6.98453 13.1519C6.69381 13.2165 6.4031 13.2488 6.11239 13.2488C5.82167 13.2488 5.49866 13.2165 5.20794 13.1519C5.07874 13.1196 4.98183 13.0873 4.85263 13.055C4.85263 13.3781 4.98183 13.6688 5.20794 13.8949C5.43405 14.121 5.75707 14.2502 6.08008 14.2502C6.4354 14.2502 6.75842 14.121 6.98453 13.8949Z" fill="#FFFFFF"/>
<path d="M3.56063 18.0942C3.36682 18.0942 3.17302 17.9003 3.17302 17.7065C3.17302 17.4804 3.36682 17.3189 3.56063 17.3189H10.4731V14.864C10.4731 14.4441 10.3116 14.0888 10.0209 13.7981C9.76252 13.5396 9.3749 13.3458 8.95498 13.3458H7.72752C7.53372 13.3458 7.33991 13.1843 7.33991 12.9582C7.33991 12.7644 7.53372 12.6029 7.72752 12.6029H8.95498C9.60101 12.6029 10.1501 12.829 10.5701 13.2489C10.99 13.6689 11.2484 14.2503 11.2484 14.864V17.7065C11.2484 17.9003 11.0869 18.0942 10.8608 18.0942H3.56063ZM4.46507 12.6029C4.65888 12.6029 4.85269 12.7644 4.85269 12.9582C4.85269 13.1843 4.65888 13.3458 4.46507 13.3458H3.23762C2.8177 13.3458 2.43008 13.5396 2.13937 13.7981C1.88096 14.0888 1.71945 14.4441 1.71945 14.864V17.3189H2.01016C2.23627 17.3189 2.39778 17.4804 2.39778 17.7065C2.39778 17.9003 2.23627 18.0942 2.01016 18.0942H1.33183C1.10572 18.0942 0.944214 17.9003 0.944214 17.7065V14.864C0.944214 14.2503 1.20263 13.6689 1.62254 13.2489C2.01016 12.829 2.59159 12.6029 3.23762 12.6029H4.46507Z" fill="#FFFFFF"/>
<path d="M3.68982 8.04838C3.68982 7.82227 3.88363 7.66077 4.07744 7.66077C4.30355 7.66077 4.46505 7.82227 4.46505 8.04838V8.85592C4.46505 9.04973 4.30355 9.24354 4.07744 9.24354C3.88363 9.24354 3.68982 9.04973 3.68982 8.85592V8.04838Z" fill="#FFFFFF"/>
<path d="M7.72754 8.04838C7.72754 7.82227 7.88905 7.66077 8.11516 7.66077C8.30897 7.66077 8.50277 7.82227 8.50277 8.04838V8.85592C8.50277 9.04973 8.30897 9.24354 8.11516 9.24354C7.88905 9.24354 7.72754 9.04973 7.72754 8.85592V8.04838Z" fill="#FFFFFF"/>
<path d="M6.69387 10.0187C6.69387 9.79261 6.88768 9.6311 7.08149 9.6311C7.3076 9.6311 7.46911 9.79261 7.46911 10.0187C7.46911 10.374 7.3399 10.7294 7.08149 10.9878C6.85538 11.2139 6.50006 11.3754 6.14475 11.3754C5.75713 11.3754 5.43412 11.2139 5.1757 10.9878C4.91729 10.7294 4.78809 10.4063 4.78809 10.0187C4.78809 9.79261 4.94959 9.6311 5.1757 9.6311C5.36951 9.6311 5.56332 9.79261 5.56332 10.0187C5.56332 10.1802 5.62792 10.3094 5.72483 10.4386C5.82173 10.5355 5.98324 10.6001 6.14475 10.6001C6.27395 10.6001 6.43546 10.5355 6.53237 10.4386C6.62927 10.3094 6.69387 10.1802 6.69387 10.0187Z" fill="#FFFFFF"/>
<path d="M19.6468 12.829C19.6468 12.9259 19.6791 13.0228 19.6791 13.0874C19.7114 13.1843 19.7114 13.2812 19.7114 13.3781C19.7114 13.8949 19.4852 14.3794 19.1622 14.7347C18.8069 15.0578 18.3224 15.2839 17.8056 15.2839C17.2887 15.2839 16.8042 15.0578 16.4812 14.7347C16.1259 14.3794 15.8998 13.8949 15.8998 13.3781C15.8998 13.2812 15.9321 13.1843 15.9321 13.0874C15.9644 12.9905 15.9644 12.8936 15.9967 12.829C16.0613 12.6029 16.2874 12.5059 16.4812 12.5706C16.5135 12.5706 16.5135 12.5706 16.5458 12.5706C16.7396 12.6675 16.9657 12.7321 17.1595 12.7967C17.3856 12.829 17.6118 12.8613 17.8379 12.8613C18.064 12.8613 18.2578 12.829 18.4839 12.7967C18.71 12.7321 18.9038 12.6675 19.0976 12.6029C19.2914 12.5059 19.5175 12.6029 19.6145 12.7967V12.829H19.6468ZM18.6131 14.1856C18.8069 13.9918 18.9038 13.7334 18.9361 13.475C18.8392 13.5073 18.7423 13.5073 18.6454 13.5396C18.387 13.6042 18.0963 13.6365 17.8379 13.6365C17.5472 13.6365 17.2887 13.6042 16.998 13.5396C16.9011 13.5073 16.8042 13.475 16.7073 13.475C16.7073 13.7334 16.8365 13.9918 17.0303 14.1856C17.2241 14.3794 17.5149 14.5086 17.8056 14.5086C18.1286 14.5086 18.4193 14.3794 18.6131 14.1856Z" fill="#FFFFFF"/>
<path d="M15.4799 18.0941C15.2861 18.0941 15.0923 17.9003 15.0923 17.7064C15.0923 17.4803 15.2861 17.3188 15.4799 17.3188H21.811V15.09C21.811 14.7347 21.6495 14.3794 21.4234 14.121C21.165 13.8949 20.842 13.7334 20.4544 13.7334H19.3238C19.0977 13.7334 18.9362 13.5719 18.9362 13.3457C18.9362 13.1196 19.0977 12.9581 19.3238 12.9581H20.4544C21.0358 12.9581 21.5849 13.2165 21.9725 13.6042C22.3602 13.9918 22.5863 14.5086 22.5863 15.09V17.7064C22.5863 17.9003 22.4248 18.0941 22.1986 18.0941H15.4799ZM16.2875 12.9581C16.5136 12.9581 16.6751 13.1196 16.6751 13.3457C16.6751 13.5719 16.5136 13.7334 16.2875 13.7334H15.1569C14.8016 13.7334 14.4463 13.8949 14.2202 14.121C13.9618 14.3794 13.8003 14.7347 13.8003 15.09V17.3188H14.0587C14.2848 17.3188 14.4463 17.4803 14.4463 17.7064C14.4463 17.9003 14.2848 18.0941 14.0587 18.0941H13.4126C13.2188 18.0941 13.025 17.9003 13.025 17.7064V15.09C13.025 14.5086 13.2834 13.9918 13.6711 13.6042C14.0587 13.2165 14.5755 12.9581 15.1569 12.9581H16.2875Z" fill="#FFFFFF"/>
<path d="M15.5768 8.79135C15.5768 8.59754 15.7706 8.43604 15.9644 8.43604C16.1905 8.43604 16.352 8.59754 16.352 8.79135V9.53429C16.352 9.7604 16.1905 9.9219 15.9644 9.9219C15.7706 9.9219 15.5768 9.7604 15.5768 9.53429V8.79135Z" fill="#FFFFFF"/>
<path d="M19.2915 8.79135C19.2915 8.59754 19.453 8.43604 19.6791 8.43604C19.8729 8.43604 20.0344 8.59754 20.0344 8.79135V9.53429C20.0344 9.7604 19.8729 9.9219 19.6791 9.9219C19.453 9.9219 19.2915 9.7604 19.2915 9.53429V8.79135Z" fill="#FFFFFF"/>
<path d="M18.3547 10.6325C18.3547 10.4064 18.5162 10.2449 18.7423 10.2449C18.9361 10.2449 19.1299 10.4064 19.1299 10.6325C19.1299 10.9878 18.9684 11.3108 18.7423 11.5369C18.5162 11.763 18.1932 11.8922 17.8379 11.8922C17.4826 11.8922 17.1919 11.763 16.9334 11.5369C16.7073 11.3108 16.5781 10.9878 16.5781 10.6325C16.5781 10.4064 16.7396 10.2449 16.9657 10.2449C17.1596 10.2449 17.3534 10.4064 17.3534 10.6325C17.3534 10.7617 17.418 10.8909 17.4826 10.9878C17.5795 11.0847 17.7087 11.117 17.8379 11.117C17.9994 11.117 18.0963 11.0847 18.1932 10.9878C18.2901 10.8909 18.3547 10.7617 18.3547 10.6325Z" fill="#FFFFFF"/>
<path d="M17.8702 1.71729C19.2591 1.71729 20.4866 2.26641 21.391 3.17085C22.2955 4.07529 22.8446 5.30275 22.8446 6.69171C22.8446 6.88552 22.8446 7.07933 22.8123 7.30544C22.78 7.49925 22.7477 7.69306 22.7154 7.88687C22.6508 8.08068 22.457 8.20988 22.2309 8.17758C22.1986 8.14528 22.1663 8.14528 22.134 8.11298C21.811 7.88687 21.391 7.88687 20.9711 7.88687C19.9698 7.85457 18.8715 7.82226 17.9025 5.98108C17.6764 6.4979 17.3211 6.91782 16.8688 7.24084C16.1905 7.72536 15.2538 7.95147 14.0586 7.95147C13.9617 7.98377 13.8971 7.98377 13.8325 8.01607C13.7679 8.04837 13.671 8.08068 13.6064 8.11298C13.4449 8.24218 13.1865 8.17758 13.0896 8.01607C13.0573 7.95147 13.025 7.91917 13.025 7.85457C12.9927 7.66076 12.9604 7.46695 12.9281 7.30544C12.8958 7.07933 12.8958 6.88552 12.8958 6.69171C12.8958 5.30275 13.4449 4.07529 14.3493 3.17085C15.2538 2.26641 16.4812 1.71729 17.8702 1.71729ZM20.8419 3.71998C20.0667 2.94474 19.033 2.49252 17.8702 2.49252C16.7073 2.49252 15.6414 2.94474 14.8984 3.71998C14.1232 4.49521 13.671 5.52886 13.671 6.69171C13.671 6.85322 13.671 7.04703 13.7033 7.20854V7.24084C13.8002 7.20854 13.8971 7.20854 13.994 7.20854H14.0263C15.0923 7.20854 15.8675 7.01473 16.4489 6.59481C16.9657 6.23949 17.3211 5.65807 17.4826 4.88283C17.5149 4.75362 17.6118 4.62442 17.741 4.59212C17.9348 4.49521 18.1609 4.59212 18.2255 4.81823C19.0976 7.04703 20.099 7.07933 20.9711 7.11163C21.3587 7.11163 21.7141 7.11163 22.0371 7.24084V7.20854C22.0694 7.04703 22.0694 6.85322 22.0694 6.69171C22.0694 5.52886 21.6172 4.49521 20.8419 3.71998Z" fill="#FFFFFF"/>
<path d="M21.2618 7.56377C21.2618 7.36996 21.4233 7.17615 21.6494 7.17615C21.6494 7.17615 21.6817 7.17615 21.6817 7.20845C22.1339 7.20845 22.5215 7.40226 22.8123 7.69297C23.1353 7.98368 23.2968 8.4036 23.2968 8.88813C23.2968 9.34035 23.103 9.76027 22.8123 10.0833C22.5538 10.3094 22.2308 10.5032 21.8755 10.5355C21.5848 11.4076 21.068 12.1506 20.3896 12.6997C19.679 13.2811 18.8069 13.6364 17.8378 13.6364C16.8688 13.6364 15.9966 13.2811 15.2537 12.6997C14.6077 12.1506 14.0586 11.4076 13.7678 10.5355C13.4448 10.4709 13.1218 10.2771 12.8957 10.051C12.605 9.72796 12.4435 9.34035 12.4435 8.88813C12.4435 8.43591 12.605 8.01599 12.8957 7.72527C13.1541 7.43456 13.5417 7.24075 13.994 7.20845C14.2201 7.17615 14.3816 7.33765 14.4139 7.56377C14.4139 7.75757 14.2524 7.95138 14.0586 7.95138C13.8001 7.98368 13.6063 8.08059 13.4448 8.2421C13.2833 8.4036 13.2187 8.62971 13.2187 8.88813C13.2187 9.11424 13.3156 9.34035 13.4448 9.50185C13.6063 9.66336 13.8324 9.79257 14.0909 9.79257C14.2524 9.79257 14.3816 9.92177 14.4462 10.0833C14.6723 10.8908 15.1568 11.6014 15.7382 12.086C16.352 12.5705 17.0626 12.8612 17.8378 12.8612C18.6131 12.8612 19.3237 12.5705 19.9051 12.086C20.5189 11.6014 21.0034 10.8908 21.2295 10.0833C21.2618 9.92177 21.4233 9.79257 21.5848 9.79257H21.6171C21.8755 9.79257 22.1016 9.69566 22.2631 9.53416C22.4246 9.37265 22.5215 9.14654 22.5215 8.88813C22.5215 8.62971 22.4246 8.4036 22.2631 8.2421C22.1016 8.08059 21.9078 7.98368 21.6494 7.95138C21.4233 7.95138 21.2618 7.78988 21.2618 7.56377Z" fill="#FFFFFF"/>
<path d="M20.4543 11.763C20.422 11.5369 20.5512 11.3431 20.7773 11.3108C20.9711 11.2785 21.1972 11.4077 21.2295 11.6015C21.4879 13.152 22.8769 13.2489 23.4906 13.1843V11.4077L23.5229 11.3754C23.5229 11.2139 23.4906 10.3095 22.5862 9.85725C22.3923 9.76035 22.3277 9.53424 22.3923 9.34043C22.4892 9.14662 22.7477 9.08202 22.9092 9.17892C24.2335 9.79265 24.2658 11.117 24.2658 11.3754V11.4077V13.5396C24.2658 13.7334 24.1366 13.8949 23.9751 13.9272C23.9428 13.9272 20.9711 14.5087 20.4543 11.763Z" fill="#FFFFFF"/>
<path d="M15.0922 11.763C15.1245 11.5369 14.9953 11.3431 14.8015 11.3108C14.5754 11.2785 14.3816 11.4077 14.3493 11.6015C14.0586 13.152 12.7019 13.2489 12.0559 13.1843V11.4077V11.3754C12.0559 11.2139 12.0882 10.3095 12.9926 9.85725C13.1864 9.76035 13.251 9.53424 13.1541 9.34043C13.0572 9.14662 12.8311 9.08202 12.6373 9.17892C11.3452 9.79265 11.2806 11.117 11.2806 11.3754V11.4077V13.5396C11.2806 13.7334 11.4098 13.8949 11.6037 13.9272C11.6037 13.9272 14.6077 14.5087 15.0922 11.763Z" fill="#FFFFFF"/>
</svg>
