<svg width="91" height="77" viewBox="0 0 91 77" fill="none" xmlns="http://www.w3.org/2000/svg">
<path d="M16.7024 28.1693C15.1529 28.1693 13.9132 29.2024 13.7066 30.6486C13.3967 29.2024 12.157 28.1693 10.7107 28.1693C8.95454 28.1693 7.61157 29.5123 7.61157 31.2685C7.61157 31.8883 7.81816 32.5081 8.23138 33.0247C8.74791 33.7478 11.9504 37.5701 13.7066 37.5701C15.1529 37.5701 18.7685 33.7478 19.2851 32.8181C19.5605 32.336 19.6983 31.8194 19.6983 31.2685C19.6983 29.5123 18.3553 28.1693 16.7024 28.1693Z" fill="#42B650"/>
<path fill-rule="evenodd" clip-rule="evenodd" d="M6.61157 31.2685C6.61157 28.96 8.40226 27.1693 10.7107 27.1693C11.8737 27.1693 12.9257 27.667 13.6687 28.4724C14.4107 27.6569 15.5006 27.1693 16.7024 27.1693C18.9297 27.1693 20.6983 28.9823 20.6983 31.2685C20.6983 31.9931 20.5153 32.6788 20.156 33.3095C19.9663 33.6485 19.5768 34.1322 19.1467 34.6167C18.6922 35.1286 18.1247 35.7162 17.5265 36.2741C16.9317 36.8287 16.286 37.3734 15.6766 37.7863C15.372 37.9926 15.0573 38.1792 14.7478 38.3173C14.4512 38.4496 14.0882 38.5701 13.7066 38.5701C12.9564 38.5701 12.2166 38.1854 11.6287 37.794C11.0035 37.3778 10.374 36.8323 9.80997 36.2884C8.70464 35.2226 7.74796 34.0622 7.43351 33.628C6.88738 32.9354 6.61157 32.103 6.61157 31.2685ZM10.7107 29.1693C9.50683 29.1693 8.61157 30.0646 8.61157 31.2685C8.61157 31.665 8.74321 32.0637 9.01225 32.4C9.0236 32.4142 9.03455 32.4287 9.04511 32.4434C9.26465 32.7508 10.1534 33.8412 11.1982 34.8487C11.719 35.3508 12.2516 35.806 12.737 36.1292C13.2596 36.4771 13.5787 36.5701 13.7066 36.5701C13.7043 36.5701 13.7032 36.5701 13.7031 36.57C13.7031 36.5693 13.7733 36.562 13.9328 36.4908C14.1 36.4163 14.309 36.297 14.5549 36.1304C15.0463 35.7976 15.608 35.3285 16.1625 34.8114C16.7135 34.2975 17.2372 33.7551 17.6511 33.2889C18.0869 32.7979 18.3411 32.458 18.4109 32.3324L18.4168 32.3219L18.4168 32.3219C18.6067 31.9897 18.6983 31.644 18.6983 31.2685C18.6983 30.0423 17.781 29.1693 16.7024 29.1693C15.611 29.1693 14.8273 29.8746 14.6965 30.7901C14.628 31.2697 14.2254 31.6313 13.7412 31.648C13.2569 31.6648 12.8303 31.332 12.7288 30.8582C12.5131 29.8519 11.6642 29.1693 10.7107 29.1693Z" fill="#3A3A3C"/>
<path d="M26.3098 36.7437V51.8262C26.3098 53.2725 25.0702 54.4088 23.6239 54.4088H3.68595C2.23967 54.4088 1 53.2725 1 51.8262V36.7437H26.3098Z" fill="#EEE063"/>
<path fill-rule="evenodd" clip-rule="evenodd" d="M0 35.7437H27.3098V51.8262C27.3098 53.875 25.5708 55.4088 23.6239 55.4088H3.68595C1.73902 55.4088 0 53.875 0 51.8262V35.7437ZM2 37.7437V51.8262C2 52.6699 2.74032 53.4088 3.68595 53.4088H23.6239C24.5695 53.4088 25.3098 52.67 25.3098 51.8262V37.7437H2Z" fill="#3A3A3C"/>
<path d="M20.7314 46.8674V49.3468C20.7314 49.76 20.3181 50.1732 19.9049 50.1732H7.30165C6.78512 50.1732 6.47522 49.76 6.47522 49.3468V46.8674C6.47522 46.4542 6.78512 46.041 7.30165 46.041H19.9049C20.3181 46.041 20.7314 46.4542 20.7314 46.8674Z" fill="#EAE1A1"/>
<path fill-rule="evenodd" clip-rule="evenodd" d="M13.6033 42.8057H1V40.8057H13.6033V42.8057Z" fill="#3A3A3C"/>
<path fill-rule="evenodd" clip-rule="evenodd" d="M26.3099 42.8057H18.8719V40.8057H26.3099V42.8057Z" fill="#3A3A3C"/>
<path fill-rule="evenodd" clip-rule="evenodd" d="M7.47522 47.041V49.1732H19.7314V47.041H7.47522ZM5.47522 46.8674C5.47522 45.9856 6.15271 45.041 7.30165 45.041H19.9049C20.4368 45.041 20.8849 45.2969 21.1802 45.5922C21.4755 45.8875 21.7313 46.3356 21.7313 46.8674V49.3468C21.7313 49.8786 21.4755 50.3267 21.1802 50.622C20.8849 50.9174 20.4368 51.1732 19.9049 51.1732H7.30165C6.15267 51.1732 5.47522 50.2285 5.47522 49.3468V46.8674Z" fill="#3A3A3C"/>
<path d="M87.3633 35.4007C87.3633 35.4007 87.1567 32.9214 84.0576 32.9214H72.0741C68.975 32.9214 68.7683 35.4007 68.7683 35.4007L67.0122 54.4089H89.1195L87.3633 35.4007Z" fill="#EEE063"/>
<path fill-rule="evenodd" clip-rule="evenodd" d="M68.443 33.583C69.074 32.6923 70.2079 31.9214 72.0741 31.9214H84.0576C85.9238 31.9214 87.0577 32.6923 87.6887 33.583C87.9873 34.0046 88.1519 34.4222 88.2426 34.7333C88.2884 34.8901 88.3166 35.0241 88.3338 35.1241C88.3425 35.1742 88.3484 35.2162 88.3525 35.2488C88.3546 35.2652 88.3561 35.2791 88.3573 35.2907L88.3588 35.3061L88.3594 35.3124L88.3597 35.3151L88.3598 35.3164L90.2162 55.4089H65.9155L67.772 35.3151L67.7723 35.3123L67.7728 35.3061L67.7744 35.2906C67.7755 35.2791 67.7771 35.2651 67.7791 35.2488C67.7832 35.2162 67.7892 35.1742 67.7979 35.1241C67.8151 35.0241 67.8433 34.8901 67.8891 34.7333C67.9798 34.4221 68.1444 34.0046 68.443 33.583ZM69.7637 35.4969C69.7637 35.4971 69.7637 35.4968 69.7637 35.4969L68.1088 53.4089H88.0229L86.368 35.4969C86.3679 35.4967 86.368 35.4971 86.368 35.4969C86.3674 35.4927 86.3659 35.4812 86.363 35.4643C86.3568 35.4287 86.3447 35.3689 86.3226 35.2933C86.2778 35.1396 86.197 34.9373 86.0566 34.7391C85.8095 34.3902 85.2905 33.9214 84.0576 33.9214H72.0741C70.8412 33.9214 70.3222 34.3902 70.0751 34.7391C69.9347 34.9373 69.8539 35.1396 69.8091 35.2933C69.787 35.3689 69.7749 35.4287 69.7687 35.4643C69.7658 35.4812 69.7642 35.4927 69.7637 35.4969Z" fill="#3A3A3C"/>
<path fill-rule="evenodd" clip-rule="evenodd" d="M78.0658 27.2065C76.8871 27.2065 75.9 27.7093 75.3971 28.4996L75.3828 28.5222L75.3672 28.544C74.9232 29.1656 74.6237 29.8945 74.6237 30.5454V36.9503H72.6237V30.5454C72.6237 29.3471 73.1417 28.2256 73.7246 27.4028C74.6708 25.9358 76.361 25.2065 78.0658 25.2065C79.7564 25.2065 81.4325 25.9236 82.3831 27.366C83.141 28.2777 83.508 29.421 83.508 30.5454V36.9503H81.508V30.5454C81.508 29.8326 81.2698 29.1396 80.819 28.6135L80.7727 28.5596L80.7346 28.4996C80.2316 27.7093 79.2446 27.2065 78.0658 27.2065Z" fill="#3A3A3C"/>
<path fill-rule="evenodd" clip-rule="evenodd" d="M82.7905 37.1885C82.8699 37.0992 82.8882 37.0084 82.8882 36.9503C82.8882 36.8922 82.8699 36.8014 82.7905 36.7121C82.749 36.6654 82.6964 36.6264 82.6376 36.6007C82.579 36.575 82.5316 36.5701 82.508 36.5701C82.3377 36.5701 82.2511 36.6452 82.227 36.6693C82.2028 36.6935 82.1278 36.78 82.1278 36.9503C82.1278 37.1205 82.2028 37.2071 82.227 37.2312C82.2511 37.2554 82.3377 37.3304 82.508 37.3304C82.5316 37.3304 82.579 37.3255 82.6376 37.2999C82.6964 37.2742 82.749 37.2352 82.7905 37.1885ZM81.2957 35.8598C81.5981 35.5196 82.03 35.3304 82.508 35.3304C82.9882 35.3304 83.3847 35.5605 83.6412 35.8171C83.8978 36.0736 84.1278 36.4701 84.1278 36.9503C84.1278 37.4304 83.8978 37.8269 83.6412 38.0835C83.3847 38.3401 82.9882 38.5701 82.508 38.5701C82.03 38.5701 81.5981 38.3809 81.2957 38.0408C81.0097 37.719 80.8882 37.3183 80.8882 36.9503C80.8882 36.5822 81.0097 36.1815 81.2957 35.8598Z" fill="#3A3A3C"/>
<path fill-rule="evenodd" clip-rule="evenodd" d="M73.9047 37.2313C73.9288 37.2071 74.0038 37.1206 74.0038 36.9503C74.0038 36.78 73.9288 36.6934 73.9047 36.6693C73.8805 36.6452 73.794 36.5701 73.6237 36.5701C73.5769 36.5701 73.5209 36.5884 73.4712 36.6331C73.4299 36.6703 73.3468 36.7717 73.3468 36.9503C73.3468 37.1288 73.4299 37.2303 73.4712 37.2674C73.5209 37.3122 73.5769 37.3304 73.6237 37.3304C73.794 37.3304 73.8805 37.2554 73.9047 37.2313ZM72.4904 35.817C72.747 35.5605 73.1435 35.3304 73.6237 35.3304C74.4875 35.3304 75.3468 35.9916 75.3468 36.9503C75.3468 37.9089 74.4875 38.5701 73.6237 38.5701C73.1435 38.5701 72.747 38.3401 72.4904 38.0835C72.2339 37.827 72.0038 37.4305 72.0038 36.9503C72.0038 36.4701 72.2339 36.0736 72.4904 35.817Z" fill="#3A3A3C"/>
<path d="M40.9792 43.8718L30.442 46.6611C20.4214 50.2767 20.3181 59.4709 20.3181 59.4709C20.3181 59.4709 20.3181 68.5618 20.3181 72.3841C20.3181 76.1031 23.9338 75.9998 23.9338 75.9998H46.661H46.0411H68.665C68.665 75.9998 72.2807 76.1031 72.2807 72.3841C72.2807 68.5618 72.2807 59.4709 72.2807 59.4709C72.2807 59.4709 72.2807 50.2767 62.1568 46.6611L51.6196 43.8718L46.8676 49.7602L40.9792 43.8718Z" fill="#EAE1A1"/>
<path d="M62.88 17.2189V37.1569C62.88 38.8098 61.537 40.0494 59.8841 40.0494H33.3346C31.6817 40.0494 30.442 38.8098 30.442 37.1569V17.2189C30.442 13.6032 31.5784 10.2975 33.5412 7.61154C36.5371 3.58263 41.2891 1 46.661 1C52.0329 1 56.7849 3.58263 59.6775 7.61154C61.7436 10.2975 62.88 13.6032 62.88 17.2189Z" fill="#838384"/>
<path d="M57.7147 20.0082V28.9958C57.7147 31.4751 56.8882 33.7479 55.5453 35.6073C53.4791 38.2933 50.2767 40.0495 46.661 40.0495C43.0453 40.0495 39.7395 38.2933 37.7767 35.6073C36.4337 33.7479 35.6073 31.4751 35.6073 28.9958V24.657C42.2188 24.657 47.694 19.8016 48.7271 13.5C48.7271 13.5 53.8924 19.595 57.7147 20.0082Z" fill="white"/>
<path fill-rule="evenodd" clip-rule="evenodd" d="M34.3462 8.20491C32.5088 10.7206 31.442 13.8188 31.442 17.2189V37.1569C31.442 38.2575 32.234 39.0494 33.3346 39.0494H59.8841C61.0312 39.0494 61.88 38.2121 61.88 37.1569V17.2189C61.88 13.8185 60.8133 10.7283 58.8849 8.22125L58.8748 8.20816L58.8652 8.19475C56.1574 4.42328 51.7057 2 46.661 2C41.6208 2 37.1619 4.42025 34.3462 8.20491ZM32.7387 7.01484C35.9148 2.74359 40.959 0 46.661 0C52.3542 0 57.4019 2.73627 60.4802 7.01495C62.6775 9.87743 63.88 13.3938 63.88 17.2189V37.1569C63.88 39.4075 62.0427 41.0494 59.8841 41.0494H33.3346C31.1295 41.0494 29.442 39.3621 29.442 37.1569V17.2189C29.442 13.3892 30.647 9.87713 32.7338 7.02152L32.7387 7.01482L32.7387 7.01484Z" fill="#3A3A3C"/>
<path fill-rule="evenodd" clip-rule="evenodd" d="M49.2663 15.5632C47.5588 21.0835 42.5961 25.2064 36.6073 25.6223V28.9958C36.6073 31.2467 37.3564 33.3165 38.5858 35.0196C40.361 37.4472 43.3663 39.0494 46.661 39.0494C49.9371 39.0494 52.8513 37.4622 54.7434 35.0096C55.9685 33.3084 56.7147 31.2423 56.7147 28.9958V20.8301C55.8407 20.5915 54.9753 20.1625 54.1733 19.6684C53.0842 18.9974 52.0321 18.1559 51.1225 17.3459C50.4109 16.7123 49.7759 16.0883 49.2663 15.5632ZM49.49 12.8535L49.4921 12.8559L49.5015 12.8669L49.5418 12.9137C49.5781 12.9556 49.6328 13.0182 49.7043 13.0987C49.8473 13.2598 50.0575 13.4923 50.322 13.7734C50.8522 14.3365 51.5959 15.0894 52.4526 15.8523C53.3121 16.6178 54.2679 17.3776 55.2224 17.9656C56.1911 18.5625 57.0815 18.9339 57.8222 19.014L58.7147 19.1105V28.9958C58.7147 31.7025 57.8115 34.1774 56.3559 36.1928L56.3471 36.2051L56.3379 36.217C54.0975 39.1296 50.611 41.0494 46.661 41.0494C42.7254 41.0494 39.1199 39.1403 36.9693 36.1973L36.966 36.1928C35.5104 34.1774 34.6073 31.7025 34.6073 28.9958V23.657H35.6073C41.7172 23.657 46.7845 19.1682 47.7403 13.3382L48.0905 11.202L49.49 12.8535Z" fill="#3A3A3C"/>
<path fill-rule="evenodd" clip-rule="evenodd" d="M41.9792 43.4577V40.0496H39.9792V44.2861L46.8739 51.1808L53.6527 44.2809V40.0496H51.6527V43.4628L46.8613 48.3398L41.9792 43.4577Z" fill="#3A3A3C"/>
<path fill-rule="evenodd" clip-rule="evenodd" d="M29.1321 75.9997V64.1196H31.1321V75.9997H29.1321Z" fill="#3A3A3C"/>
<path fill-rule="evenodd" clip-rule="evenodd" d="M40.7233 42.905L41.2351 44.8384L30.7408 47.6163C26.044 49.3233 23.7088 52.3053 22.5292 54.8433C21.9331 56.1256 21.6292 57.303 21.4748 58.1559C21.3978 58.5816 21.3584 58.924 21.3384 59.1551C21.3284 59.2705 21.3232 59.3579 21.3206 59.4136C21.3193 59.4415 21.3186 59.4614 21.3183 59.473L21.3181 59.4807V72.384C21.3181 73.1448 21.5005 73.6382 21.7175 73.9669C21.9376 74.3001 22.236 74.5282 22.5629 74.687C22.8947 74.8482 23.2393 74.9291 23.5103 74.9678C23.6433 74.9868 23.7519 74.9947 23.8233 74.9979C23.8588 74.9995 23.8846 74.9999 23.8989 75L23.9105 75L23.9195 74.9997H68.6793L68.6874 75L68.6999 75C68.7142 74.9999 68.74 74.9995 68.7755 74.9979C68.8469 74.9947 68.9556 74.9868 69.0885 74.9678C69.3595 74.9291 69.7041 74.8482 70.036 74.687C70.3628 74.5282 70.6612 74.3001 70.8813 73.9669C71.0983 73.6382 71.2807 73.1448 71.2807 72.384V59.4746L71.2807 59.4735L71.2807 59.4718L71.2806 59.462C71.2804 59.4534 71.2801 59.4399 71.2795 59.4219C71.2794 59.4161 71.2791 59.4097 71.2789 59.4029C71.2769 59.3474 71.2727 59.2602 71.2638 59.145C71.2462 58.9144 71.2102 58.5726 71.137 58.1475C70.9904 57.2959 70.6959 56.1202 70.1068 54.8398C68.9414 52.3068 66.6087 49.3246 61.8596 47.6167L51.3637 44.8384L51.8755 42.905L62.4534 45.705L62.4931 45.7192C67.8416 47.6294 70.5613 51.0427 71.9237 54.0038C72.6 55.4739 72.9383 56.8228 73.108 57.808C73.193 58.3014 73.2361 58.7061 73.258 58.9924C73.269 59.1357 73.2747 59.2496 73.2776 59.3305C73.279 59.371 73.2798 59.4032 73.2802 59.4267L73.2806 59.4555L73.2807 59.4648L73.2807 59.4683V59.4697C73.2807 59.4703 73.2807 59.4709 72.2807 59.4709C73.2807 59.4709 73.2807 59.4709 73.2807 59.471V72.384C73.2807 73.4827 73.0111 74.371 72.5502 75.069C72.0923 75.7624 71.4869 76.2057 70.9098 76.486C70.3377 76.7639 69.7784 76.8895 69.3714 76.9477C69.1654 76.9771 68.9916 76.9902 68.8652 76.9959C68.8019 76.9987 68.75 76.9997 68.7113 77C68.692 77.0001 68.676 77 68.6634 76.9998L68.6565 76.9997H23.9423L23.9354 76.9998C23.9229 77 23.9068 77.0001 23.8875 77C23.8489 76.9997 23.7969 76.9987 23.7336 76.9959C23.6073 76.9902 23.4334 76.9771 23.2274 76.9477C22.8204 76.8895 22.2611 76.7639 21.6891 76.486C21.1119 76.2057 20.5065 75.7624 20.0486 75.069C19.5877 74.371 19.3181 73.4827 19.3181 72.384V59.4718C19.3181 59.4717 19.3181 59.4709 20.3181 59.4709L19.3181 59.4718V59.4596L20.3168 59.4708C19.3182 59.4596 19.3182 59.4591 19.3182 59.4585L19.3182 59.4571L19.3183 59.4537L19.3184 59.4444L19.3191 59.4157C19.3198 59.3923 19.3209 59.3602 19.3228 59.3198C19.3266 59.2391 19.3335 59.1254 19.3459 58.9824C19.3706 58.6965 19.4176 58.2924 19.5068 57.7996C19.6849 56.8156 20.0331 55.4685 20.7155 54.0003C22.0893 51.0446 24.806 47.6315 30.1026 45.7203L30.1438 45.7055L40.7233 42.905Z" fill="#3A3A3C"/>
<path fill-rule="evenodd" clip-rule="evenodd" d="M61.8799 75.9997V64.1196H63.8799V75.9997H61.8799Z" fill="#3A3A3C"/>
<path d="M51.9296 54.822C49.3469 54.822 47.1775 56.6815 46.661 59.1608C46.2477 56.6815 44.0783 54.822 41.4957 54.822C38.4998 54.822 36.1238 57.198 36.1238 60.1939C36.1238 61.3302 36.537 62.3633 37.1569 63.293C38.0866 64.636 43.7684 71.1443 46.661 71.1443C49.3469 71.1443 55.5452 64.5327 56.475 62.9831C56.9915 62.1567 57.3014 61.2269 57.3014 60.1939C57.3014 57.198 54.9254 54.822 51.9296 54.822Z" fill="#42B650"/>
<path fill-rule="evenodd" clip-rule="evenodd" d="M35.1238 60.1939C35.1238 56.6457 37.9476 53.822 41.4957 53.822C43.6532 53.822 45.5731 54.9144 46.6949 56.5927C47.8484 54.9208 49.7611 53.822 51.9296 53.822C55.4777 53.822 58.3014 56.6457 58.3014 60.1939C58.3014 61.4344 57.9277 62.543 57.3276 63.5058C57.0386 63.9845 56.4208 64.7469 55.6704 65.5809C54.8974 66.44 53.9298 67.434 52.9046 68.3798C51.8831 69.3222 50.7837 70.2361 49.7486 70.921C49.231 71.2635 48.7108 71.5612 48.21 71.7761C47.7192 71.9867 47.1866 72.1443 46.661 72.1443C45.6238 72.1443 44.5139 71.5882 43.5346 70.9404C42.5135 70.2648 41.4561 69.3664 40.4858 68.4489C38.554 66.6222 36.8503 64.6071 36.3347 63.8623L36.3248 63.8477C35.6308 62.8067 35.1238 61.5829 35.1238 60.1939ZM41.4957 55.822C39.0521 55.822 37.1238 57.7503 37.1238 60.1939C37.1238 61.0749 37.4414 61.9148 37.9839 62.7308C38.4055 63.3367 40.0024 65.2393 41.8599 66.9957C42.7879 67.8731 43.7514 68.6857 44.6382 69.2724C45.5669 69.8868 46.2518 70.1443 46.661 70.1443C46.8068 70.1443 47.0555 70.0952 47.4214 69.9382C47.7773 69.7854 48.1893 69.5546 48.645 69.253C49.5566 68.6498 50.5684 67.814 51.5485 66.9098C52.5248 66.009 53.449 65.0596 54.1836 64.2432C54.9365 63.4064 55.4395 62.7653 55.6175 62.4686L55.627 62.4531C56.0572 61.7647 56.3014 61.0163 56.3014 60.1939C56.3014 57.7503 54.3731 55.822 51.9296 55.822C49.8411 55.822 48.0641 57.3288 47.64 59.3648C47.5418 59.8359 47.122 60.1703 46.6408 60.1606C46.1597 60.1509 45.7537 59.7999 45.6746 59.3252C45.3421 57.3302 43.5916 55.822 41.4957 55.822Z" fill="#3A3A3C"/>
<path d="M80.4419 42.322C79.3055 42.322 78.2724 43.1485 78.0658 44.2848C77.8592 43.1485 76.8262 42.322 75.6898 42.322C74.3468 42.322 73.2105 43.3551 73.2105 44.698C73.2105 45.2146 73.4171 45.7311 73.727 46.1443C74.1402 46.7641 76.7228 49.76 78.0658 49.76C79.3055 49.76 82.0947 46.6609 82.508 46.041C82.7834 45.6278 82.9212 45.1801 82.9212 44.698C82.9212 43.3551 81.7848 42.322 80.4419 42.322Z" fill="#42B650"/>
<path fill-rule="evenodd" clip-rule="evenodd" d="M72.2105 44.698C72.2105 42.7482 73.8508 41.322 75.6898 41.322C76.5856 41.322 77.4372 41.683 78.0658 42.2858C78.6945 41.683 79.5461 41.322 80.4419 41.322C82.2809 41.322 83.9212 42.7482 83.9212 44.698C83.9212 45.3838 83.7215 46.0235 83.34 46.5957C83.072 46.9977 82.2087 47.9876 81.2828 48.8605C80.8116 49.3048 80.2905 49.7513 79.7864 50.0934C79.5342 50.2646 79.2672 50.4229 78.9978 50.5412C78.7381 50.6553 78.4144 50.76 78.0658 50.76C77.4164 50.76 76.7912 50.4241 76.3261 50.1152C75.8205 49.7794 75.3113 49.3416 74.857 48.9077C73.9771 48.0671 73.1876 47.128 72.9112 46.723C72.5071 46.1762 72.2105 45.4628 72.2105 44.698ZM75.6898 43.322C74.8429 43.322 74.2105 43.962 74.2105 44.698C74.2105 44.9563 74.3193 45.2674 74.527 45.5443C74.5381 45.5591 74.5488 45.5742 74.5591 45.5896C74.7117 45.8186 75.406 46.6662 76.2385 47.4615C76.6494 47.854 77.0634 48.2039 77.4327 48.4492C77.6167 48.5714 77.7716 48.6555 77.8946 48.7067C77.9856 48.7445 78.0381 48.7555 78.0578 48.7587C78.0736 48.755 78.1174 48.7435 78.1936 48.71C78.3156 48.6564 78.473 48.5677 78.6631 48.4387C79.0437 48.1804 79.478 47.8134 79.9108 47.4053C80.7928 46.5738 81.5307 45.7042 81.6759 45.4863C81.8454 45.2321 81.9212 44.9765 81.9212 44.698C81.9212 43.962 81.2888 43.322 80.4419 43.322C79.7718 43.322 79.1668 43.8194 79.0497 44.4637C78.9632 44.9392 78.5491 45.2848 78.0658 45.2848C77.5825 45.2848 77.1684 44.9392 77.0819 44.4637C76.9648 43.8194 76.3599 43.322 75.6898 43.322Z" fill="#3A3A3C"/>
</svg>
