<svg width="66" height="75" viewBox="0 0 66 75" fill="none" xmlns="http://www.w3.org/2000/svg">
<path d="M46.6313 57.0819H28.5713V68.2426H46.6313V57.0819Z" fill="#42B650"/>
<path d="M43.892 68.2427C43.892 71.388 41.254 74.026 38.1087 74.026C34.8619 74.026 32.3254 71.388 32.3254 68.2427H43.892Z" fill="#42B650"/>
<path d="M39.8337 44.9067C39.8337 46.9359 41.5586 48.6607 43.5878 48.6607C45.617 48.6607 47.2404 47.1388 47.3419 45.1096C48.0521 45.6169 48.8638 45.9213 49.7769 45.9213C51.8061 45.9213 53.531 44.2979 53.531 42.1672C53.531 41.2541 53.1251 40.3409 52.5164 39.7322C55.0529 39.5292 57.0821 37.3985 57.0821 34.862C57.0821 33.4416 56.4733 32.1226 55.5602 31.2094C55.6955 31.2771 55.8308 31.3109 55.9661 31.3109C57.9953 31.3109 59.7201 29.5861 59.7201 27.5568C59.7201 25.4262 57.9953 23.8028 55.9661 23.8028C55.8984 23.8028 55.797 23.8028 55.6617 23.8028C56.5748 22.8896 57.0821 21.6721 57.0821 20.3531C57.0821 17.7151 55.1544 15.6859 52.6179 15.483C53.1252 14.7727 53.531 13.961 53.531 13.0479C53.531 10.9172 51.8061 9.29385 49.7769 9.29385C48.8638 9.29385 47.9506 9.59822 47.3419 10.1055C47.139 8.27923 45.5156 6.85876 43.5878 6.85876C41.5586 6.85876 39.8337 8.58361 39.8337 10.6128V44.9067Z" fill="#EEE063"/>
<path d="M35.4708 44.9067C35.4708 46.9359 33.746 48.6607 31.7167 48.6607C29.6875 48.6607 28.0641 47.1388 27.9627 45.1096C27.3539 45.6169 26.4408 45.9213 25.5276 45.9213C23.4984 45.9213 21.7736 44.2979 21.7736 42.1672C21.7736 41.2541 22.1794 40.3409 22.7882 39.7322C20.2517 39.5292 18.2224 37.3985 18.2224 34.862C18.2224 33.4416 18.8312 32.1226 19.7444 31.2094C19.6091 31.2771 19.4738 31.3109 19.3385 31.3109C17.3093 31.3109 15.5845 29.5861 15.5845 27.5568C15.5845 25.4262 17.3093 23.8028 19.3385 23.8028C19.4738 23.8028 19.5753 23.8028 19.6429 23.8028C18.7298 22.8896 18.2224 21.6721 18.2224 20.3531C18.2224 17.7151 20.1502 15.6859 22.6867 15.483C22.1794 14.7727 21.7736 13.961 21.7736 13.0479C21.7736 10.9172 23.4984 9.29385 25.5276 9.29385C26.4408 9.29385 27.3539 9.59822 27.9627 10.1055C28.2671 8.27923 29.789 6.85876 31.7167 6.85876C33.746 6.85876 35.4708 8.58361 35.4708 10.6128V44.9067Z" fill="#EEE063"/>
<path fill-rule="evenodd" clip-rule="evenodd" d="M31.3516 67.2687H44.8661V68.2427C44.8661 71.9259 41.7921 75 38.1088 75C34.313 75 31.3516 71.9148 31.3516 68.2427V67.2687ZM33.3988 69.2167C33.8458 71.3827 35.754 73.052 38.1088 73.052C40.3837 73.052 42.3499 71.3759 42.8144 69.2167H33.3988Z" fill="#3A3A3C"/>
<path fill-rule="evenodd" clip-rule="evenodd" d="M38.109 0C53.3587 0 65.7673 12.4085 65.7673 27.6583C65.7673 37.4272 60.6298 45.9281 52.9921 50.868C50.8425 52.6586 49.6183 54.7991 48.9303 56.5074C48.5845 57.366 48.3768 58.109 48.2562 58.6323C48.196 58.8936 48.1578 59.0991 48.1351 59.2357C48.1247 59.2977 48.1176 59.3455 48.113 59.3776V66.5179C48.113 67.1313 47.947 67.6551 47.6494 68.0767C47.358 68.4895 46.9811 68.7476 46.6418 68.9078C46.305 69.0669 45.9808 69.1415 45.7495 69.1779C45.6315 69.1965 45.5311 69.2061 45.4567 69.2111C45.4194 69.2137 45.3881 69.215 45.3639 69.2158L45.3328 69.2165L45.3213 69.2167L45.3167 69.2167L45.3146 69.2167C45.3141 69.2167 45.3127 69.2167 45.3127 68.3111V69.2167H30.8038V68.3076C30.8038 69.2167 30.8043 69.2167 30.8038 69.2167H30.8018L30.7997 69.2167L30.7948 69.2167L30.7832 69.2165C30.7745 69.2164 30.7641 69.2161 30.752 69.2157C30.7279 69.2149 30.697 69.2135 30.6603 69.2109C30.5872 69.2056 30.4892 69.1957 30.3742 69.1765C30.1487 69.1389 29.8331 69.0619 29.5058 68.8983C29.1746 68.7327 28.8139 68.469 28.538 68.0553C28.2581 67.6355 28.1049 67.1195 28.1049 66.5179V59.3787C28.1004 59.3468 28.0933 59.2985 28.0829 59.2369C28.0601 59.1007 28.0216 58.8957 27.9607 58.6348C27.839 58.1125 27.6286 57.3704 27.2772 56.5127C26.5778 54.8059 25.3296 52.6637 23.1289 50.8709C15.4828 45.9273 10.4507 37.4219 10.4507 27.6583H12.3987C12.3987 36.7471 17.087 44.6641 24.2288 49.2622L24.273 49.2907L24.3139 49.3237C26.8571 51.3799 28.2868 53.8387 29.0798 55.7742C29.4767 56.7428 29.7165 57.586 29.8579 58.1925C29.9287 58.496 29.975 58.7412 30.0041 58.9142C30.0186 59.0007 30.0288 59.0693 30.0356 59.1183C30.0391 59.1428 30.0416 59.1623 30.0434 59.1768L30.0456 59.1946L30.0463 59.2006L30.0466 59.2028C30.0466 59.2032 30.0468 59.2046 29.079 59.3141L30.053 59.3142V66.5179C30.053 66.7786 30.1154 66.9095 30.1589 66.9747C30.2065 67.0461 30.2769 67.1059 30.377 67.1559C30.4808 67.2078 30.5965 67.2386 30.6944 67.255C30.7411 67.2627 30.7778 67.2662 30.7991 67.2678C30.806 67.2683 30.811 67.2685 30.814 67.2687H45.3044C45.308 67.2685 45.3152 67.2682 45.3256 67.2675C45.3511 67.2658 45.3935 67.2619 45.4466 67.2536C45.5578 67.2361 45.6902 67.2029 45.81 67.1463C45.9273 67.0909 46.0068 67.0257 46.0579 66.9533C46.1027 66.8899 46.165 66.7668 46.165 66.5179V59.3151L47.139 59.3141C46.1712 59.2046 46.1712 59.2042 46.1713 59.2038L46.1716 59.2006L46.1723 59.1947L46.1745 59.177C46.1763 59.1627 46.1788 59.1432 46.1822 59.1189C46.189 59.0701 46.1991 59.0017 46.2135 58.9154C46.2423 58.7428 46.2881 58.4981 46.3579 58.195C46.4974 57.5895 46.7335 56.7472 47.1233 55.7796C47.9019 53.8466 49.3038 51.3879 51.7947 49.3302L51.8392 49.2935L51.8877 49.2622C59.0359 44.6599 63.8192 36.7399 63.8192 27.6583C63.8192 13.4844 52.2829 1.94805 38.109 1.94805V0ZM47.139 59.3141L46.1713 59.2038L46.165 59.2592V59.3141H47.139ZM29.079 59.3141L30.053 59.3142V59.2592L30.0468 59.2046L29.079 59.3141Z" fill="#3A3A3C"/>
<path fill-rule="evenodd" clip-rule="evenodd" d="M7.16312 11.9724C7.70106 11.9724 8.13715 12.4085 8.13715 12.9464C8.13715 15.8685 10.5522 18.263 13.3523 18.263C13.8902 18.263 14.3263 18.6991 14.3263 19.237C14.3263 19.775 13.8902 20.2111 13.3523 20.2111C10.5316 20.2111 8.13715 22.5248 8.13715 25.4262C8.13715 25.9641 7.70106 26.4002 7.16312 26.4002C6.62519 26.4002 6.1891 25.9641 6.1891 25.4262C6.1891 22.5144 3.88576 20.2111 0.974026 20.2111C0.436086 20.2111 0 19.775 0 19.237C0 18.6991 0.436086 18.263 0.974026 18.263C3.86524 18.263 6.1891 15.8789 6.1891 12.9464C6.1891 12.4085 6.62519 11.9724 7.16312 11.9724ZM7.17416 16.5869C6.55321 17.6744 5.66154 18.587 4.58693 19.2244C5.66003 19.8456 6.55244 20.7377 7.17413 21.8105C7.80772 20.7369 8.71236 19.8453 9.78515 19.2244C8.71091 18.5874 7.80703 17.6752 7.17416 16.5869Z" fill="#3A3A3C"/>
<path fill-rule="evenodd" clip-rule="evenodd" d="M14.7727 0C15.3107 0 15.7468 0.436086 15.7468 0.974026C15.7468 3.86524 18.1309 6.18913 21.0633 6.18913C21.6013 6.18913 22.0374 6.62522 22.0374 7.16316C22.0374 7.7011 21.6013 8.13718 21.0633 8.13718C18.1413 8.13718 15.7468 10.5522 15.7468 13.3523C15.7468 13.8902 15.3107 14.3263 14.7727 14.3263C14.2348 14.3263 13.7987 13.8902 13.7987 13.3523C13.7987 10.5316 11.485 8.13718 8.58365 8.13718C8.04571 8.13718 7.60962 7.7011 7.60962 7.16316C7.60962 6.62522 8.04571 6.18913 8.58365 6.18913C11.4954 6.18913 13.7987 3.88577 13.7987 0.974026C13.7987 0.436086 14.2348 0 14.7727 0ZM14.7854 4.58694C14.1642 5.66004 13.2721 6.55246 12.1994 7.17415C13.2729 7.80774 14.1645 8.71237 14.7854 9.78515C15.4224 8.71092 16.3346 7.80704 17.4229 7.17419C16.3353 6.55323 15.4228 5.66155 14.7854 4.58694Z" fill="#3A3A3C"/>
<path fill-rule="evenodd" clip-rule="evenodd" d="M50.081 62.8246H26.0347V60.8766H50.081V62.8246Z" fill="#3A3A3C"/>
<path fill-rule="evenodd" clip-rule="evenodd" d="M51.5017 58.056H24.6145V56.1079H51.5017V58.056Z" fill="#3A3A3C"/>
<path fill-rule="evenodd" clip-rule="evenodd" d="M31.7166 7.8327C30.301 7.8327 29.1555 8.8725 28.9233 10.2656L28.6441 11.9412L27.339 10.8537C26.9315 10.5141 26.2495 10.2678 25.5275 10.2678C24.019 10.2678 22.7475 11.4722 22.7475 13.0478C22.7475 13.6669 23.0228 14.2777 23.4792 14.9167L24.4792 16.3166L22.7643 16.4538C20.7309 16.6165 19.1964 18.226 19.1964 20.353C19.1964 21.4151 19.6021 22.3844 20.3316 23.1139L21.9943 24.7767H19.3392C17.8307 24.7767 16.5584 25.9811 16.5584 27.5567C16.5584 29.048 17.8471 30.3368 19.3384 30.3368C19.3267 30.3368 19.3168 30.338 19.3096 30.3395L20.433 31.8981C19.6902 32.6408 19.1964 33.7167 19.1964 34.8619C19.1964 36.8729 20.8176 38.5973 22.8658 38.7611L24.9683 38.9293L23.4768 40.4208C23.0422 40.8555 22.7475 41.5242 22.7475 42.1671C22.7475 43.7428 24.019 44.9471 25.5275 44.9471C26.2495 44.9471 26.9315 44.7008 27.339 44.3612L28.8379 43.1121L28.9354 45.0608C29.0106 46.5643 30.199 47.6866 31.7166 47.6866C33.2079 47.6866 34.4967 46.3978 34.4967 44.9066V10.6127C34.4967 9.12146 33.2079 7.8327 31.7166 7.8327ZM27.3966 8.66803C28.151 7.0434 29.7596 5.88464 31.7166 5.88464C34.2838 5.88464 36.4447 8.04558 36.4447 10.6127V44.9066C36.4447 47.4737 34.2838 49.6347 31.7166 49.6347C29.6785 49.6347 27.9508 48.3982 27.281 46.5902C26.7236 46.791 26.1198 46.8952 25.5275 46.8952C22.9776 46.8952 20.7994 44.8528 20.7994 42.1671C20.7994 41.5462 20.9418 40.9323 21.1902 40.376C18.9091 39.5595 17.2483 37.3896 17.2483 34.8619C17.2483 33.8585 17.5017 32.9019 17.9331 32.0635C16.0291 31.4503 14.6104 29.6369 14.6104 27.5567C14.6104 25.3961 16.0201 23.6517 17.8991 23.0523C17.4744 22.2325 17.2483 21.3132 17.2483 20.353C17.2483 17.721 18.8699 15.578 21.1773 14.8033C20.9512 14.2769 20.7994 13.6899 20.7994 13.0478C20.7994 10.3621 22.9776 8.31973 25.5275 8.31973C26.161 8.31973 26.8075 8.43896 27.3966 8.66803Z" fill="#3A3A3C"/>
<path fill-rule="evenodd" clip-rule="evenodd" d="M25.5277 10.2679C24.0191 10.2679 22.7476 11.4722 22.7476 13.0479C22.7476 14.5392 24.0364 15.8279 25.5277 15.8279V17.776C22.9605 17.776 20.7996 15.6151 20.7996 13.0479C20.7996 10.3622 22.9778 8.31982 25.5277 8.31982C28.1963 8.31982 30.2558 10.3793 30.2558 13.0479H28.3077C28.3077 11.4552 27.1204 10.2679 25.5277 10.2679Z" fill="#3A3A3C"/>
<path fill-rule="evenodd" clip-rule="evenodd" d="M23.0924 16.457C20.8909 16.457 19.1963 18.1516 19.1963 20.3531C19.1963 22.4664 20.9041 24.2492 23.0924 24.2492C25.2808 24.2492 26.9885 22.4664 26.9885 20.3531H28.9366C28.9366 23.5158 26.383 26.1972 23.0924 26.1972C19.8019 26.1972 17.2483 23.5158 17.2483 20.3531C17.2483 17.0757 19.815 14.5089 23.0924 14.5089V16.457Z" fill="#3A3A3C"/>
<path fill-rule="evenodd" clip-rule="evenodd" d="M19.3384 24.7768C17.8299 24.7768 16.5584 25.9812 16.5584 27.5568C16.5584 29.0481 17.8471 30.3368 19.3384 30.3368V32.2849C16.7712 32.2849 14.6104 30.124 14.6104 27.5568C14.6104 24.8711 16.7884 22.8287 19.3384 22.8287V24.7768Z" fill="#3A3A3C"/>
<path fill-rule="evenodd" clip-rule="evenodd" d="M23.0924 30.9659C20.8909 30.9659 19.1963 32.6605 19.1963 34.862C19.1963 36.9753 20.9041 38.7581 23.0924 38.7581V40.7061C19.8019 40.7061 17.2483 38.0246 17.2483 34.862C17.2483 31.5846 19.815 29.0178 23.0924 29.0178C26.3698 29.0178 28.9366 31.5846 28.9366 34.862H26.9885C26.9885 32.6605 25.2939 30.9659 23.0924 30.9659Z" fill="#3A3A3C"/>
<path fill-rule="evenodd" clip-rule="evenodd" d="M25.5277 39.3871C24.0364 39.3871 22.7476 40.6759 22.7476 42.1672C22.7476 43.7428 24.0191 44.9472 25.5277 44.9472C27.1204 44.9472 28.3077 43.7599 28.3077 42.1672H30.2558C30.2558 44.8358 28.1963 46.8952 25.5277 46.8952C22.9778 46.8952 20.7996 44.8529 20.7996 42.1672C20.7996 39.6 22.9605 37.4391 25.5277 37.4391V39.3871Z" fill="#3A3A3C"/>
<path fill-rule="evenodd" clip-rule="evenodd" d="M28.9368 44.9066C28.9368 46.4151 30.1412 47.6867 31.7169 47.6867C33.2081 47.6867 34.4969 46.3979 34.4969 44.9066H36.445C36.445 47.4738 34.284 49.6347 31.7169 49.6347C29.0312 49.6347 26.9888 47.4565 26.9888 44.9066H28.9368Z" fill="#3A3A3C"/>
<path fill-rule="evenodd" clip-rule="evenodd" d="M38.8596 10.6127C38.8596 8.04558 41.0206 5.88464 43.5877 5.88464C45.4999 5.88464 47.2002 7.00917 47.9423 8.65476C48.522 8.43436 49.1557 8.31973 49.7768 8.31973C52.3267 8.31973 54.5049 10.3621 54.5049 13.0478C54.5049 13.6899 54.3532 14.2769 54.1271 14.8033C56.4345 15.578 58.056 17.721 58.056 20.353C58.056 21.3132 57.83 22.2325 57.4053 23.0523C59.2843 23.6517 60.6941 25.3961 60.6941 27.5567C60.6941 29.6369 59.2753 31.4503 57.3712 32.0635C57.8026 32.9019 58.056 33.8585 58.056 34.8619C58.056 37.3896 56.3953 39.5595 54.1141 40.376C54.3625 40.9323 54.5049 41.5462 54.5049 42.1671C54.5049 44.8528 52.3267 46.8952 49.7768 46.8952C49.1519 46.8952 48.5681 46.7803 48.0282 46.5768C47.362 48.3921 45.6309 49.6347 43.5877 49.6347C41.0206 49.6347 38.8596 47.4737 38.8596 44.9066V10.6127ZM43.5877 7.8327C42.0964 7.8327 40.8077 9.12146 40.8077 10.6127V44.9066C40.8077 46.3978 42.0964 47.6866 43.5877 47.6866C45.1053 47.6866 46.2938 46.5643 46.369 45.0608L46.458 43.2812L47.9079 44.3169C48.477 44.7234 49.0943 44.9471 49.7768 44.9471C51.2854 44.9471 52.5569 43.7428 52.5569 42.1671C52.5569 41.5242 52.2622 40.8555 51.8275 40.4208L50.3361 38.9293L52.4386 38.7611C54.4868 38.5973 56.108 36.8729 56.108 34.8619C56.108 33.7167 55.6141 32.6408 54.8714 31.8981L55.9947 30.3395C55.9876 30.338 55.9777 30.3368 55.966 30.3368C57.4573 30.3368 58.746 29.048 58.746 27.5567C58.746 25.9811 57.4745 24.7767 55.966 24.7767H53.3101L54.9729 23.1139C55.7023 22.3845 56.108 21.4151 56.108 20.353C56.108 18.2259 54.5735 16.6165 52.5401 16.4538L50.8253 16.3166L51.8252 14.9167C52.2816 14.2778 52.5569 13.6669 52.5569 13.0478C52.5569 11.4722 51.2854 10.2678 49.7768 10.2678C49.0549 10.2678 48.3728 10.5141 47.9653 10.8537L46.5738 12.0134L46.3737 10.213C46.2285 8.90619 45.046 7.8327 43.5877 7.8327Z" fill="#3A3A3C"/>
<path fill-rule="evenodd" clip-rule="evenodd" d="M45.0486 13.0479C45.0486 10.3793 47.108 8.31982 49.7766 8.31982C52.3265 8.31982 54.5047 10.3622 54.5047 13.0479C54.5047 15.6151 52.3438 17.776 49.7766 17.776V15.8279C51.2679 15.8279 52.5567 14.5392 52.5567 13.0479C52.5567 11.4722 51.2852 10.2679 49.7766 10.2679C48.1839 10.2679 46.9966 11.4551 46.9966 13.0479H45.0486Z" fill="#3A3A3C"/>
<path fill-rule="evenodd" clip-rule="evenodd" d="M52.2116 14.5089C55.489 14.5089 58.0557 17.0757 58.0557 20.3531C58.0557 23.5158 55.5021 26.1972 52.2116 26.1972C48.921 26.1972 46.3674 23.5158 46.3674 20.3531H48.3155C48.3155 22.4664 50.0232 24.2492 52.2116 24.2492C54.3999 24.2492 56.1077 22.4664 56.1077 20.3531C56.1077 18.1516 54.4131 16.457 52.2116 16.457V14.5089Z" fill="#3A3A3C"/>
<path fill-rule="evenodd" clip-rule="evenodd" d="M55.9658 22.8287C58.5157 22.8287 60.6939 24.8711 60.6939 27.5568C60.6939 30.124 58.533 32.2849 55.9658 32.2849V30.3368C57.4571 30.3368 58.7459 29.0481 58.7459 27.5568C58.7459 25.9812 57.4743 24.7768 55.9658 24.7768V22.8287Z" fill="#3A3A3C"/>
<path fill-rule="evenodd" clip-rule="evenodd" d="M46.3674 34.862C46.3674 31.5846 48.9342 29.0178 52.2116 29.0178C55.489 29.0178 58.0557 31.5846 58.0557 34.862C58.0557 38.0246 55.5021 40.7061 52.2116 40.7061V38.7581C54.3999 38.7581 56.1077 36.9753 56.1077 34.862C56.1077 32.6605 54.4131 30.9659 52.2116 30.9659C50.0101 30.9659 48.3155 32.6605 48.3155 34.862H46.3674Z" fill="#3A3A3C"/>
<path fill-rule="evenodd" clip-rule="evenodd" d="M49.7766 37.4391C52.3438 37.4391 54.5047 39.6 54.5047 42.1672C54.5047 44.8529 52.3265 46.8952 49.7766 46.8952C47.108 46.8952 45.0486 44.8358 45.0486 42.1672H46.9966C46.9966 43.7599 48.1839 44.9472 49.7766 44.9472C51.2852 44.9472 52.5567 43.7428 52.5567 42.1672C52.5567 40.6759 51.2679 39.3871 49.7766 39.3871V37.4391Z" fill="#3A3A3C"/>
<path fill-rule="evenodd" clip-rule="evenodd" d="M43.5877 49.6347C41.0206 49.6347 38.8596 47.4738 38.8596 44.9066H40.8077C40.8077 46.3979 42.0964 47.6867 43.5877 47.6867C45.1634 47.6867 46.3678 46.4151 46.3678 44.9066H48.3158C48.3158 47.4565 46.2734 49.6347 43.5877 49.6347Z" fill="#3A3A3C"/>
</svg>
