<svg width="24" height="24" viewBox="0 0 24 24" fill="none" xmlns="http://www.w3.org/2000/svg">
<path d="M8.95445 0C9.63057 0 10.2745 0.161507 10.8218 0.452221C11.2726 0.678331 11.659 0.969044 11.9809 1.32436C12.3351 0.969044 12.7214 0.678331 13.1722 0.452221C13.7195 0.161507 14.3635 0 15.0396 0C16.1665 0 17.229 0.484522 17.9695 1.25976C18.7422 2.03499 19.193 3.10094 19.193 4.2638C19.193 4.81292 19.0964 5.32974 18.9032 5.81427C18.7744 6.23419 18.549 6.5895 18.2914 6.94482L18.0983 7.17093L18.0661 7.20323C18.0339 7.23553 18.0017 7.23553 17.9695 7.26783C17.9695 7.30013 17.9373 7.33244 17.9051 7.36474L12.2707 13.1144L11.9809 13.4051L11.7233 13.1144L6.08895 7.36474C6.05676 7.33244 6.02456 7.30013 6.02456 7.26783L5.96017 7.20323H5.92797L5.89578 7.17093L5.7026 6.97712V6.94482C5.44502 6.5895 5.21965 6.23419 5.05867 5.81427C4.89768 5.32974 4.80109 4.81292 4.80109 4.2638C4.80109 3.10094 5.25184 2.03499 6.02456 1.25976C6.76508 0.484522 7.79537 0 8.95445 0ZM3.93179 12.0162L2.70832 8.39839C2.61173 8.13997 2.45074 7.94616 2.25757 7.84926C2.09658 7.72005 1.87121 7.68775 1.64583 7.75236C1.45265 7.81696 1.32387 7.94616 1.25947 8.10767C1.13069 8.36608 1.13069 8.6568 1.19508 8.91521L2.54733 14.2127C2.61173 14.5034 2.70832 14.7618 2.93369 15.0525C3.19127 15.3755 3.60982 15.7954 4.28595 16.3445C5.47722 17.3136 5.83138 17.6366 5.89578 17.7012C6.02456 17.7981 6.66849 18.3795 6.66849 19.4132V20.0915H10.4677V17.9273C10.4677 16.7645 10.4677 15.8923 10.2745 15.2463C10.1135 14.6649 9.75936 14.2127 9.05104 13.825L6.05676 12.1777C5.76699 12.0162 5.47722 11.9515 5.21965 11.9838C4.99427 12.0162 4.80109 12.1131 4.67231 12.3069C4.64011 12.3392 4.60791 12.3715 4.60791 12.4038C4.47913 12.5653 4.44693 12.7268 4.51132 12.8883C4.54352 13.0821 4.64011 13.2436 4.80109 13.3728C4.83329 13.4051 4.86549 13.4051 4.89768 13.4374L7.02265 14.7295C7.18364 14.8264 7.24803 15.0848 7.15144 15.2463C7.02265 15.4401 6.79728 15.5047 6.6041 15.3755L4.51132 14.0834C4.44693 14.0511 4.38254 14.0188 4.31814 13.9865C4.02838 13.7281 3.803 13.4051 3.73861 13.0498C3.67421 12.7268 3.73861 12.3392 3.93179 12.0162ZM5.89578 20.1238V19.4132C5.89578 18.6703 5.41283 18.3149 5.41283 18.3149L5.38063 18.2826V18.2503C5.38063 18.2503 5.18745 18.0888 3.803 16.9583C3.06248 16.3445 2.61173 15.9246 2.32196 15.537C2.03219 15.1171 1.87121 14.7941 1.77462 14.4065L0.454559 9.10902C0.357969 8.6891 0.357969 8.20458 0.551148 7.81696C0.647738 7.52625 0.840917 7.30013 1.09849 7.17093C1.0341 6.75101 1.09849 6.36339 1.29167 6.04038C1.48485 5.68506 1.83901 5.39435 2.25757 5.29744C2.67612 5.16824 3.09468 5.23284 3.44884 5.45895C3.803 5.65276 4.06057 5.97577 4.22155 6.39569L5.99236 11.3055C6.12115 11.3701 6.28213 11.4347 6.41092 11.4993L9.4374 13.1467C10.3067 13.6635 10.7897 14.245 11.015 15.0202C11.2404 15.7954 11.2404 16.6999 11.2404 17.9273V20.2207C11.3048 20.253 11.337 20.2853 11.3692 20.3176C11.498 20.4468 11.5624 20.6083 11.5624 20.8022V23.2894C11.5624 23.4832 11.498 23.6447 11.3692 23.8062C11.2404 23.9354 11.0472 24 10.854 24H6.15335C5.96017 24 5.76699 23.9354 5.6382 23.8062C5.50942 23.6447 5.44502 23.4832 5.44502 23.2894V20.8022C5.44502 20.6083 5.50942 20.4468 5.6382 20.3176C5.73479 20.2207 5.79919 20.1561 5.89578 20.1238ZM1.83901 6.94482C2.12878 6.94482 2.41855 7.04172 2.64392 7.17093C2.99809 7.36474 3.28785 7.72005 3.44884 8.13997L4.54352 11.4024C4.7367 11.3055 4.92988 11.2409 5.12306 11.2086L3.48103 6.65411C3.41664 6.42799 3.25566 6.23419 3.06248 6.10498C2.8693 6.00808 2.67612 5.97577 2.45074 6.04038C2.22537 6.10498 2.06439 6.23419 1.9678 6.42799C1.87121 6.5895 1.83901 6.75101 1.83901 6.94482ZM6.21774 23.2248H10.7897V20.8668H6.21774V23.2248ZM19.2251 11.4024L20.3198 8.13997C20.4808 7.72005 20.7384 7.36474 21.0925 7.17093C21.3501 7.04172 21.6077 6.94482 21.8975 6.94482C21.9297 6.75101 21.8975 6.5895 21.8009 6.42799C21.7043 6.23419 21.5111 6.10498 21.2857 6.04038C21.0925 5.97577 20.8672 6.00808 20.7062 6.10498C20.513 6.23419 20.352 6.42799 20.2554 6.65411L18.6134 11.2086C18.8388 11.2409 19.032 11.3055 19.2251 11.4024ZM22.6702 7.17093C22.9277 7.30013 23.0887 7.52625 23.2175 7.81696C23.3785 8.20458 23.4107 8.6891 23.3141 9.10902L21.9619 14.4065C21.8653 14.7941 21.7365 15.1171 21.4467 15.537C21.1247 15.9246 20.7062 16.3445 19.9657 16.9583C18.5812 18.0888 18.388 18.2503 18.388 18.2503L18.3558 18.2826L18.3236 18.3149C18.3236 18.3149 17.8407 18.6703 17.8407 19.4132V20.1238C17.9373 20.1561 18.0339 20.2207 18.1305 20.3176C18.2593 20.4468 18.3236 20.6083 18.3236 20.8022V23.2894C18.3236 23.4832 18.2593 23.6447 18.1305 23.8062C18.0017 23.9354 17.8085 24 17.6153 24H12.9146C12.7214 24 12.5283 23.9354 12.3995 23.8062C12.2707 23.6447 12.2063 23.4832 12.2063 23.2894V20.8022C12.2063 20.6083 12.2707 20.4468 12.3995 20.3176C12.4317 20.2853 12.4639 20.253 12.4961 20.2207V17.9273C12.4961 16.6999 12.5283 15.7954 12.7536 15.0202C12.979 14.245 13.4298 13.6635 14.3313 13.1467L17.3256 11.4993C17.4865 11.4347 17.6153 11.3701 17.7763 11.3055L19.5471 6.39569C19.6759 5.97577 19.9657 5.65276 20.3198 5.45895C20.674 5.23284 21.0603 5.16824 21.4789 5.29744C21.9297 5.39435 22.2516 5.68506 22.477 6.04038C22.6702 6.36339 22.7346 6.75101 22.6702 7.17093ZM17.068 20.0915V19.4132C17.068 18.3795 17.7119 17.7981 17.8729 17.7012C17.9373 17.6366 18.2914 17.3136 19.4827 16.3445C20.1588 15.7954 20.5774 15.3755 20.8028 15.0525C21.0603 14.7618 21.1569 14.5034 21.2213 14.2127L22.5414 8.91521C22.638 8.6568 22.6058 8.36608 22.5092 8.10767C22.4448 7.94616 22.2838 7.81696 22.1228 7.75236C21.8975 7.68775 21.6721 7.72005 21.4789 7.84926C21.2857 7.94616 21.1247 8.13997 21.0603 8.39839L19.8369 12.0162C20.0301 12.3392 20.0945 12.7268 20.0301 13.0498C19.9335 13.4051 19.7403 13.7281 19.4505 13.9865C19.3861 14.0188 19.3217 14.0511 19.2573 14.0834L17.1324 15.3755C16.9714 15.5047 16.7138 15.4401 16.6172 15.2463C16.5206 15.0848 16.5528 14.8264 16.746 14.7295L18.871 13.4374C18.9032 13.4051 18.9354 13.4051 18.9676 13.3728C19.1286 13.2436 19.2251 13.0821 19.2573 12.8883C19.2895 12.7268 19.2573 12.5653 19.1608 12.4038C19.1608 12.3715 19.1286 12.3392 19.0964 12.3069C18.9676 12.1131 18.7422 12.0162 18.549 11.9838C18.2593 11.9515 17.9695 12.0162 17.7119 12.1777L14.6854 13.825C14.0093 14.2127 13.6551 14.6649 13.462 15.2463C13.301 15.8923 13.2688 16.7645 13.2688 17.9273V20.0915H17.068ZM12.979 23.2248H17.5509V20.8668H12.979V23.2248ZM11.4336 3.48856H12.5605C12.6892 3.48856 12.7858 3.52086 12.8824 3.61777C12.9468 3.68237 13.0112 3.81157 13.0112 3.94078V5.03903H14.1059C14.2347 5.03903 14.3313 5.07133 14.4279 5.16824C14.4923 5.23284 14.5566 5.36205 14.5566 5.49125V6.6218C14.5566 6.75101 14.4923 6.84791 14.4279 6.94482C14.3313 7.04172 14.2347 7.07402 14.1059 7.07402H13.0112V8.17227C13.0112 8.30148 12.9468 8.39839 12.8824 8.49529C12.7858 8.59219 12.6892 8.6245 12.5605 8.6245H11.4336C11.3048 8.6245 11.176 8.59219 11.1116 8.49529C11.015 8.39839 10.9828 8.30148 10.9828 8.17227V7.07402H9.88815C9.75936 7.07402 9.63057 7.04172 9.56618 6.94482C9.46959 6.84791 9.4374 6.75101 9.4374 6.6218V5.49125C9.4374 5.36205 9.46959 5.23284 9.56618 5.16824C9.63057 5.07133 9.75936 5.03903 9.88815 5.03903H10.9828V3.94078C10.9828 3.81157 11.015 3.68237 11.1116 3.61777C11.176 3.52086 11.3048 3.48856 11.4336 3.48856ZM12.2385 4.2638H11.7233V5.42665V5.81427H11.3692H10.2101V6.29879H11.3692H11.7233V6.68641V7.84926H12.2385V6.68641V6.29879H12.6249H13.7839V5.81427H12.6249H12.2385V5.42665V4.2638ZM10.4677 1.13055C10.0169 0.904441 9.50179 0.775236 8.95445 0.775236C8.02075 0.775236 7.18364 1.16285 6.5719 1.80888C5.92797 2.42261 5.57381 3.29475 5.57381 4.2638C5.57381 4.71602 5.6382 5.13594 5.79919 5.52355C5.96017 5.94347 6.18554 6.29879 6.44312 6.6218L6.50751 6.68641L6.5719 6.75101C6.5719 6.75101 6.6041 6.78331 6.6363 6.81561L11.9809 12.3069L17.3577 6.81561C17.3899 6.78331 17.4221 6.75101 17.4221 6.75101C17.4543 6.71871 17.4543 6.68641 17.4865 6.68641L17.5187 6.6218C17.8085 6.29879 18.0339 5.94347 18.1949 5.52355C18.3558 5.13594 18.4202 4.71602 18.4202 4.2638C18.4202 3.29475 18.0339 2.42261 17.4221 1.80888C16.8104 1.16285 15.9733 0.775236 15.0396 0.775236C14.4923 0.775236 13.9771 0.904441 13.4942 1.13055C13.0434 1.38896 12.6249 1.74428 12.3029 2.1642L11.9809 2.58412L11.6912 2.1642C11.3692 1.74428 10.9506 1.38896 10.4677 1.13055Z" fill="#FFFFFF"/>
</svg>
