<svg width="51" height="51" viewBox="0 0 51 51" fill="none" xmlns="http://www.w3.org/2000/svg">
<path fill-rule="evenodd" clip-rule="evenodd" d="M17.7912 9.69981C22.2635 9.69981 25.8923 13.3188 25.8923 17.7912C25.8923 22.2635 22.2635 25.8923 17.7912 25.8923C13.3188 25.8923 9.69981 22.2635 9.69981 17.7912C9.69981 16.6535 9.93519 15.555 10.3667 14.5742C10.8473 14.8979 11.4162 15.0842 12.0438 15.0842C13.6915 15.0842 15.0254 13.7504 15.0254 12.0929C15.0254 11.4652 14.8292 10.8767 14.4958 10.3962C15.506 9.945 16.624 9.69981 17.7912 9.69981ZM17.7912 0C27.6185 0 35.5921 7.96385 35.5921 17.7912C35.5921 21.626 34.376 25.1763 32.3163 28.0892L36.3963 32.1692L37.9656 30.6L48.7246 41.359C49.9212 42.3594 50.6862 43.86 50.6862 45.5469C50.6862 48.5579 48.244 51 45.2331 51C43.811 51 42.5262 50.4606 41.5552 49.5779C41.4277 49.4602 41.31 49.3425 41.2021 49.2248L30.2763 38.299L32.1692 36.3963L28.0892 32.3163C25.1763 34.376 21.626 35.5921 17.7912 35.5921C7.96385 35.5921 0 27.6185 0 17.7912C0 7.96385 7.96385 0 17.7912 0ZM17.7912 4.99212C24.8625 4.99212 30.6 10.7198 30.6 17.7912C30.6 24.8625 24.8625 30.6 17.7912 30.6C10.7198 30.6 4.99212 24.8625 4.99212 17.7912C4.99212 10.7198 10.7198 4.99212 17.7912 4.99212Z" fill="#40B751"/>
</svg>
