<svg width="63" height="51" viewBox="0 0 63 51" fill="none" xmlns="http://www.w3.org/2000/svg">
<path d="M21.6567 16.6708C21.607 23.7227 25.3023 29.9106 30.8935 33.3697C36.5374 29.9292 40.326 23.7507 40.3757 16.6988C40.4285 9.64696 36.7301 3.45911 31.139 0C25.4981 3.44357 21.7096 9.61899 21.6567 16.6708Z" fill="#40B751"/>
<path d="M43.4556 32.1016C38.5171 36.9717 36.7487 43.8091 38.1784 50.0529C44.4408 51.5291 51.3373 49.8291 56.2757 44.9621C61.2173 40.092 62.9857 33.2515 61.5561 27.0077C55.2905 25.5315 48.3972 27.2315 43.4556 32.1016Z" fill="#40B751"/>
<path d="M18.4555 32.4279C23.3629 37.326 25.1189 44.2038 23.7016 50.4818C17.4765 51.9674 10.6298 50.258 5.72237 45.3631C0.814978 40.465 -0.944101 33.5872 0.476215 27.3092C6.70136 25.8236 13.5481 27.533 18.4555 32.4279Z" fill="#40B751"/>
</svg>
