<svg width="73" height="77" viewBox="0 0 73 77" fill="none" xmlns="http://www.w3.org/2000/svg">
<path d="M51.3125 73.6042C51.3125 74.9583 50.2708 76 48.9167 76H3.39582C2.04165 76 1 74.9583 1 73.6042V9.95833C1 8.60416 2.04165 7.5625 3.39582 7.5625H34.6458L34.75 22.7708L51.3125 22.875V73.6042Z" fill="#EAE1A1"/>
<path fill-rule="evenodd" clip-rule="evenodd" d="M3.39582 8.5625C2.59394 8.5625 2 9.15644 2 9.95833V73.6042C2 74.4061 2.59395 75 3.39582 75H48.9167C49.7185 75 50.3125 74.4061 50.3125 73.6042V23.3142L34.2562 8.5625H3.39582ZM0 9.95833C0 8.05188 1.48936 6.5625 3.39582 6.5625H35.0355L52.3125 22.4358V73.6042C52.3125 75.5106 50.8231 77 48.9167 77H3.39582C1.48936 77 0 75.5106 0 73.6042V9.95833Z" fill="#3A3A3C"/>
<path fill-rule="evenodd" clip-rule="evenodd" d="M35.5417 7.5625V20.7917C35.5417 21.6498 36.1903 22.2917 36.9375 22.2917H51.3125V24.2917H36.9375C34.9764 24.2917 33.5417 22.6419 33.5417 20.7917V7.5625H35.5417Z" fill="#3A3A3C"/>
<path fill-rule="evenodd" clip-rule="evenodd" d="M49.0625 8.70833C49.0625 3.88521 52.9477 0 57.7709 0C62.594 0 66.4792 3.88521 66.4792 8.70833C66.4792 13.5315 62.594 17.4167 57.7709 17.4167C52.9477 17.4167 49.0625 13.5315 49.0625 8.70833ZM57.7709 2C54.0523 2 51.0625 4.98979 51.0625 8.70833C51.0625 12.4269 54.0523 15.4167 57.7709 15.4167C61.4894 15.4167 64.4792 12.4269 64.4792 8.70833C64.4792 4.98979 61.4894 2 57.7709 2Z" fill="#3A3A3C"/>
<path fill-rule="evenodd" clip-rule="evenodd" d="M45.7487 8.70833C45.8831 8.8597 46.0419 9.03437 46.2235 9.2273C46.8797 9.92432 47.8276 10.8532 48.9924 11.78C51.3496 13.6556 54.4618 15.4167 57.7708 15.4167C61.0781 15.4167 64.1634 13.6571 66.493 11.7833C67.6443 10.8572 68.579 9.92906 69.2253 9.23256C69.4064 9.03736 69.5644 8.86087 69.6977 8.70833C69.5644 8.5558 69.4064 8.37931 69.2253 8.18411C68.579 7.48761 67.6443 6.55945 66.493 5.63338C64.1634 3.7596 61.0781 2 57.7708 2C54.4618 2 51.3496 3.76107 48.9924 5.63667C47.8276 6.56349 46.8797 7.49235 46.2235 8.18937C46.0419 8.3823 45.8831 8.55697 45.7487 8.70833ZM71 8.70833C71.7922 8.09811 71.792 8.09785 71.7918 8.09756L71.7897 8.09485L71.785 8.08881L71.7691 8.06849C71.7557 8.05135 71.7365 8.0271 71.7117 7.99621C71.6622 7.93444 71.5903 7.84607 71.4971 7.7349C71.3109 7.51264 71.0393 7.19873 70.6913 6.82371C69.9965 6.07489 68.991 5.07597 67.7465 4.07495C65.2844 2.09457 61.7552 0 57.7708 0C53.7881 0 50.2337 2.0931 47.7471 4.07166C46.49 5.07193 45.4718 6.07015 44.7673 6.81844C44.4145 7.19319 44.1389 7.50684 43.9499 7.72887C43.8553 7.83993 43.7824 7.92819 43.7321 7.98986C43.7069 8.0207 43.6875 8.0449 43.6738 8.06199L43.6577 8.08223L43.653 8.08824L43.6514 8.0902C43.6512 8.09048 43.6504 8.09145 44.4375 8.70833L43.6504 8.09145L43.1669 8.70833L43.6504 9.32522L44.4375 8.70833C43.6504 9.32521 43.6502 9.32493 43.6504 9.32522L43.6514 9.32647L43.653 9.32843L43.6577 9.33444L43.6738 9.35468C43.6875 9.37177 43.7069 9.39597 43.7321 9.42681C43.7824 9.48847 43.8553 9.57674 43.9499 9.6878C44.1389 9.90983 44.4145 10.2235 44.7673 10.5982C45.4718 11.3465 46.49 12.3447 47.7471 13.345C50.2337 15.3236 53.7881 17.4167 57.7708 17.4167C61.7552 17.4167 65.2844 15.3221 67.7465 13.3417C68.991 12.3407 69.9965 11.3418 70.6913 10.593C71.0393 10.2179 71.3109 9.90403 71.4971 9.68177C71.5903 9.5706 71.6622 9.48223 71.7117 9.42045C71.7365 9.38957 71.7557 9.36532 71.7691 9.34818L71.785 9.32786L71.7897 9.32181L71.7912 9.31984C71.7915 9.31955 71.7922 9.31856 71 8.70833ZM71 8.70833L71.7922 9.31856L72.2623 8.70833L71.7918 8.09756L71 8.70833Z" fill="#3A3A3C"/>
<path fill-rule="evenodd" clip-rule="evenodd" d="M57.7708 6.79163C56.7606 6.79163 55.8542 7.69807 55.8542 8.7083C55.8542 9.67198 56.7129 10.5208 57.7708 10.5208C58.8288 10.5208 59.6875 9.67198 59.6875 8.7083H61.6875C61.6875 10.8696 59.8379 12.5208 57.7708 12.5208C55.7038 12.5208 53.8542 10.8696 53.8542 8.7083C53.8542 6.59352 55.656 4.79163 57.7708 4.79163V6.79163Z" fill="#3A3A3C"/>
<path fill-rule="evenodd" clip-rule="evenodd" d="M16.9375 16.375H6.10419V14.375H16.9375V16.375Z" fill="#3A3A3C"/>
<path fill-rule="evenodd" clip-rule="evenodd" d="M19.9583 22.7292H6.10419V20.7292H19.9583V22.7292Z" fill="#3A3A3C"/>
<path d="M35.2709 37.9792H24.0208V26.8334C30.2708 26.8334 35.2709 31.8334 35.2709 37.9792Z" fill="#42B650"/>
<path d="M29.6458 43.6041C29.6458 49.75 24.6458 54.75 18.5 54.75C12.3541 54.75 7.35413 49.75 7.35413 43.6041C7.35413 37.3541 12.3541 32.3541 18.5 32.3541V43.6041H29.6458Z" fill="#42B650"/>
<path fill-rule="evenodd" clip-rule="evenodd" d="M23.0208 25.8334H24.0208C30.817 25.8334 36.2709 31.275 36.2709 37.9792V38.9792H23.0208V25.8334ZM25.0208 27.8806V36.9792H34.2219C33.7494 32.1805 29.9115 28.3448 25.0208 27.8806Z" fill="#3A3A3C"/>
<path fill-rule="evenodd" clip-rule="evenodd" d="M17.5 33.4031C12.3787 33.9073 8.35413 38.2447 8.35413 43.6041C8.35413 49.1977 12.9064 53.75 18.5 53.75C23.7561 53.75 28.0929 49.7303 28.5969 44.6041H17.5V33.4031ZM6.35413 43.6041C6.35413 36.8079 11.7958 31.3541 18.5 31.3541H19.5V42.6041H30.6458V43.6041C30.6458 50.3022 25.1981 55.75 18.5 55.75C11.8019 55.75 6.35413 50.3022 6.35413 43.6041Z" fill="#3A3A3C"/>
<path fill-rule="evenodd" clip-rule="evenodd" d="M25.7916 62.5208H6.10419V60.5208H25.7916V62.5208Z" fill="#3A3A3C"/>
<path fill-rule="evenodd" clip-rule="evenodd" d="M31.4167 68.9792H6.10419V66.9792H31.4167V68.9792Z" fill="#3A3A3C"/>
<path d="M48.5 64.7499C54.5416 64.7499 59.5417 59.8541 59.5417 53.7083C59.5417 47.6666 54.5416 42.7708 48.5 42.7708C42.4583 42.7708 37.4583 47.6666 37.4583 53.7083C37.4583 59.8541 42.4583 64.7499 48.5 64.7499Z" fill="white"/>
<path fill-rule="evenodd" clip-rule="evenodd" d="M36.4583 53.7083C36.4583 47.102 41.9184 41.7708 48.5 41.7708C55.0815 41.7708 60.5417 47.102 60.5417 53.7083C60.5417 60.4125 55.0877 65.7499 48.5 65.7499C41.9122 65.7499 36.4583 60.4125 36.4583 53.7083ZM48.5 43.7708C42.9982 43.7708 38.4583 48.2312 38.4583 53.7083C38.4583 59.2957 43.0044 63.7499 48.5 63.7499C53.9955 63.7499 58.5417 59.2957 58.5417 53.7083C58.5417 48.2312 54.0017 43.7708 48.5 43.7708Z" fill="#3A3A3C"/>
<path fill-rule="evenodd" clip-rule="evenodd" d="M36.4583 53.7083C36.4583 47.102 41.9184 41.7708 48.5 41.7708C55.0815 41.7708 60.5417 47.102 60.5417 53.7083C60.5417 60.4125 55.0877 65.7499 48.5 65.7499C41.9122 65.7499 36.4583 60.4125 36.4583 53.7083ZM48.5 43.7708C42.9982 43.7708 38.4583 48.2312 38.4583 53.7083C38.4583 59.2957 43.0044 63.7499 48.5 63.7499C53.9955 63.7499 58.5417 59.2957 58.5417 53.7083C58.5417 48.2312 54.0017 43.7708 48.5 43.7708Z" fill="#3A3A3C"/>
<path fill-rule="evenodd" clip-rule="evenodd" d="M48.5 48.3541C45.5212 48.3541 43.1458 50.8124 43.1458 53.7083H41.1458C41.1458 49.7292 44.3954 46.3541 48.5 46.3541V48.3541Z" fill="#3A3A3C"/>
<path fill-rule="evenodd" clip-rule="evenodd" d="M58.9387 65.4571L55.6053 62.1238L57.0196 60.7096L60.3529 64.0429L58.9387 65.4571Z" fill="#3A3A3C"/>
<path fill-rule="evenodd" clip-rule="evenodd" d="M63.1734 64.5857C62.6331 63.9854 61.7627 63.9854 61.2224 64.5857L61.2048 64.6053L59.6237 66.1864C59.0768 66.7333 59.0768 67.5585 59.6237 68.1055L65.3715 73.8532L65.3891 73.8728C65.9293 74.4731 66.7998 74.4731 67.34 73.8728L67.3576 73.8532L68.9387 72.2722C69.4857 71.7252 69.4857 70.9 68.9387 70.353L63.191 64.6053L63.1734 64.5857ZM64.6408 63.2267C63.3102 61.7718 61.0856 61.7718 59.755 63.2267L58.2095 64.7721C56.8815 66.1002 56.8815 68.1917 58.2095 69.5197L63.9216 75.2318C65.2523 76.6867 67.4768 76.6867 68.8075 75.2318L70.353 73.6864C71.681 72.3583 71.681 70.2668 70.353 68.9388L64.6408 63.2267Z" fill="#3A3A3C"/>
</svg>
