<svg width="24" height="21" viewBox="0 0 24 21" fill="none" xmlns="http://www.w3.org/2000/svg">
<path fill-rule="evenodd" clip-rule="evenodd" d="M11.7738 9.04985C15.7815 9.04985 19.1429 12.9284 20.0479 18.1643C20.0802 18.3259 20.0802 18.5199 20.0802 18.7138C19.9186 19.8773 18.5288 20.7177 16.9128 20.6207C16.5572 20.5884 16.234 20.5238 15.9431 20.4268H15.9108C14.6826 20.0066 13.2928 19.7481 11.7738 19.7481C10.2547 19.7481 8.80023 20.0066 7.53972 20.4591C7.11954 20.5884 6.63473 20.653 6.14992 20.6207C4.53387 20.5238 3.37032 19.4895 3.49961 18.3259C3.49961 18.2936 3.49961 18.229 3.53193 18.1967C4.40459 12.9607 7.76596 9.04985 11.7738 9.04985ZM8.4447 0C9.34969 0 10.1577 0.517134 10.7072 1.32516C11.2566 2.10086 11.5798 3.16745 11.5798 4.331C11.5798 5.49455 11.2566 6.56114 10.7072 7.33684C10.1577 8.14486 9.34969 8.662 8.4447 8.662C7.57204 8.662 6.76401 8.14486 6.21456 7.33684C5.6651 6.56114 5.30957 5.49455 5.30957 4.331C5.30957 3.16745 5.6651 2.10086 6.21456 1.32516C6.76401 0.517134 7.57204 0 8.4447 0ZM10.0931 1.74533C9.6729 1.16355 9.09112 0.775701 8.4447 0.775701C7.8306 0.775701 7.24883 1.16355 6.82866 1.74533C6.37616 2.42407 6.08528 3.32905 6.08528 4.331C6.08528 5.33295 6.37616 6.23793 6.82866 6.88435C7.24883 7.49845 7.8306 7.8863 8.4447 7.8863C9.09112 7.8863 9.6729 7.49845 10.0931 6.88435C10.5456 6.23793 10.8364 5.33295 10.8364 4.331C10.8364 3.32905 10.5456 2.42407 10.0931 1.74533ZM15.6199 0C16.5249 0 17.3006 0.517134 17.8824 1.32516C18.4319 2.10086 18.7551 3.16745 18.7551 4.331C18.7551 5.49455 18.4319 6.56114 17.8824 7.33684C17.3006 8.14486 16.5249 8.662 15.6199 8.662C14.715 8.662 13.9393 8.14486 13.3575 7.33684C12.808 6.56114 12.4848 5.49455 12.4848 4.331C12.4848 3.16745 12.808 2.10086 13.3575 1.32516C13.9393 0.517134 14.715 0 15.6199 0ZM17.236 1.74533C16.8158 1.16355 16.234 0.775701 15.6199 0.775701C15.0058 0.775701 14.4241 1.16355 14.0039 1.74533C13.5514 2.42407 13.2605 3.32905 13.2605 4.331C13.2605 5.33295 13.5514 6.23793 14.0039 6.88435C14.4241 7.49845 15.0058 7.8863 15.6199 7.8863C16.234 7.8863 16.8158 7.49845 17.236 6.88435C17.6885 6.23793 17.9794 5.33295 17.9794 4.331C17.9794 3.32905 17.6885 2.42407 17.236 1.74533ZM22.5043 6.4965C22.5366 6.4965 22.5689 6.4965 22.6336 6.52882C23.2477 6.75507 23.6678 7.30452 23.8618 7.95094C24.0557 8.59736 24.0557 9.37306 23.7971 10.1488C23.7971 10.2134 23.7648 10.278 23.7325 10.3427C23.4093 11.183 22.8598 11.8618 22.2457 12.2496C21.5993 12.7021 20.8559 12.8637 20.1772 12.6375C20.1449 12.6051 20.1125 12.6051 20.0802 12.6051C19.4661 12.3466 19.0136 11.8294 18.8197 11.1507C18.6258 10.5043 18.6258 9.76091 18.8843 8.98521C18.9167 8.92057 18.9167 8.8236 18.949 8.75896C19.2722 7.91862 19.8217 7.2722 20.4358 6.85203C21.0822 6.43186 21.8255 6.27025 22.5043 6.4965ZM22.3427 7.23988C22.3104 7.23988 22.3104 7.23988 22.278 7.20756C21.8255 7.07828 21.3407 7.20756 20.8559 7.49845C20.3711 7.82166 19.9509 8.37111 19.6924 9.04985C19.66 9.08217 19.6277 9.14681 19.6277 9.21145C19.4015 9.82555 19.4015 10.4396 19.5631 10.9245C19.6924 11.377 19.9509 11.7325 20.3388 11.8618C20.3711 11.8618 20.3711 11.8941 20.4034 11.8941C20.8559 12.0234 21.3731 11.9264 21.8255 11.6032C22.3104 11.28 22.7629 10.7629 23.0214 10.0841C23.0214 10.0195 23.0537 9.95483 23.0861 9.89019C23.28 9.2761 23.28 8.662 23.1507 8.17719C22.9891 7.72469 22.7305 7.40148 22.3427 7.23988ZM1.72196 7.20756C1.72196 7.23988 1.68964 7.23988 1.65731 7.23988C1.26946 7.40148 1.0109 7.72469 0.881613 8.17719C0.720009 8.662 0.720009 9.2761 0.946255 9.89019C0.946255 9.95483 0.978576 10.0195 1.0109 10.0841C1.26946 10.7629 1.68964 11.28 2.20677 11.6032C2.65926 11.9264 3.14408 12.0234 3.59657 11.8941C3.62889 11.8941 3.62889 11.8618 3.66121 11.8618C4.04906 11.7325 4.30763 11.377 4.46923 10.9245C4.59852 10.4396 4.59852 9.82555 4.40459 9.21145C4.37227 9.14681 4.33995 9.08217 4.33995 9.04985C4.08138 8.37111 3.62889 7.82166 3.14408 7.49845C2.69158 7.20756 2.17445 7.07828 1.72196 7.20756ZM1.39875 6.52882C1.43107 6.4965 1.46339 6.4965 1.49571 6.4965C2.17445 6.27025 2.91783 6.43186 3.56425 6.85203C4.17834 7.2722 4.7278 7.91862 5.05101 8.75896C5.08333 8.8236 5.11565 8.92057 5.11565 8.98521C5.37422 9.76091 5.40654 10.5043 5.21261 11.1507C4.98637 11.8294 4.56619 12.3466 3.9521 12.6051C3.88746 12.6051 3.85513 12.6051 3.82281 12.6375C3.14408 12.8637 2.43302 12.7021 1.75428 12.2496C1.14018 11.8618 0.590725 11.183 0.267516 10.3427C0.235195 10.278 0.235195 10.2134 0.202874 10.1488C-0.0556929 9.37306 -0.0556929 8.59736 0.138232 7.95094C0.332158 7.30452 0.78465 6.75507 1.39875 6.52882ZM16.4603 12.1203C15.1674 10.6659 13.5514 9.82555 11.7738 9.82555C10.0284 9.82555 8.41238 10.6659 7.08722 12.1203C5.72975 13.6394 4.69548 15.8372 4.27531 18.3259V18.3583C4.27531 18.3906 4.27531 18.3583 4.27531 18.3906C4.27531 18.3906 4.27531 18.3906 4.27531 18.4229V18.4552C4.24299 18.7461 4.40459 19.037 4.66316 19.2633C4.98637 19.5541 5.43886 19.7804 6.02063 19.845C6.08528 19.845 6.14992 19.845 6.18224 19.845C6.37616 19.8773 6.57009 19.845 6.76401 19.845C6.95794 19.8127 7.15187 19.7804 7.31347 19.7157C7.99221 19.4895 8.70327 19.2956 9.44665 19.1663C10.2224 19.037 10.9981 18.9724 11.7738 18.9724C12.5495 18.9724 13.3252 19.037 14.0362 19.1663C14.7796 19.2956 15.523 19.4572 16.1694 19.6834L16.2017 19.7157C16.2987 19.7481 16.428 19.7804 16.5572 19.8127C16.6865 19.8127 16.8481 19.845 16.9774 19.845C17.6238 19.9097 18.2056 19.7481 18.6258 19.4895C19.0136 19.2633 19.2722 18.94 19.3045 18.6168C19.3045 18.5522 19.3045 18.5199 19.3045 18.4552C19.3045 18.4229 19.3045 18.3906 19.3045 18.3259L19.2722 18.2936C18.852 15.8049 17.8501 13.6394 16.4603 12.1203Z" fill="#7E8490"/>
</svg>
