<svg width="16" height="15" viewBox="0 0 16 15" fill="none" xmlns="http://www.w3.org/2000/svg">
<path d="M4.15168 6.16484C4.65859 7.07838 5.24208 7.95571 6.00104 8.75644C6.76139 9.56136 7.70696 10.2939 8.93244 10.9191C9.02295 10.9637 9.10929 10.9637 9.18589 10.9331C9.30286 10.8885 9.42123 10.7924 9.53821 10.6754C9.62873 10.5849 9.74153 10.4401 9.8599 10.2813C10.3306 9.66162 10.9141 8.89292 11.7371 9.27727C11.7552 9.28563 11.7691 9.29537 11.7872 9.30373L14.5334 10.8829C14.5418 10.8871 14.5515 10.8968 14.5599 10.901C14.922 11.1503 15.071 11.5347 15.0751 11.9691C15.0751 12.412 14.9122 12.9105 14.6727 13.3311C14.3566 13.8867 13.89 14.2544 13.3525 14.4981C12.8414 14.7334 12.2719 14.8602 11.7246 14.9409C10.8653 15.0676 10.0604 14.9869 9.23741 14.7334C8.4325 14.4842 7.62201 14.0733 6.73633 13.5261L6.67087 13.4843C6.26424 13.2308 5.82557 12.9593 5.39526 12.639C3.81746 11.4483 2.21181 9.72986 1.16598 7.83873C0.288648 6.25118 -0.190402 4.5369 0.0714046 2.9034C0.216234 2.00797 0.600588 1.1933 1.27042 0.655764C1.85392 0.18507 2.64073 -0.0725585 3.65871 0.0179596C3.77569 0.0263152 3.88013 0.0945519 3.93444 0.194818L5.69467 3.17078C5.9523 3.505 5.98433 3.83504 5.84368 4.16648C5.7267 4.43803 5.49135 4.6873 5.16967 4.92126C5.07497 5.00203 4.96217 5.08419 4.8438 5.17053C4.4497 5.45601 4.00268 5.78605 4.15586 6.17459L4.15168 6.16484Z" fill="white"/>
</svg>
