<svg width="75" height="75" viewBox="0 0 75 75" fill="none" xmlns="http://www.w3.org/2000/svg">
<path d="M39.1135 69.6642H67.2109L68.4282 74.0259H38.9106V59.4193C38.9106 52.4203 42.1565 49.6815 42.1565 49.6815L56.1546 35.8864C56.1546 35.8864 59.5019 31.829 62.545 34.9735C65.6894 38.0165 62.9507 40.8567 62.9507 40.8567C62.9507 40.8567 53.923 49.8844 47.5326 56.2748C47.5326 56.2748 58.7919 45.4213 61.5306 42.6825C64.2694 39.8423 64.0665 37.3065 64.0665 37.3065L58.8933 35.0749V15.8023L64.0665 11.6434C64.0665 11.6434 64.2694 7.1803 68.6311 7.1803C72.9928 7.1803 72.9928 11.1363 72.9928 11.1363C72.9928 11.1363 72.9928 37.3065 72.9928 41.161C72.9928 45.0155 71.4712 47.6528 71.4712 47.6528L62.0378 63.2738L63.1536 69.3599" fill="#EAE1A1"/>
<path d="M67.211 69.6642H38.9106V74.0259H67.211V69.6642Z" fill="#EEE063"/>
<path d="M34.9548 69.6642H6.75592L5.6401 74.0259H35.1577V59.4193C35.1577 52.4203 31.8104 49.6815 31.8104 49.6815L17.9138 35.8864C17.9138 35.8864 14.465 31.829 11.4219 34.9735C8.37886 38.0165 11.1176 40.8567 11.1176 40.8567C11.1176 40.8567 20.1453 49.8844 26.5357 56.2748C26.5357 56.2748 15.2764 45.4213 12.4363 42.6825C9.69751 39.8423 10.0019 37.3065 10.0019 37.3065L15.3779 34.0606V16.7152L10.0019 11.6434C10.0019 11.6434 9.79898 7.1803 5.43728 7.1803C1.07558 7.1803 0.974121 11.1363 0.974121 11.1363C0.974121 11.1363 0.974121 37.3065 0.974121 41.161C0.974121 45.0155 2.49565 47.6528 2.49565 47.6528L12.0306 63.2738L10.8133 69.3599" fill="#EAE1A1"/>
<path d="M35.1576 69.6642H6.75586V74.0259H35.1576V69.6642Z" fill="#EEE063"/>
<path fill-rule="evenodd" clip-rule="evenodd" d="M1.94805 11.1582V41.161C1.94805 42.9613 2.30369 44.479 2.65883 45.5444C2.83611 46.0762 3.01223 46.4923 3.14139 46.7706C3.20591 46.9097 3.25854 47.0141 3.2935 47.081C3.31097 47.1145 3.324 47.1385 3.33187 47.1528L3.336 47.1602L13.0603 63.0914L11.7683 69.551L9.85812 69.1689L11.0007 63.4562L1.65789 48.15L1.65186 48.1396L2.49549 47.6529C1.65186 48.1396 1.65202 48.1399 1.65186 48.1396L1.65119 48.1384L1.65038 48.137L1.64835 48.1335L1.64266 48.1234L1.62505 48.0918C1.61063 48.0656 1.59098 48.0292 1.56684 47.983C1.51859 47.8906 1.45236 47.7588 1.37424 47.5905C1.2181 47.2539 1.01385 46.7697 0.810746 46.1604C0.405125 44.9435 0 43.2152 0 41.161V11.1375C0 11.1373 0 11.1363 0.974026 11.1363C0.000320181 11.1113 0.000334173 11.1108 0.000348861 11.1102L0.000381315 11.109L0.00045824 11.1064L0.000665907 11.0999L0.00134145 11.0827C0.00192451 11.0693 0.00279652 11.052 0.00409507 11.0312C0.00669025 10.9896 0.0110005 10.9336 0.0181439 10.8652C0.0323965 10.7286 0.0581265 10.5409 0.104683 10.3185C0.196993 9.87772 0.375746 9.27915 0.726283 8.67156C1.46074 7.39851 2.88854 6.2063 5.43719 6.2063C8.04227 6.2063 9.48181 7.5816 10.2143 8.95302C10.5682 9.61569 10.7555 10.2678 10.8555 10.7474C10.9059 10.9893 10.9352 11.1931 10.9521 11.3402C10.9606 11.4138 10.9661 11.4737 10.9695 11.5176C10.9712 11.5395 10.9724 11.5574 10.9732 11.5711L10.9742 11.5885L10.9746 11.5947L10.9747 11.5972L10.9747 11.5983C10.9748 11.5988 10.9748 11.5992 10.0018 11.6435L10.9748 11.5992L10.9758 11.6213V37.3647L10.9699 37.4138C10.9699 37.4139 10.9699 37.4136 10.9699 37.4138C10.9697 37.4167 10.9693 37.4219 10.9689 37.4284C10.9684 37.4363 10.9678 37.4467 10.9673 37.4596C10.9654 37.507 10.9642 37.5878 10.9698 37.6979C10.9809 37.9181 11.019 38.2549 11.1325 38.6762C11.3569 39.51 11.8833 40.7018 13.1253 41.994C14.5538 43.3714 18.0668 46.758 21.227 49.8045L27.2111 55.5731C27.2112 55.5732 27.2116 55.5736 26.5356 56.2748C25.8597 56.9761 25.8596 56.976 25.8595 56.976L19.875 51.207C16.7051 48.1513 13.1802 44.7531 11.7601 43.3837L11.7473 43.3714L11.735 43.3587C10.2469 41.8155 9.55873 40.3243 9.25139 39.1827C9.09858 38.6151 9.04161 38.1404 9.02421 37.7963C9.01552 37.6243 9.01671 37.4848 9.02077 37.3824C9.02269 37.334 9.02526 37.2938 9.02773 37.2624V11.6746L9.02734 11.6691C9.02566 11.6476 9.02248 11.6116 9.0169 11.5632C9.00572 11.4662 8.98513 11.3213 8.94836 11.1448C8.87393 10.7875 8.73795 10.3239 8.49595 9.87076C8.03655 9.01062 7.1938 8.15435 5.43719 8.15435C3.62413 8.15435 2.82035 8.94012 2.41365 9.64505C2.19361 10.0265 2.07439 10.4169 2.01138 10.7178C1.98027 10.8664 1.964 10.9876 1.95566 11.0674C1.95151 11.1072 1.94939 11.1362 1.94836 11.1525L1.94805 11.1582ZM0.974026 11.1363L0.000320181 11.1113L0 11.1238V11.1363H0.974026Z" fill="#3A3A3C"/>
<path fill-rule="evenodd" clip-rule="evenodd" d="M12.5419 14.1844C12.1387 13.3175 11.4012 12.4659 9.89966 12.3078L10.1036 10.3705C12.4566 10.6182 13.6971 12.0488 14.3082 13.3628C14.6073 14.0059 14.7609 14.6252 14.8408 15.0787C14.881 15.3074 14.9034 15.4989 14.9158 15.637C14.922 15.7061 14.9258 15.7623 14.928 15.8033C14.9292 15.8239 14.9299 15.8407 14.9304 15.8536L14.931 15.8698L14.9312 15.8757L14.9312 15.878L14.9313 15.8791C14.9313 15.8795 14.9313 15.88 13.9575 15.9037L14.9313 15.8791L14.9316 15.8919V29.5974H12.9835V15.923L12.9829 15.9105C12.9818 15.8905 12.9796 15.8569 12.9756 15.8115C12.9674 15.7205 12.9517 15.584 12.9222 15.4164C12.8626 15.0775 12.7499 14.6317 12.5419 14.1844Z" fill="#3A3A3C"/>
<path fill-rule="evenodd" clip-rule="evenodd" d="M64.0571 8.95302C64.7896 7.5816 66.2291 6.2063 68.8342 6.2063C71.3434 6.2063 72.7445 7.40951 73.461 8.67975C73.8031 9.2863 73.9776 9.88332 74.0676 10.3224C74.1131 10.544 74.1382 10.7311 74.1521 10.8669C74.1591 10.935 74.1634 10.9907 74.1659 11.032C74.1672 11.0527 74.168 11.0698 74.1686 11.0831L74.1693 11.1001L74.1695 11.1065L74.1695 11.1091L74.1696 11.1103C74.1696 11.1108 74.1696 11.1113 73.1959 11.1363C74.1699 11.1363 74.1699 11.1364 74.1699 11.1366V41.161C74.1699 43.2152 73.7648 44.9435 73.3592 46.1604C73.1561 46.7697 72.9518 47.2539 72.7957 47.5905C72.7176 47.7588 72.6513 47.8906 72.6031 47.983C72.5789 48.0292 72.5593 48.0656 72.5449 48.0918L72.5272 48.1234L72.5216 48.1335L72.5195 48.137L72.5187 48.1384C72.5186 48.1387 72.518 48.1396 71.6744 47.6529L72.518 48.1396L72.5132 48.148L63.2656 63.4613L64.3147 69.1843L62.3986 69.5356L61.2163 63.0863L70.8329 47.162L70.838 47.1528C70.8459 47.1385 70.8589 47.1145 70.8764 47.081C70.9114 47.0141 70.964 46.9097 71.0285 46.7706C71.1577 46.4923 71.3338 46.0762 71.5111 45.5444C71.8662 44.479 72.2219 42.9613 72.2219 41.161V11.158L72.2215 11.1517C72.2205 11.135 72.2184 11.1058 72.2143 11.0657C72.206 10.9852 72.1899 10.8632 72.1593 10.7139C72.0972 10.4113 71.98 10.0193 71.7643 9.63686C71.365 8.92912 70.5852 8.15435 68.8342 8.15435C67.0776 8.15435 66.2348 9.01062 65.7754 9.87076C65.5334 10.3239 65.3975 10.7875 65.323 11.1448C65.2862 11.3213 65.2657 11.4662 65.2545 11.5632C65.2489 11.6116 65.2457 11.6476 65.244 11.6691L65.2436 11.6746V37.2784C65.2439 37.2834 65.2441 37.2887 65.2444 37.2944C65.2457 37.3262 65.2469 37.3677 65.247 37.4184C65.2473 37.5199 65.2435 37.6582 65.2291 37.8289C65.2003 38.1703 65.1291 38.6415 64.963 39.2049C64.6291 40.3372 63.9181 41.8206 62.4349 43.3587L62.4287 43.365L62.4225 43.3713C61.0461 44.7477 57.5397 48.1524 54.3851 51.2056C52.8061 52.7338 51.3128 54.1764 50.2142 55.2369C49.665 55.7672 49.2143 56.202 48.901 56.5042L48.4122 56.9756C48.4121 56.9757 48.4117 56.9761 47.7357 56.2748C47.0597 55.5736 47.0597 55.5735 47.0598 55.5734L47.5486 55.1021C47.8618 54.8 48.3122 54.3655 48.8612 53.8354C49.9594 52.7753 51.4521 51.3333 53.0303 49.8058C56.1851 46.7523 59.6717 43.3668 61.0386 42.0002C62.29 40.7005 62.8455 39.4983 63.0945 38.654C63.2199 38.2285 63.2692 37.8881 63.2879 37.6653C63.2973 37.5539 63.2991 37.4719 63.299 37.4236C63.2989 37.3994 63.2984 37.3837 63.2981 37.377C63.2981 37.3766 63.298 37.3762 63.298 37.3759L63.2956 37.3454V11.6213L63.2966 11.5992L64.2696 11.6435C63.2966 11.5992 63.2966 11.5988 63.2966 11.5983L63.2967 11.5972L63.2968 11.5947L63.2971 11.5885L63.2981 11.5711C63.299 11.5574 63.3002 11.5395 63.3019 11.5176C63.3053 11.4737 63.3107 11.4138 63.3192 11.3402C63.3362 11.1931 63.3655 10.9893 63.4159 10.7474C63.5158 10.2678 63.7032 9.61569 64.0571 8.95302ZM73.1959 11.1363L74.1699 11.1366V11.1238L74.1696 11.1113L73.1959 11.1363ZM65.2424 11.692C65.2424 11.6922 65.2424 11.6922 65.2424 11.692Z" fill="#3A3A3C"/>
<path fill-rule="evenodd" clip-rule="evenodd" d="M59.9201 13.3462C60.5573 12.0414 61.8201 10.6176 64.1675 10.3705L64.3714 12.3078C62.8643 12.4665 62.0984 13.3249 61.6705 14.201C61.4507 14.6511 61.327 15.099 61.2591 15.4386C61.2255 15.6067 61.2065 15.7436 61.196 15.8347C61.1909 15.8802 61.1878 15.9139 61.1863 15.934L61.1861 15.9363V29.5974H59.238V15.88L59.2392 15.8563L60.2121 15.9037C59.2392 15.8563 59.2392 15.8567 59.2392 15.8563L59.2393 15.8543L59.2394 15.852L59.2397 15.8462L59.2407 15.8299C59.2415 15.8171 59.2427 15.8003 59.2443 15.7798C59.2476 15.7388 59.2527 15.6828 59.2606 15.6137C59.2763 15.4759 59.3032 15.2847 59.3489 15.0565C59.4394 14.6037 59.6074 13.9865 59.9201 13.3462Z" fill="#3A3A3C"/>
<path fill-rule="evenodd" clip-rule="evenodd" d="M13.7999 34.7603C13.3056 34.801 12.734 35.0183 12.1218 35.6509L12.1163 35.6566L12.1106 35.6623C10.8533 36.9196 10.8509 38.0209 11.0668 38.7945C11.1838 39.214 11.3777 39.5702 11.5476 39.8251C11.6315 39.9509 11.7063 40.0473 11.7573 40.1091C11.7827 40.1399 11.8018 40.1617 11.8128 40.1739L11.8187 40.1803L27.2244 55.5861L25.847 56.9636L10.4293 41.5459C10.4292 41.5458 10.4288 41.5455 11.1176 40.8567C10.4164 41.5329 10.4161 41.5325 10.4157 41.5321L10.4149 41.5312L10.413 41.5293L10.4086 41.5247L10.3969 41.5122C10.3878 41.5024 10.3762 41.4898 10.3623 41.4743C10.3347 41.4435 10.2979 41.4013 10.2544 41.3485C10.1675 41.2431 10.0521 41.0938 9.92676 40.9057C9.67829 40.533 9.37764 39.989 9.19041 39.3181C8.79809 37.9123 8.94707 36.0744 10.7275 34.2904C11.6354 33.3547 12.634 32.9016 13.6401 32.8188C14.6245 32.7378 15.5222 33.0184 16.2445 33.3796C16.9683 33.7415 17.5661 34.2089 17.9761 34.5751C18.1834 34.7603 18.3484 34.9247 18.4635 35.045C18.5211 35.1052 18.5666 35.1548 18.5989 35.1908C18.6087 35.2017 18.6174 35.2114 18.6248 35.2198L32.4707 48.9646C32.4779 48.9709 32.4859 48.9779 32.4946 48.9857C32.5292 49.0164 32.5754 49.0587 32.6314 49.1129C32.7435 49.2214 32.8952 49.3777 33.0729 49.585C33.4284 49.9997 33.8878 50.6184 34.3423 51.4653C35.2542 53.1648 36.1317 55.7572 36.1317 59.4193V75H4.3855L5.99967 68.6902H34.1836V59.4193C34.1836 56.0825 33.3875 53.806 32.6257 52.3864C32.2433 51.6737 31.866 51.1703 31.5938 50.8528C31.4577 50.6939 31.3479 50.5816 31.2769 50.5129C31.2414 50.4786 31.2157 50.4552 31.2012 50.4424L31.1889 50.4316L31.1573 50.4058L17.1983 36.5487L17.1732 36.5191L17.1724 36.5183L17.17 36.5155L17.1496 36.4925C17.1299 36.4706 17.0983 36.436 17.0557 36.3915C16.9703 36.3022 16.8421 36.1742 16.6785 36.0281C16.3467 35.7318 15.8922 35.3814 15.3733 35.122C14.8531 34.8619 14.318 34.7177 13.7999 34.7603ZM34.1836 70.6383H7.51211L6.89464 73.0519H34.1836V70.6383ZM11.1176 40.8567L10.4164 41.5329L10.4226 41.5392L10.4293 41.5459L11.1176 40.8567Z" fill="#3A3A3C"/>
<path fill-rule="evenodd" clip-rule="evenodd" d="M63.4368 34.2846C62.5331 33.3554 61.544 32.902 60.5467 32.8189C59.5682 32.7374 58.6805 33.0201 57.9689 33.3832C57.2563 33.747 56.6706 34.2164 56.27 34.5836C56.0674 34.7693 55.9064 34.9342 55.7942 35.0549C55.7379 35.1154 55.6936 35.1651 55.662 35.2013C55.6552 35.2091 55.6489 35.2163 55.6433 35.2229L41.6962 48.9678C41.6873 48.9758 41.677 48.985 41.6654 48.9957C41.6316 49.0266 41.5867 49.069 41.5322 49.1234C41.4231 49.2322 41.2758 49.3888 41.1034 49.5963C40.7583 50.0114 40.3129 50.63 39.8726 51.4762C38.9892 53.174 38.1396 55.7625 38.1396 59.4193V75H69.9143L68.1535 68.6902H40.0877V59.4193C40.0877 56.0771 40.8611 53.7968 41.6007 52.3754C41.9719 51.6621 42.3379 51.1586 42.6015 50.8415C42.7333 50.6829 42.8396 50.5708 42.9081 50.5024C42.9423 50.4683 42.9671 50.4451 42.9809 50.4324L42.9924 50.4221L43.0165 50.4018L57.077 36.545L57.1073 36.5083L57.1081 36.5073L57.1089 36.5063L57.1299 36.482C57.1488 36.4603 57.1794 36.4259 57.2206 36.3816C57.3033 36.2927 57.4276 36.1652 57.5864 36.0196C57.9085 35.7243 58.3499 35.3759 58.8545 35.1184C59.3602 34.8603 59.8798 34.7182 60.3849 34.7602C60.8669 34.8004 61.4333 35.0156 62.0481 35.6509L62.0592 35.6624L62.0707 35.6735C62.7482 36.3291 63.0633 36.9275 63.197 37.4279C63.3311 37.9301 63.2988 38.3946 63.1891 38.8046C63.0778 39.2208 62.888 39.5745 62.7202 39.828C62.6375 39.953 62.5634 40.0488 62.513 40.1101C62.4878 40.1407 62.4689 40.1623 62.4581 40.1744L62.4526 40.1805L47.0469 55.5861L48.4244 56.9636L63.8421 41.5459C63.8422 41.5458 63.8425 41.5455 63.1538 40.8568L63.8421 41.5459L63.8488 41.5392L63.8549 41.5329L63.1538 40.8568C63.8549 41.5329 63.8553 41.5325 63.8557 41.5321L63.8565 41.5312L63.8583 41.5293L63.8628 41.5246L63.8746 41.512C63.8838 41.5021 63.8955 41.4894 63.9094 41.4739C63.9372 41.4428 63.974 41.4005 64.0176 41.3474C64.1047 41.2416 64.22 41.0917 64.3449 40.9029C64.5924 40.5287 64.8907 39.9822 65.071 39.3079C65.253 38.6275 65.3158 37.8114 65.0791 36.9252C64.8429 36.041 64.3245 35.147 63.4368 34.2846ZM40.0877 70.6383V73.0519H67.3482L66.6746 70.6383H40.0877Z" fill="#3A3A3C"/>
<path d="M52.0973 4.44154C52.0973 4.44154 46.214 -3.87613 37.0848 5.25302C28.0571 -3.87613 22.0725 4.44154 22.0725 4.44154C17.6093 10.5276 22.0725 14.585 22.0725 14.585L37.0848 29.5974L52.0973 14.585C52.0973 14.585 56.5604 10.5276 52.0973 4.44154Z" fill="#42B650"/>
<path fill-rule="evenodd" clip-rule="evenodd" d="M37.0885 3.89824C39.1996 1.94692 41.1869 0.840185 43.0241 0.335665C45.071 -0.226439 46.8677 -0.0230493 48.3439 0.507227C49.807 1.03282 50.9366 1.87174 51.6941 2.567C52.0748 2.91646 52.3677 3.23519 52.568 3.4701C52.6683 3.58774 52.7458 3.68492 52.8 3.75512C52.8271 3.79024 52.8485 3.81866 52.8639 3.83959L52.8827 3.86526C52.8837 3.86669 52.8849 3.86845 52.886 3.86988C55.2947 7.15695 55.3524 10.0128 54.7003 12.0877C54.382 13.1002 53.9062 13.8924 53.5105 14.432C53.3119 14.7028 53.1312 14.9131 52.9963 15.0593C52.9288 15.1325 52.8725 15.1899 52.8308 15.2311C52.8099 15.2517 52.7927 15.2683 52.7796 15.2807L52.7745 15.2855L37.085 30.9749L21.3955 15.2855L21.3904 15.2807C21.3773 15.2683 21.3601 15.2517 21.3392 15.2311C21.2975 15.1899 21.2412 15.1325 21.1737 15.0593C21.0388 14.9131 20.8581 14.7028 20.6595 14.432C20.2638 13.8924 19.7879 13.1002 19.4697 12.0877C18.8175 10.0124 18.8753 7.15572 21.2856 3.86775L21.292 3.85899L21.3109 3.83345C21.3266 3.81262 21.3482 3.78429 21.3756 3.74927C21.4306 3.67926 21.5091 3.58229 21.6107 3.46488C21.8134 3.23041 22.1097 2.9122 22.4942 2.56329C23.2591 1.86916 24.3974 1.03155 25.8655 0.506723C27.3465 -0.0226993 29.1461 -0.226687 31.1893 0.335836C33.0225 0.840562 34.9987 1.94749 37.0885 3.89824ZM52.0974 14.5851C51.4422 13.8644 51.4418 13.8647 51.4414 13.8651L51.4422 13.8644L52.0974 14.5851ZM51.3022 5.00406L51.2965 4.99644C51.2892 4.98644 51.2763 4.96927 51.2581 4.9457C51.2217 4.89852 51.1639 4.82591 51.0855 4.73395C50.9284 4.54965 50.6903 4.28989 50.3769 4.0022C49.746 3.42319 48.8341 2.75326 47.6853 2.34058C46.5495 1.93258 45.1637 1.76827 43.5399 2.21417C41.906 2.66286 39.9684 3.74711 37.7737 5.94181L37.0811 6.63441L36.3924 5.93795C34.2238 3.745 32.2998 2.66214 30.6722 2.214C29.0541 1.76852 27.665 1.93223 26.5213 2.34108C25.3648 2.75453 24.4426 3.42576 23.8033 4.00591C23.4857 4.29414 23.2439 4.55443 23.0841 4.73917C23.0044 4.83136 22.9456 4.90418 22.9084 4.95156C22.8898 4.97523 22.8767 4.99249 22.8692 5.00258L22.862 5.01221C22.8617 5.0126 22.862 5.01214 22.862 5.01221L22.8581 5.01762C20.8068 7.81483 20.8647 10.0291 21.3281 11.5036C21.5678 12.2662 21.9288 12.8687 22.2304 13.28C22.3806 13.4847 22.5137 13.6389 22.6054 13.7384C22.6512 13.788 22.6864 13.8237 22.708 13.845C22.7187 13.8556 22.726 13.8625 22.7294 13.8658C22.73 13.8663 22.7304 13.8667 22.7308 13.8671L22.745 13.88L37.085 28.22L51.425 13.88L51.4383 13.8679L51.4395 13.8668L51.4405 13.8658C51.444 13.8625 51.4513 13.8556 51.462 13.845C51.4835 13.8237 51.5188 13.788 51.5645 13.7384C51.6563 13.6389 51.7894 13.4847 51.9396 13.28C52.2412 12.8687 52.6022 12.2662 52.8418 11.5036C53.3053 10.0291 53.3632 7.81481 51.3119 5.0176L51.307 5.01087L51.3039 5.00646L51.3033 5.00563L51.3022 5.00406ZM22.7317 13.8679C22.7318 13.868 22.7317 13.868 22.7317 13.8679Z" fill="#3A3A3C"/>
</svg>
