<svg width="256" height="256" viewBox="0 0 256 256" fill="none" xmlns="http://www.w3.org/2000/svg">
<path d="M256 128C256 198.694 198.691 256 128 256C57.3067 256 0 198.694 0 128C0 57.3067 57.3067 0 128 0C198.691 0 256 57.3067 256 128Z" fill="white"/>
<path d="M130.835 37.9747C130.835 37.9747 137.845 46.3852 137.845 56.7605C137.845 67.1353 130.835 75.5463 130.835 75.5463C130.835 75.5463 123.824 67.1353 123.824 56.7605C123.824 46.3852 130.835 37.9747 130.835 37.9747ZM101.277 57.6879C101.277 57.6879 99.8676 68.2321 105.24 76.7627C110.613 85.2933 120.732 88.5781 120.732 88.5781C120.732 88.5781 122.143 78.0319 116.768 69.5023C111.396 60.9717 101.277 57.6879 101.277 57.6879ZM83.2365 81.3432C91.6435 86.9073 102.217 85.7373 102.217 85.7373C102.217 85.7373 99.164 75.5443 90.755 69.9822C82.349 64.417 71.7743 65.5891 71.7743 65.5891C71.7743 65.5891 74.8285 75.779 83.2365 81.3432ZM90.2701 95.4129C81.464 90.5056 71.0104 92.4804 71.0104 92.4804C71.0104 92.4804 74.8325 102.408 83.6406 107.314C92.4477 112.221 102.901 110.248 102.901 110.248C102.901 110.248 99.0793 100.317 90.2701 95.4129ZM67.0922 135.431C76.6099 132.105 82.0764 122.979 82.0764 122.979C82.0764 122.979 72.1142 119.242 62.597 122.571C53.0797 125.897 47.6143 135.024 47.6143 135.024C47.6143 135.024 57.5755 138.758 67.0922 135.431ZM71.272 157.32C71.272 157.32 81.7261 159.293 90.5317 154.385C99.3389 149.477 103.162 139.55 103.162 139.55C103.162 139.55 92.7069 137.574 83.9007 142.483C75.0941 147.391 71.272 157.32 71.272 157.32ZM80.5436 184.616C80.5436 184.616 91.1432 183.715 98.3119 176.626C105.482 169.537 106.503 158.948 106.503 158.948C106.503 158.948 95.9015 159.847 88.7328 166.937C81.5636 174.026 80.5436 184.616 80.5436 184.616ZM114.852 52.4441C114.852 52.4441 116.688 47.4874 115.014 42.767C113.343 38.046 108.798 35.3501 108.798 35.3501C108.798 35.3501 106.963 40.3053 108.635 45.0263C110.307 49.7463 114.852 52.4441 114.852 52.4441ZM94.2481 60.7799C94.2481 60.7799 95.1516 55.5715 92.6471 51.2342C90.1451 46.8965 85.1844 45.0731 85.1844 45.0731C85.1844 45.0731 84.2814 50.279 86.7849 54.6173C89.288 58.9546 94.2481 60.7799 94.2481 60.7799ZM63.5881 80.7377C67.6603 83.6528 72.9309 83.2651 72.9309 83.2651C72.9309 83.2651 71.6004 78.149 67.5277 75.2349C63.4565 72.3188 58.1864 72.7084 58.1864 72.7084C58.1864 72.7084 59.5159 77.8221 63.5881 80.7377ZM59.5129 111.994C64.4168 113.008 69.078 110.518 69.078 110.518C69.078 110.518 65.7876 106.38 60.8833 105.367C55.9794 104.352 51.3197 106.845 51.3197 106.845C51.3197 106.845 54.608 110.98 59.5129 111.994ZM59.0958 145.138C54.7251 147.581 52.8351 152.516 52.8351 152.516C52.8351 152.516 58.0284 153.489 62.3996 151.044C66.7703 148.599 68.6619 143.664 68.6619 143.664C68.6619 143.664 63.4665 142.692 59.0958 145.138ZM72.0225 166.809C68.1431 169.975 67.1396 175.164 67.1396 175.164C67.1396 175.164 72.4236 175.218 76.303 172.051C80.1813 168.884 81.1869 163.695 81.1869 163.695C81.1869 163.695 75.9008 163.641 72.0225 166.809ZM95.7152 188.171C93.705 192.757 95.1775 197.834 95.1775 197.834C95.1775 197.834 99.9055 195.474 101.915 190.886C103.923 186.299 102.453 181.222 102.453 181.222C102.453 181.222 97.7224 183.583 95.7152 188.171ZM155.965 76.7632C161.338 68.2326 159.928 57.6884 159.928 57.6884C159.928 57.6884 149.809 60.9722 144.437 69.5028C139.062 78.0324 140.472 88.5786 140.472 88.5786C140.472 88.5786 150.592 85.2938 155.965 76.7632ZM189.192 61.3659C189.192 61.3659 178.563 61.8413 171.116 68.6377C163.667 75.4317 162.222 85.974 162.222 85.974C162.222 85.974 172.851 85.4971 180.299 78.7006C187.747 71.9066 189.192 61.3659 189.192 61.3659ZM190.197 92.4804C190.197 92.4804 179.743 90.5056 170.936 95.4129C162.127 100.317 158.304 110.248 158.304 110.248C158.304 110.248 168.758 112.221 177.566 107.314C186.375 102.408 190.197 92.4804 190.197 92.4804ZM172.096 126.703C172.096 126.703 179.476 134.365 189.498 135.465C199.52 136.564 208.386 130.685 208.386 130.685C208.386 130.685 201.006 123.02 190.985 121.923C180.963 120.821 172.096 126.703 172.096 126.703ZM177.306 142.484C168.499 137.574 158.044 139.55 158.044 139.55C158.044 139.55 161.866 149.478 170.674 154.385C179.481 159.293 189.935 157.321 189.935 157.321C189.935 157.321 186.113 147.391 177.306 142.484ZM151.636 156.895C151.636 156.895 150.81 167.502 156.646 175.724C162.48 183.946 172.765 186.668 172.765 186.668C172.765 186.668 173.592 176.06 167.757 167.84C161.922 159.615 151.636 156.895 151.636 156.895ZM153.248 45.6517C155.361 41.1111 154.006 36.0039 154.006 36.0039C154.006 36.0039 149.224 38.2552 147.112 42.7958C144.998 47.3355 146.353 52.4441 146.353 52.4441C146.353 52.4441 151.134 50.1913 153.248 45.6517ZM174.966 57.8274C178.235 54.0337 178.32 48.7502 178.32 48.7502C178.32 48.7502 173.107 49.6162 169.838 53.4109C166.569 57.2045 166.484 62.4896 166.484 62.4896C166.484 62.4896 171.698 61.622 174.966 57.8274ZM194.895 81.5943C198.967 78.6782 200.297 73.5645 200.297 73.5645C200.297 73.5645 195.026 73.1753 190.955 76.0905C186.882 79.0056 185.552 84.1207 185.552 84.1207C185.552 84.1207 190.823 84.5094 194.895 81.5943ZM189.451 108.821C189.451 108.821 193.563 112.141 198.57 112.064C203.579 111.987 207.584 108.54 207.584 108.54C207.584 108.54 203.473 105.22 198.466 105.297C193.458 105.374 189.451 108.821 189.451 108.821ZM199.844 141.335C195.007 140.034 190.208 142.249 190.208 142.249C190.208 142.249 193.25 146.57 198.088 147.87C202.925 149.17 207.722 146.955 207.722 146.955C207.722 146.955 204.68 142.632 199.844 141.335ZM176.202 164.658C176.202 164.658 176.729 169.916 180.302 173.425C183.877 176.935 189.143 177.363 189.143 177.363C189.143 177.363 188.618 172.103 185.043 168.596C181.471 165.087 176.202 164.658 176.202 164.658ZM154.405 181.222C154.405 181.222 152.935 186.299 154.943 190.886C156.952 195.474 161.68 197.834 161.68 197.834C161.68 197.834 163.153 192.757 161.143 188.171C159.135 183.583 154.405 181.222 154.405 181.222Z" fill="url(#paint0_linear_30_25)"/>
<path d="M130.581 142.242L137.383 149.357C137.383 149.357 152.347 127.857 173.191 118.161C150.439 122.853 130.581 142.242 130.581 142.242Z" fill="#3A3A3C"/>
<path d="M137.426 149.913L130.084 142.234L130.334 141.99C130.533 141.795 150.528 122.474 173.119 117.816L176.088 117.204L173.339 118.482C152.819 128.025 137.822 149.344 137.673 149.558L137.426 149.913ZM131.081 142.254L137.344 148.805C139.298 146.113 152.442 128.606 170.285 119.208C150.498 124.438 133.35 140.117 131.081 142.254Z" fill="#232323"/>
<path d="M128 129.495C136.806 129.495 143.946 122.356 143.946 113.549C143.946 104.743 136.806 97.6035 128 97.6035C119.193 97.6035 112.054 104.743 112.054 113.549C112.054 122.356 119.193 129.495 128 129.495Z" fill="#3A3A3C"/>
<path d="M128 129.849C119.012 129.849 111.701 122.536 111.701 113.549C111.701 104.562 119.013 97.2502 128 97.2502C136.987 97.2502 144.299 104.562 144.299 113.549C144.299 122.536 136.987 129.849 128 129.849ZM128 97.9568C119.402 97.9568 112.407 104.952 112.407 113.549C112.407 122.147 119.402 129.142 128 129.142C136.598 129.142 143.593 122.147 143.593 113.549C143.593 104.952 136.598 97.9568 128 97.9568Z" fill="#232323"/>
<path d="M78.6826 117.162C78.6826 117.162 115.308 129.496 122.222 163.941C122.222 163.941 126.147 180.635 125.15 197.017C124.963 200.085 122.908 199.882 122.908 199.882C122.908 199.882 116.99 198.885 116.43 185.68C116.176 179.7 117.675 172.599 117.675 172.599C117.675 172.599 118.111 168.8 116.43 165.748C110.512 174.219 111.447 190.165 111.447 190.165C111.447 190.165 112.692 221.683 128.459 221.683C135.988 221.683 146.531 210.914 145.83 189.791C143.946 132.984 78.6826 117.162 78.6826 117.162Z" fill="#3A3A3C"/>
<path d="M128.459 222.036C112.536 222.036 111.145 191.48 111.094 190.179C111.055 189.529 110.221 174.019 116.14 165.545L116.465 165.08L116.738 165.577C118.455 168.691 118.044 172.48 118.026 172.639C118.005 172.742 116.533 179.799 116.782 185.664C117.321 198.368 122.911 199.523 122.968 199.533C123.374 199.531 124.654 199.348 124.797 196.994C125.779 180.851 121.917 164.188 121.878 164.021C118.327 146.327 106.742 134.623 97.6496 127.918C87.7871 120.646 78.6605 117.527 78.5693 117.497L78.7652 116.819C78.9291 116.858 95.332 120.916 111.745 131.88C121.394 138.325 129.162 145.861 134.836 154.279C141.932 164.811 145.75 176.755 146.182 189.779C146.566 201.369 143.485 211.429 137.727 217.381C134.865 220.339 131.487 222.036 128.459 222.036ZM116.386 166.446C110.972 174.838 111.79 189.989 111.799 190.144C111.811 190.463 113.211 221.329 128.459 221.329C131.297 221.329 134.49 219.711 137.219 216.89C142.845 211.075 145.854 201.202 145.476 189.803C144.508 160.608 126.385 142.51 111.353 132.467C101.299 125.752 91.2573 121.645 84.9941 119.474C88.5291 121.186 93.2137 123.77 98.0687 127.351C107.262 134.13 118.974 145.968 122.568 163.872C122.605 164.028 126.49 180.792 125.502 197.038C125.317 200.084 123.373 200.238 122.986 200.238C122.913 200.238 122.872 200.233 122.872 200.233C122.595 200.188 116.643 199.033 116.076 185.695C115.823 179.74 117.314 172.598 117.329 172.526C117.329 172.522 117.68 169.258 116.386 166.446Z" fill="#232323"/>
<defs>
<linearGradient id="paint0_linear_30_25" x1="128" y1="33.5704" x2="128" y2="199.757" gradientUnits="userSpaceOnUse">
<stop stop-color="#179D4B"/>
<stop offset="1" stop-color="#FBE34E"/>
</linearGradient>
</defs>
</svg>
