<svg width="48" height="48" viewBox="0 0 48 48" fill="none" xmlns="http://www.w3.org/2000/svg">
<path d="M15.8664 2.21674C20.173 0.609662 24.8595 0.315687 29.3332 1.37199C32.304 2.07345 35.1075 3.35325 37.5837 5.1383C40.0599 6.92335 42.1602 9.17868 43.7647 11.7755C45.3692 14.3723 46.4464 17.2598 46.9349 20.273C47.4233 23.2862 47.3135 26.3661 46.6115 29.3368C45.5545 33.8103 43.1947 37.87 39.8305 41.0024C36.4664 44.1348 32.2489 46.1993 27.7114 46.9349C23.1739 47.6704 18.5202 47.044 14.3388 45.1348C10.1573 43.2256 6.63583 40.1194 4.21969 36.2089C1.80354 32.2984 0.601203 27.7592 0.764714 23.1654C0.928224 18.5716 2.45024 14.1295 5.1383 10.4007C7.82635 6.67184 11.5597 3.82382 15.8664 2.21674Z" fill="white" stroke="#2172B9" stroke-width="1.5"/>
<path d="M39.9276 20.9473C39.9271 20.702 39.854 20.4623 39.7177 20.2587C39.5813 20.055 39.3877 19.8963 39.1615 19.8028C38.9352 19.7093 38.6863 19.6852 38.4463 19.7333C38.2064 19.7815 37.986 19.8999 37.8131 20.0735C37.6402 20.2472 37.5226 20.4683 37.475 20.7089C37.4275 20.9495 37.4522 21.1988 37.5459 21.4254C37.6397 21.652 37.7984 21.8456 38.002 21.9818C38.2055 22.118 38.4448 22.1907 38.6895 22.1907C38.8524 22.1911 39.0138 22.1592 39.1644 22.0968C39.3149 22.0344 39.4517 21.9427 39.5667 21.8272C39.6818 21.7116 39.7729 21.5743 39.8349 21.4233C39.8968 21.2723 39.9283 21.1105 39.9276 20.9473ZM34.1239 13.7286L32.244 32.6823C32.6656 32.7334 33.3182 32.6823 33.4337 32.0148C33.6136 30.9974 35.166 15.1282 35.166 15.1282C35.166 15.1282 35.4506 14.38 34.1105 13.7286H34.1239ZM38.4666 23.5715C38.4666 23.5715 37.3924 23.8864 35.9958 24.1259L35.123 32.5531C35.123 32.5531 35.0048 34.3483 33.6888 34.3483H32.0936L32.0748 34.5313C32.0748 34.5313 31.876 35.7667 30.8018 35.9282C29.7275 36.0897 8.93252 35.9282 8.93252 35.9282C8.93252 35.9282 8.05431 35.7667 8.01671 34.9431C7.97911 34.1195 8.01671 17.1388 8.01671 17.1388C8.11851 16.8045 8.31613 16.5077 8.58497 16.2852C8.85381 16.0626 9.18201 15.9243 9.52873 15.8872C10.0068 15.8253 13.6109 15.2305 17.8543 14.5226L19.2723 11.8311C19.4081 11.586 19.6052 11.3805 19.8443 11.2348C20.0834 11.0892 20.3562 11.0085 20.6359 11.0006C20.9155 10.9928 21.1924 11.058 21.4393 11.1899C21.6862 11.3219 21.8945 11.5159 22.0439 11.7531C21.781 11.4671 21.4207 11.2904 21.0341 11.2578H20.9938H20.9105H20.889C20.602 11.2571 20.3203 11.335 20.0742 11.483C19.8281 11.6309 19.627 11.8435 19.4925 12.0976L9.04532 31.9825C8.86728 32.3512 8.83911 32.7748 8.96674 33.164C9.09437 33.5531 9.36783 33.8774 9.72943 34.0684C10.091 34.2593 10.5125 34.3021 10.905 34.1876C11.2974 34.0731 11.6302 33.8104 11.833 33.4547L19.3528 19.1413V30.9624C19.3543 31.3757 19.5189 31.7717 19.8108 32.0637C20.1027 32.3557 20.4981 32.5201 20.9105 32.5208C21.88 32.5208 22.5219 31.3069 22.5756 31.1965L26.7115 23.2001V30.1172C26.7115 30.5306 26.8754 30.9269 27.167 31.2192C27.4586 31.5114 27.8541 31.6756 28.2665 31.6756C28.6789 31.6756 29.0744 31.5114 29.3661 31.2192C29.6577 30.9269 29.8215 30.5306 29.8215 30.1172V16.7916C29.8232 16.4285 29.6982 16.0764 29.4681 15.796C29.238 15.5156 28.9173 15.3247 28.5616 15.2563C28.2058 15.188 27.8374 15.2465 27.5201 15.4216C27.2029 15.5968 26.9567 15.8777 26.8243 16.2156L26.8002 16.2533L22.7421 24.1044L21.7458 26.2038L22.4655 23.5957V13.7502C27.818 12.8539 32.7918 12.0141 32.7918 12.0141C32.7918 12.0141 34.1078 11.6938 34.1884 13.0907L34.1293 13.6802C34.5805 13.5833 36.7075 13.2145 36.8525 15.0259L36.5544 19.3324C36.5544 19.3324 36.9197 19.6015 38.5069 18.9771C38.5069 18.9771 40.7387 18.0889 40.9777 20.3067C40.9777 20.3067 41.4101 22.5783 38.4666 23.5849V23.5715ZM39.3797 20.9553C39.3797 21.0921 39.3393 21.2259 39.2634 21.3396C39.1876 21.4534 39.0798 21.542 38.9537 21.5944C38.8275 21.6468 38.6888 21.6605 38.5549 21.6338C38.421 21.6071 38.298 21.5412 38.2015 21.4445C38.1049 21.3477 38.0392 21.2245 38.0126 21.0903C37.9859 20.9561 37.9996 20.817 38.0519 20.6906C38.1041 20.5642 38.1926 20.4562 38.3061 20.3802C38.4196 20.3042 38.553 20.2636 38.6895 20.2636C38.8712 20.2636 39.0455 20.3354 39.1748 20.4634C39.304 20.5913 39.3776 20.7652 39.3797 20.9473V20.9553Z" fill="#2172B9"/>
</svg>
