<svg width="48" height="48" viewBox="0 0 48 48" fill="none" xmlns="http://www.w3.org/2000/svg">
<path d="M29.5055 0.642064C24.8874 -0.448327 20.0498 -0.144867 15.6042 1.51407C11.1586 3.17301 7.3047 6.11293 4.5299 9.96207C1.7551 13.8112 0.183975 18.3967 0.0151884 23.1388C-0.153598 27.8808 1.08753 32.5664 3.58165 36.6031C6.07576 40.6398 9.71085 43.8463 14.0272 45.8171C18.3437 47.7879 23.1475 48.4345 27.8314 47.6752C32.5153 46.9159 36.8689 44.7848 40.3416 41.5513C43.8144 38.3178 46.2503 34.1271 47.3414 29.5092C48.066 26.4427 48.1794 23.2634 47.6752 20.153C47.171 17.0426 46.059 14.0619 44.4027 11.3813C42.7465 8.70067 40.5784 6.37255 38.0223 4.5299C35.4662 2.68725 32.5722 1.36616 29.5055 0.642064Z" fill="#D4F0E1"/>
<path d="M39.8932 21.966C39.6016 21.1331 38.8099 20.5352 37.8828 20.5352H37.862C37.2578 20.5352 36.7135 20.7885 36.3255 21.1931C35.9375 20.7885 35.3932 20.5352 34.7891 20.5352H34.7708C34.2396 20.5352 33.7526 20.731 33.3802 21.0522V20.8903C33.3672 20.7258 33.2344 20.5979 33.0677 20.5979H31.6406C31.4661 20.5979 31.3255 20.7389 31.3255 20.9138V28.6786C31.3255 28.8535 31.4661 28.9945 31.6406 28.9945H33.0677C33.2266 28.9945 33.3594 28.8744 33.3776 28.723V23.1487C33.3776 23.1278 33.3776 23.1121 33.3802 23.0939C33.4036 22.8458 33.5859 22.6396 33.8724 22.6161H34.1354C34.2552 22.6265 34.3568 22.6683 34.4349 22.7336C34.5599 22.8328 34.6276 22.9842 34.6276 23.1513L34.6328 28.6968C34.6328 28.8718 34.7734 29.0154 34.9479 29.0154H36.375C36.5443 29.0154 36.6797 28.8822 36.6875 28.7151V23.1461C36.6875 22.9633 36.7708 22.7962 36.9193 22.6996C36.9922 22.6526 37.0807 22.6213 37.1823 22.6109H37.4453C37.7552 22.637 37.9401 22.8719 37.9401 23.1461L37.9453 28.6864C37.9453 28.8613 38.0859 29.0023 38.2604 29.0023H39.6875C39.8542 29.0023 39.9922 28.8718 40.0026 28.7073V22.6317C39.9948 22.2897 39.9505 22.1305 39.8932 21.966ZM30.237 20.6188H29.4219V19.2924C29.4219 19.2898 29.4219 19.2898 29.4219 19.2872C29.4219 19.1305 29.2943 19 29.1328 19C29.1146 19 29.0963 19.0026 29.0781 19.0052C28.1745 19.2533 28.3542 20.5091 26.7031 20.6161H26.5443C26.5208 20.6161 26.4974 20.6188 26.4739 20.624C26.3359 20.6579 26.2292 20.7832 26.2292 20.9347V22.3654C26.2292 22.5404 26.3698 22.6814 26.5443 22.6814H27.4036L27.401 28.7438C27.401 28.9162 27.5417 29.0571 27.7135 29.0571H29.125C29.2969 29.0571 29.4375 28.9162 29.4375 28.7438V22.6814H30.237C30.4088 22.6814 30.5521 22.5378 30.5521 22.3654V20.9347C30.5521 20.7597 30.4114 20.6188 30.237 20.6188Z" fill="#00BAF2"/>
<path d="M25.1068 20.6187H23.6797C23.5078 20.6187 23.3646 20.7597 23.3646 20.9346V23.8928C23.362 24.0755 23.2135 24.2217 23.0312 24.2217H22.4349C22.25 24.2217 22.099 24.0729 22.099 23.8875L22.0937 20.9346C22.0937 20.7597 21.9531 20.6187 21.7786 20.6187H20.3516C20.1771 20.6187 20.0365 20.7597 20.0365 20.9346V24.1747C20.0365 25.4045 20.9115 26.2843 22.1406 26.2843C22.1406 26.2843 23.0625 26.2843 23.0911 26.2896C23.2578 26.3078 23.3854 26.4488 23.3854 26.6211C23.3854 26.7908 23.2604 26.9318 23.0937 26.9527C23.0859 26.9527 23.0781 26.9553 23.0703 26.9579L20.9844 26.9658C20.8099 26.9658 20.6693 27.1068 20.6693 27.2817V28.7098C20.6693 28.8848 20.8099 29.0258 20.9844 29.0258H23.3151C24.5443 29.0258 25.4193 28.1485 25.4193 26.9188V20.9346C25.4219 20.7597 25.2812 20.6187 25.1068 20.6187ZM16.9922 20.6265H15.013C14.8385 20.6265 14.6953 20.7597 14.6953 20.9216V21.4777C14.6953 21.4803 14.6953 21.4855 14.6953 21.4881C14.6953 21.4933 14.6953 21.496 14.6953 21.5012V22.2636C14.6953 22.4359 14.8464 22.5795 15.0312 22.5795H16.9167C17.0651 22.603 17.1823 22.7126 17.2005 22.8823V23.0677C17.1849 23.2296 17.0677 23.3471 16.9245 23.3601H15.9922C14.75 23.3601 13.8672 24.1878 13.8672 25.347V27.0102C13.8672 28.1642 14.6276 28.984 15.8594 28.984H18.4453C18.9089 28.984 19.2865 28.6315 19.2865 28.1981V22.7727C19.2865 21.4568 18.6094 20.6265 16.9922 20.6265ZM17.2188 26.595V26.8196C17.2188 26.8378 17.2161 26.8561 17.2135 26.8718C17.2109 26.8874 17.2057 26.9031 17.2005 26.9188C17.1563 27.0441 17.0312 27.1355 16.8828 27.1355H16.2891C16.1042 27.1355 15.9531 26.9945 15.9531 26.8196V26.5506C15.9531 26.548 15.9531 26.5428 15.9531 26.5402V25.8222V25.5977V25.5951C15.9531 25.4227 16.1042 25.2817 16.2891 25.2817H16.8828C17.0677 25.2817 17.2188 25.4227 17.2188 25.5977V26.595ZM11.4271 20.6161H8.3099C8.13802 20.6161 8 20.7571 8 20.9268V22.3288C8 22.3314 8 22.3341 8 22.3367C8 22.3445 8 22.3497 8 22.3549V28.6968C8 28.8691 8.1276 29.0101 8.28906 29.0127H9.74219C9.91667 29.0127 10.0573 28.8717 10.0573 28.6968L10.0625 26.5245H11.4271C12.5677 26.5245 13.3646 25.7308 13.3646 24.5794V22.5638C13.3646 21.415 12.5677 20.6161 11.4271 20.6161ZM11.3021 23.2374V24.1199C11.3021 24.3053 11.1536 24.4567 10.9687 24.4567H10.0651V22.6891H10.9687C11.1536 22.6891 11.3021 22.838 11.3021 23.0233V23.2374Z" fill="#20336B"/>
</svg>
