<svg width="48" height="48" viewBox="0 0 48 48" fill="none" xmlns="http://www.w3.org/2000/svg">
<path d="M29.5158 0.648411C24.8977 -0.44198 20.06 -0.138519 15.6144 1.52042C11.1688 3.17936 7.31495 6.11928 4.54015 9.96842C1.76536 13.8176 0.194229 18.4031 0.0254423 23.1451C-0.143344 27.8872 1.09779 32.5728 3.5919 36.6094C6.08602 40.6461 9.7211 43.8526 14.0375 45.8234C18.3539 47.7942 23.1578 48.4409 27.8417 47.6816C32.5256 46.9223 36.8791 44.7911 40.3519 41.5576C43.8246 38.3241 46.2606 34.1335 47.3517 29.5156C48.0763 26.449 48.1897 23.2697 47.6855 20.1593C47.1812 17.0489 46.0693 14.0683 44.413 11.3876C42.7567 8.70701 40.5887 6.3789 38.0326 4.53625C35.4765 2.6936 32.5825 1.3725 29.5158 0.648411Z" fill="#5F259F"/>
<path d="M34.8908 17.7383C34.8778 17.2821 34.6894 16.8486 34.365 16.5277C34.0405 16.2069 33.6048 16.0235 33.1486 16.0156H29.9298L22.5587 7.55075C22.2139 7.16333 21.766 6.88197 21.2674 6.73949C20.7687 6.597 20.2397 6.59929 19.7423 6.74606L17.1876 7.55075C17.0968 7.58153 17.0149 7.63383 16.9487 7.70318C16.8825 7.77254 16.8341 7.85688 16.8076 7.949C16.7812 8.04113 16.7774 8.13829 16.7966 8.2322C16.8158 8.32611 16.8575 8.41396 16.9181 8.48825L24.9689 16.1289H12.7736C12.685 16.125 12.5966 16.1396 12.514 16.1718C12.4314 16.2041 12.3564 16.2532 12.2939 16.3161C12.2314 16.379 12.1827 16.4542 12.1509 16.537C12.1192 16.6198 12.1051 16.7083 12.1095 16.7968V18.1367C12.1175 18.5962 12.3037 19.0347 12.6287 19.3597C12.9537 19.6847 13.3921 19.8708 13.8517 19.8789H15.7306V26.3164C15.7306 31.1406 18.2775 33.957 22.5665 33.957C23.8509 33.9964 25.1295 33.7676 26.3204 33.2851V37.582C26.3168 37.8646 26.3697 38.1452 26.4762 38.407C26.5827 38.6689 26.7405 38.9067 26.9404 39.1066C27.1402 39.3065 27.3781 39.4643 27.64 39.5708C27.9018 39.6772 28.1823 39.7302 28.465 39.7265H30.34C30.5486 39.712 30.7449 39.6225 30.8928 39.4746C31.0406 39.3268 31.1301 39.1305 31.1447 38.9218V19.75H34.2189C34.3084 19.7551 34.3981 19.7412 34.4819 19.7092C34.5657 19.6773 34.6419 19.6279 34.7053 19.5645C34.7687 19.5011 34.818 19.4249 34.85 19.3411C34.882 19.2573 34.8959 19.1677 34.8908 19.0781V17.7383ZM26.297 29.2656C25.4515 29.6354 24.5361 29.818 23.6134 29.8008C21.4689 29.8008 20.3986 28.7304 20.3986 26.3164V19.8828H26.297V29.2578V29.2656Z" fill="white"/>
</svg>
