<svg width="48" height="48" viewBox="0 0 48 48" fill="none" xmlns="http://www.w3.org/2000/svg">
<path d="M29.5055 0.642064C24.8874 -0.448327 20.0498 -0.144867 15.6042 1.51407C11.1586 3.17301 7.3047 6.11293 4.5299 9.96207C1.7551 13.8112 0.183975 18.3967 0.0151884 23.1388C-0.153598 27.8808 1.08753 32.5664 3.58165 36.6031C6.07576 40.6398 9.71085 43.8463 14.0272 45.8171C18.3437 47.7879 23.1475 48.4345 27.8314 47.6752C32.5153 46.9159 36.8689 44.7848 40.3416 41.5513C43.8144 38.3178 46.2503 34.1271 47.3414 29.5092C48.066 26.4427 48.1794 23.2634 47.6752 20.153C47.171 17.0426 46.059 14.0619 44.4027 11.3813C42.7465 8.70067 40.5784 6.37255 38.0223 4.5299C35.4662 2.68725 32.5722 1.36616 29.5055 0.642064Z" fill="#29A71A"/>
<path fill-rule="evenodd" clip-rule="evenodd" d="M29.6911 9.91307C31.5205 10.667 33.1805 11.7796 34.5731 13.1854C36.6852 15.282 38.125 17.9602 38.7088 20.8784C39.2927 23.7966 38.9942 26.8226 37.8514 29.5705C36.7087 32.3184 34.7733 34.6636 32.2923 36.3072C29.8113 37.9507 26.897 38.8181 23.921 38.7987H24.0296C21.5506 38.7944 19.1116 38.1716 16.9337 36.9865L9 39.0001L11.0136 31.2476C9.70652 28.9756 9.0184 26.4004 9.01799 23.7792C9.01758 21.158 9.70489 18.5826 11.0113 16.3102C12.3177 14.0377 14.1974 12.1478 16.4628 10.8292C18.7282 9.51058 21.2998 8.8094 23.921 8.79568C25.8996 8.77921 27.8616 9.15915 29.6911 9.91307ZM17.5781 34.4694C19.4945 35.6175 21.687 36.2231 23.921 36.2213C27.2198 36.216 30.3819 34.9032 32.7145 32.5706C35.0471 30.238 36.3599 27.0759 36.3652 23.7771C36.3719 22.1419 36.0531 20.5217 35.4274 19.011C34.8016 17.5002 33.8815 16.1291 32.7205 14.9775C30.555 12.8318 27.6772 11.5556 24.6331 11.3911C21.589 11.2266 18.5904 12.1852 16.2063 14.085C13.8222 15.9849 12.2184 18.6938 11.6992 21.6978C11.18 24.7018 11.7815 27.7919 13.3897 30.3818L13.6716 30.8449L12.4232 35.436L17.1351 34.2077L17.5781 34.4694ZM30.1091 26.559C30.4243 26.7128 30.6874 26.8412 30.8076 26.8981C30.8532 26.9198 30.8969 26.9402 30.9385 26.9598C31.2458 27.104 31.4438 27.1969 31.5325 27.321C31.6197 27.9208 31.5432 28.5331 31.311 29.093C31.032 29.5464 30.6629 29.9376 30.2264 30.2424C29.79 30.5472 29.2956 30.7591 28.7738 30.865C27.9883 31.0031 27.1813 30.9548 26.4179 30.724C26.3823 30.7122 26.3461 30.7001 26.3092 30.6879C25.7836 30.5131 25.1315 30.2962 24.3036 29.9387C21.711 28.6463 19.4978 26.7037 17.8801 24.3006C16.9986 23.1704 16.4729 21.8036 16.3699 20.374C16.3614 19.7917 16.4732 19.2138 16.6984 18.6768C16.9237 18.1397 17.2574 17.6549 17.6788 17.2529C17.9398 16.9712 18.3019 16.8047 18.6856 16.7897H19.491C19.514 16.7897 19.5375 16.7886 19.5618 16.7875C19.7713 16.7779 20.0278 16.7662 20.3166 17.4341C20.4007 17.6285 20.5204 17.8971 20.6515 18.191C21.0226 19.0232 21.4845 20.0588 21.4845 20.1928C21.5345 20.2964 21.5604 20.41 21.5604 20.525C21.5604 20.6401 21.5345 20.7536 21.4845 20.8573C21.3911 21.0801 21.2693 21.2899 21.1221 21.4815C20.9207 21.703 20.7193 21.9245 20.5582 22.1258C20.543 22.1449 20.5271 22.164 20.5112 22.1833C20.3591 22.3669 20.1967 22.5629 20.3971 22.891C20.9288 23.8566 21.6083 24.733 22.4108 25.4886C23.2973 26.2735 24.3122 26.9001 25.4111 27.3411C25.7937 27.623 25.995 27.6029 26.2165 27.3411C26.2328 27.3219 26.2517 27.2996 26.2728 27.2747C26.5392 26.9605 27.162 26.2257 27.4046 25.8712C27.6663 25.4886 27.908 25.5289 28.2503 25.6698C28.4851 25.7665 29.421 26.2232 30.1091 26.559Z" fill="white"/>
</svg>
